<?xml version="1.0" encoding="UTF-8"?>
<!DOCTYPE svg PUBLIC "-//W3C//DTD SVG 1.1//EN" "http://www.w3.org/Graphics/SVG/1.1/DTD/svg11.dtd">
<!-- Creator: CorelDRAW (OEM Version) -->
<svg xmlns="http://www.w3.org/2000/svg" xml:space="preserve" width="127.709mm" height="25.1393mm" version="1.1" style="shape-rendering:geometricPrecision; text-rendering:geometricPrecision; image-rendering:optimizeQuality; fill-rule:evenodd; clip-rule:evenodd"
viewBox="0 0 12770.88 2513.93"
 xmlns:xlink="http://www.w3.org/1999/xlink"
 xmlns:xodm="http://www.corel.com/coreldraw/odm/2003">
 <defs>
  <style type="text/css">
   <![CDATA[
    .str0 {stroke:black;stroke-width:16.93;stroke-miterlimit:2.61313}
    .fil0 {fill:black}
    .fil1 {fill:black;fill-rule:nonzero}
    .fil4 {fill:#3FD3D5;fill-rule:nonzero}
    .fil3 {fill:#E9295D;fill-rule:nonzero}
    .fil6 {fill:#FDFCFC;fill-rule:nonzero}
    .fil5 {fill:#FEC843;fill-rule:nonzero}
    .fil2 {fill:white;fill-rule:nonzero}
   ]]>
  </style>
 </defs>
 <g id="Layer_x0020_1">
  <metadata id="CorelCorpID_0Corel-Layer"/>
  <g id="_1471284676144">
   <path class="fil0 str0" d="M3232.53 1876.76l5991.48 0c172.89,0 314.34,141.45 314.34,314.34l0 314.36 -5991.47 0c-172.91,0 -314.35,-141.44 -314.35,-314.34l0 -314.36z"/>
   <g>
    <path class="fil1" d="M1015.18 1401.96l-879.14 0c-37.55,0 -71.56,-15.23 -96.19,-39.86 -24.62,-24.63 -39.85,-58.64 -39.85,-96.18l0 -258.91 3.13 0c2.31,-11.41 6.09,-22.52 11.28,-33.03 8.96,-18.12 22.13,-34.56 39.28,-47.62l322.48 -246.26c-5.03,0.98 -10.12,1.67 -15.23,2.07 -33.92,2.7 -68.96,-7.41 -97.28,-30.96l-204.17 -169.8c-29.6,-22.84 -47.17,-55.65 -51.61,-90.09 -4.4,-34.4 4.29,-70.51 27.17,-100.14 34.8,-45.03 69.95,-85.24 107.35,-120.39 37.77,-35.52 78.11,-66.08 122.96,-91.43l23.28 -13.14 0.4 0.68c39.46,-20.05 81.34,-35.73 126.74,-46.83 54.29,-13.26 113.33,-20.07 178.88,-20.07 75.97,0 146.87,11.71 210.77,33.51 66.02,22.51 124.58,55.86 173.62,98.27 51.56,44.57 92.22,98.53 119.79,159.93 26.86,59.85 41.27,126.5 41.27,198.22l0 3.16c0,16.66 -0.66,32.94 -1.95,48.88l397.06 -472.52c12.4,-17.82 28.98,-32.5 48.28,-42.67 18.97,-9.98 40.53,-15.66 63.26,-15.66l311.03 0c37.53,0 71.55,15.23 96.18,39.86 24.63,24.62 39.86,58.63 39.86,96.18l0 403.3 11.12 -5.62c3.29,-1.46 7.23,-2.96 11.69,-4.45 4.12,-1.46 8.24,-2.63 12.26,-3.58l12.32 -2.49 13.24 -1.66 11.12 -0.86 12.38 -0.55 23.43 -0.21c0.32,-12.43 0.54,-24.98 1.19,-37.38 0.46,-13.03 1.41,-25.29 2.81,-36.65 1.43,-11.57 3.52,-23.52 6.23,-35.76 3.01,-13.61 6.56,-26.43 10.62,-38.33 4.19,-12.36 9.09,-24.26 14.59,-35.64 5.11,-10.6 10.46,-20.61 15.97,-29.96 5.84,-9.81 11.63,-18.71 17.35,-26.62 6.94,-9.56 14.34,-18.58 22.07,-26.97 7.86,-8.5 16.07,-16.37 24.58,-23.5 7.44,-6.22 15.1,-12.1 22.94,-17.56 7.87,-5.48 16.05,-10.67 24.44,-15.48 7.15,-4.09 15.23,-8.24 24.19,-12.37 7.71,-3.58 17.03,-7.47 27.73,-11.58l23.89 -8.95c8.05,-2.71 15.63,-5.46 23.79,-7.66 5.29,-1.45 11.12,-2.92 17.5,-4.32 6.06,-1.34 12.02,-2.51 17.75,-3.42l14.75 -2.25 29.58 -3.2 14.52 -0.95c7.82,-0.53 16.79,-0.88 26.72,-0.99 9.22,-0.13 18.68,-0.04 28.27,0.25 11.39,0.34 21.29,0.84 29.69,1.42 9.73,0.67 18.6,1.54 26.65,2.52 20.76,2.54 41.77,6.7 63.03,12.42 21.17,5.72 42.59,12.99 64.11,21.77 12.39,5.17 23.7,10.31 33.82,15.47 11.49,5.96 22.19,11.98 31.97,18.1 10.94,6.98 21.17,14.01 30.52,21.15 9.85,7.5 19.3,15.43 28.25,23.69 10.22,9.43 20,19.76 29.27,30.91 9.38,11.3 17.88,22.91 25.38,34.77 7.01,11.16 13.63,23.07 19.78,35.74 5.96,12.28 11.68,25.74 17.11,40.26 2.04,5.22 3.97,10.75 5.83,16.55l14.36 -0.96c11.49,-0.66 23.72,-1.16 36.68,-1.43 12.48,-0.26 24.76,-0.31 36.66,-0.15 12.72,0.18 24.5,0.6 35.15,1.17 13.02,0.73 24.9,1.71 35.52,2.91 10.69,1.21 20.74,2.78 30.21,4.68l14.5 3.39 11.26 -3.73c6.96,-2.2 14.66,-4.35 22.96,-6.41 6.24,-1.58 13.66,-3.25 22.27,-5l23.95 -4.45c18.22,-3 36.6,-5.25 55.15,-6.7 19.2,-1.47 38.64,-2.23 58.31,-2.23 68.24,0 130.33,11.44 186.05,34.28 29.78,12.23 57.21,27.6 82.19,46.06 20.32,15.02 39.05,32.13 56.12,51.27 21.44,-21.08 45.51,-39.68 72.15,-55.8 35.72,-21.57 76.24,-38.75 121.47,-51.44 39.26,-11 82.6,-18.63 129.96,-22.84 46.85,-4.15 97.36,-4.94 151.44,-2.35 17.28,0.84 33.25,1.88 47.89,3.05 15.52,1.26 31.29,2.83 47.18,4.63 16.04,1.83 32.41,3.95 49.02,6.35 16.69,2.39 33.57,5.07 50.57,7.96l7.47 1.5 6.91 1.77c22.91,5.86 42.7,16.41 59.23,31.58 13.53,12.4 24.7,27.73 33.42,45.95 16.71,-12.92 34.73,-24.66 54.03,-35.23 31.82,-17.42 67.05,-31.57 105.55,-42.37 39.26,-11 82.6,-18.63 129.97,-22.84 46.84,-4.15 97.35,-4.94 151.43,-2.35 17.28,0.84 33.25,1.88 47.89,3.05 15.52,1.26 31.29,2.83 47.18,4.63 16.04,1.83 32.41,3.95 49.02,6.35 16.69,2.39 33.57,5.07 50.57,7.96l4.24 0.79 -2.07 -88.12c-0.18,-7.52 0.27,-14.94 1.27,-22.13l-2.96 -1.03 9.13 -25.61c10.28,-28.87 28.32,-52.17 53.99,-69.79 24.05,-16.51 54.84,-27.76 92.28,-33.67 15.38,-2.43 33.03,-4.39 52.84,-5.83 19.07,-1.4 41.73,-2.45 67.88,-3.07 25.14,-0.63 47.47,-0.87 66.86,-0.73 20.33,0.15 36.95,0.68 49.77,1.58 32.46,2.3 60.39,8.74 83.64,19.25 24.89,11.26 44.52,27.1 58.85,47.5 4.03,5.74 7.6,11.79 10.7,18.03 3.15,6.41 5.78,12.94 7.82,19.5 2.44,7.37 4.52,14.81 6.07,22.17 1.66,7.71 2.96,16 3.91,24.79 0.74,7.02 1.41,15.52 1.99,25.37l1.43 33.35 1.22 49.13 17.67 0c26.25,0 49.68,5.31 70.13,15.88 10.63,5.51 20.34,12.39 29.11,20.62 11.61,-10.49 24.72,-18.7 38.62,-24.52 15.28,-6.39 31.71,-9.88 48.24,-10.41 19.6,-3.78 42.06,-6.28 67.27,-7.5 25.3,-1.21 53.42,-1.1 84.23,0.35 24.18,1.13 46.14,2.62 65.8,4.4 20.12,1.82 36.99,3.91 50.47,6.2 31.34,5.35 58.15,14.53 80.32,27.52 9.5,5.56 18.11,11.8 25.84,18.72 9.64,-12.42 21.49,-23.02 35.55,-31.81 25.38,-15.86 57.71,-25.35 96.87,-28.44 13.98,-1.07 30.67,-1.63 50.11,-1.63 17.87,0 40.37,0.56 67.33,1.63 27.04,1.08 50,2.49 68.86,4.17 21.17,1.99 38.67,4.17 52.4,6.61 32.7,5.84 60.46,15.75 83.16,29.68 18.31,11.23 33.28,25.04 44.9,41.33l4.32 -1.8 0.77 2.06 2.01 -1.53c10.67,-8.08 22.17,-16.13 34.36,-24.05 12.28,-7.96 24.81,-15.45 37.53,-22.37 13.02,-7.07 25.76,-13.4 38.08,-18.85 27.92,-12.32 55.79,-21.49 83.54,-27.47 18.49,-3.99 37,-6.52 55.49,-7.63l0 -1.09 27.21 0c9.13,0 18.7,0.38 28.68,1.1 7.9,0.58 15.73,1.4 23.52,2.45l0.02 -1.13c0.77,-45.91 5.1,-83.59 13.02,-113.08 8.9,-33.1 22.66,-57.4 41.31,-72.88 4.19,-3.35 8.34,-6.44 12.43,-9.1 3.67,-2.48 7.94,-4.9 12.65,-7.28 12.14,-6.62 25.7,-12.12 40.51,-16.42 14.61,-4.24 30.35,-7.39 47.08,-9.4 12.08,-1.45 26.81,-2.51 44.11,-3.13 16.31,-0.58 34.97,-0.74 55.88,-0.47 20.17,0.24 38.1,0.87 53.77,1.79 16.3,0.94 31.28,2.31 44.79,4.04 14.91,1.9 28.47,4.37 40.51,7.38 5.66,1.43 11.15,2.97 16.44,4.67 11.2,-11.69 23.29,-22.2 36.27,-31.49 14.43,-10.33 30,-19.21 46.64,-26.57 16.18,-7.16 33.58,-12.9 52.07,-17.11 17.75,-4.08 35.55,-6.44 53.32,-7.1 17.72,-0.62 35.35,0.45 52.81,3.25 17.72,2.86 35,7.44 51.76,13.67 16.77,6.25 33,14.15 48.49,23.62 32.18,19.64 58.65,43.81 79.31,72.37 20.61,28.45 35.41,61.32 44.36,98.48 4.37,18.17 6.95,36.2 7.73,53.92 0.77,17.89 -0.23,35.69 -3.06,53.27 -2.89,18.09 -7.56,35.63 -13.91,52.44l-1.77 4.56c13.79,-8.69 28.82,-16.93 45.07,-24.69 16.51,-7.89 33.72,-15.02 51.52,-21.29 32.74,-11.57 68.45,-20.55 107.03,-26.91 37.88,-6.25 78.72,-9.96 122.41,-11.09 21.31,-0.83 42.14,-0.83 62.4,-0.03 20.32,0.81 40.26,2.48 59.72,4.95 20.85,2.67 40.67,6.17 59.36,10.46 19.16,4.4 37.48,9.69 54.81,15.81 17.88,6.31 35.07,13.49 51.49,21.48 15.97,7.72 31.73,16.64 47.28,26.68 15.75,10.07 30.5,21.14 44.22,33.03 10.24,8.9 19.93,18.3 29.03,28.13 23.66,-24.99 50.79,-46.75 81.29,-65.21 35.73,-21.6 76.31,-38.81 121.58,-51.52 39.26,-11 82.61,-18.63 129.97,-22.84 46.84,-4.15 97.35,-4.94 151.43,-2.35 17.29,0.84 33.26,1.88 47.89,3.05 15.52,1.26 31.3,2.83 47.19,4.63 16.03,1.83 32.4,3.95 49.01,6.35 16.69,2.39 33.58,5.07 50.57,7.96l7.48 1.5 6.9 1.77c22.91,5.86 42.7,16.41 59.24,31.58 16.4,15.04 29.35,34.4 38.65,57.96l3.63 10.38 2.76 10.54c1.64,6.36 3.1,13.32 4.28,20.82 1.22,7.78 2.12,15.67 2.63,23.51 0.4,6.44 0.66,13.91 0.72,22.31 0.07,7.92 -0.06,15.95 -0.38,23.97 -0.34,8.72 -0.84,16.55 -1.41,23.25 -0.55,6.28 -1.48,14.26 -2.7,23.73 -1.21,9.2 -2.59,17.92 -4.1,26.17 -1.64,8.98 -3.34,16.83 -5.01,23.52 -1.98,7.92 -4.39,16.21 -7.2,24.91 -2.65,8.28 -5.49,16.13 -8.51,23.59 -4.82,11.79 -10.42,22.87 -16.78,33.16l-4.77 7.34 2.33 2.15 -5.16 5.27c8.87,7.49 17.34,15.44 25.34,23.73l7.84 8.45 5.99 -3.47c9.05,-5.19 18.77,-9.93 29.03,-14.25 17.83,-7.63 36.29,-13.32 55.3,-17.08 19.07,-3.76 38.6,-5.65 58.54,-5.65 19.68,0 39.02,1.88 57.95,5.59 7.36,1.44 14.65,3.18 21.88,5.2 2.17,-13.96 4.82,-27.53 7.94,-40.71 5.65,-23.85 13.01,-47.13 22.05,-69.74 13,-32.5 29.31,-62.7 48.91,-90.54 19.53,-27.79 42.52,-53.42 68.84,-76.78 24.99,-22.18 51.94,-41.7 80.66,-58.48 28.95,-16.82 59.91,-31.15 92.86,-42.87 30.73,-10.95 63.63,-19.7 98.59,-26.21 34.56,-6.42 71,-10.62 109.2,-12.53 15.28,-0.74 30.8,-1.15 46.41,-1.17 15.51,-0.03 30.41,0.3 44.55,1.01 15.58,0.77 30.62,1.93 45,3.46 14.81,1.57 28.98,3.5 42.35,5.78 14.73,2.49 28.69,5.3 41.74,8.37 13.36,3.15 26.18,6.68 38.39,10.51 13.4,4.2 26.3,8.9 38.62,14.02 12.33,5.11 24.18,10.75 35.46,16.82 10.07,5.42 20.27,11.55 30.52,18.28 9.4,6.06 19.14,13.13 29.1,21 7.49,5.91 14.62,11.99 21.33,18.11l11.41 -9.48c11.44,-9.16 22.89,-17.38 34.25,-24.6 14.12,-8.98 29.59,-17.49 46.33,-25.49 16.52,-7.89 33.73,-15.02 51.53,-21.29 32.74,-11.57 68.45,-20.55 107.02,-26.91 37.89,-6.25 78.72,-9.96 122.42,-11.09 21.3,-0.83 42.14,-0.83 62.4,-0.03 20.32,0.81 40.26,2.48 59.71,4.95 20.86,2.67 40.68,6.17 59.37,10.46 19.16,4.4 37.48,9.69 54.81,15.81 17.88,6.31 35.07,13.49 51.49,21.48 15.99,7.72 31.76,16.66 47.33,26.71 5.56,3.54 10.92,7.2 16.19,10.96l1.45 -1.77c4.79,-5.65 10.07,-10.92 15.65,-15.68 5.62,-4.8 11.61,-9.11 17.94,-12.91 11.79,-7.2 25.34,-13.32 40.57,-18.32 14.23,-4.66 30.51,-8.48 48.68,-11.36 13.07,-2.08 27.05,-3.79 41.73,-5.02 14.06,-1.21 30.75,-2.17 49.89,-2.88 18.66,-0.67 36.01,-0.79 51.89,-0.32 16.13,0.46 30.84,1.57 44.03,3.24 11.63,1.5 22.38,3.47 32.13,5.92 5.87,1.47 11.55,3.13 17.06,4.98l13.89 -6.7c6.07,-2.81 13.14,-5.77 21.44,-8.97l6.91 -2.47c8.1,-2.94 16.5,-5.62 25.19,-8 8.16,-2.33 16.4,-4.2 24.58,-5.64 9.4,-1.66 18.96,-2.92 28.5,-3.74 9.62,-0.86 19.26,-1.29 28.89,-1.29l9.2 0.42c26.09,0 50.91,1.77 74.34,5.28 23.89,3.59 47.18,9.19 69.82,16.71l0.25 0.07c10.96,3.51 21.85,7.68 32.6,12.35 6.35,2.76 12.64,5.74 18.86,8.88l20.85 -8.57c11.75,-4.57 22.8,-8.5 33.1,-11.75 22.47,-7.1 45.54,-12.61 69.03,-16.45 22.85,-3.74 46.16,-5.9 69.77,-6.33 8.73,-0.34 17.43,-0.46 25.97,-0.4 9.12,0.08 17.3,0.37 24.38,0.83l0.65 0.04c7.22,0.48 15.24,1.27 23.95,2.37 7.23,0.82 15.89,2.21 25.86,3.99 17.5,3.13 33.76,6.97 48.71,11.45 15.56,4.66 30.38,10.17 44.38,16.47 5.75,2.59 11.74,5.53 17.94,8.79l0.64 -1.03 22.85 14.09c6.83,4.21 13.41,8.56 19.63,13 6.2,4.41 12.52,9.25 18.81,14.41 5.43,4.33 11.19,9.41 17.27,15.16 5.77,5.43 11.51,11.23 17.16,17.27l18.65 21.93 10.85 14.32c4.26,5.97 8.32,11.9 12.02,17.65 3.74,5.82 7.4,11.78 10.87,17.79 3.94,6.79 7.44,13.09 10.36,18.73l9.43 19.29 8.34 19.3c2.52,6.04 5.17,12.96 8,20.77l7.04 20.81c1.91,5.75 4.06,12.99 6.51,21.75l6.25 23.58 4.62 20.82c1.35,6.46 2.57,13.34 3.68,20.58l6.12 47.43c2.46,24.45 5.37,49.3 6.07,73.85 0.61,14.92 1.03,31.07 1.23,48.34 0.19,16.76 0.17,34.24 -0.07,52.28 -0.24,19.98 -0.72,39.37 -1.38,58.07 -0.72,20.23 -1.64,39.44 -2.7,57.55 -1.19,20.26 -2.65,39.15 -4.35,56.53 -1.66,17.1 -3.6,32.54 -5.74,46.18 -3.74,23.87 -9.24,44.8 -16.39,62.67 -7.67,19.16 -17.36,35.18 -28.99,47.95 -7.44,8.2 -15.84,15.36 -24.87,21.39 -8.98,6.02 -18.51,10.87 -28.29,14.5 -22.58,9.19 -49.37,14.49 -80.35,15.86 -13.3,0.59 -29.33,0.75 -48,0.5 -18.81,-0.26 -39.52,-0.95 -62,-2.03 -36.37,-1.73 -68.92,-5.3 -97.53,-10.63 -24.27,-4.52 -45.82,-10.35 -64.57,-17.45 -4.69,2.04 -9.57,3.95 -14.62,5.72 -9.33,3.26 -19.07,5.99 -29.14,8.14 -10.23,2.21 -22.18,4.25 -35.79,6.09 -13.82,1.87 -28.34,3.46 -43.44,4.73 -12.85,1.07 -27.6,1.92 -44.09,2.52 -15.08,0.53 -31.24,0.77 -48.35,0.71 -15.96,-0.05 -31.51,-0.47 -46.59,-1.18 -15.01,-0.7 -30.74,-1.8 -47.06,-3.26 -19.55,-1.73 -36.71,-3.93 -51.41,-6.47 -15.81,-2.75 -29.88,-6.04 -42.23,-9.9l-9.1 -3.04c-6.1,3.07 -12.48,5.79 -19.1,8.15 -11.23,3.94 -23.26,7.08 -36.06,9.35 -7.7,1.37 -17.95,2.63 -30.63,3.79 -12.06,1.11 -25.54,2.04 -40.27,2.73 -12.18,0.56 -25.13,0.98 -38.9,1.18 -13.22,0.19 -26.82,0.2 -40.66,0.01 -15.42,-0.19 -29.54,-0.59 -42.38,-1.11 -14.62,-0.59 -27.32,-1.31 -38.06,-2.12 -15.1,-1.14 -29.2,-2.65 -42.22,-4.5 -13.09,-1.86 -24.95,-4.11 -35.52,-6.7l-7.1 -1.99c-25.94,-7.24 -47.89,-18.15 -65.75,-32.63 -10.54,-8.54 -19.6,-18.28 -27.19,-29.2 -7.34,5.39 -14.47,10.29 -21.38,14.68 -14.1,8.96 -29.59,17.5 -46.33,25.5 -16.52,7.88 -33.72,15.02 -51.52,21.28 -17.16,6.06 -35.25,11.43 -54.16,16.02 -18.94,4.61 -38.24,8.39 -57.72,11.28 -18.99,2.81 -38.74,4.98 -59.12,6.39 -20.53,1.45 -41.21,2.19 -61.87,2.19 -41.64,0 -81.85,-2.81 -120.48,-8.42 -18.95,-2.73 -37.96,-6.4 -56.88,-10.93 -9.82,-2.34 -19.33,-4.86 -28.55,-7.53l-0.35 1 -25.55 -8.79c-17.59,-6.06 -34.94,-13.18 -51.89,-21.3 -16.82,-8.05 -32.71,-16.87 -47.55,-26.37 -14.72,-9.41 -28.58,-19.66 -41.53,-30.63 -5.75,-4.89 -11.31,-9.9 -16.66,-15.04l-5.08 4.43c-6.07,5.21 -12.64,10.52 -19.6,15.83 -6.55,4.99 -13.36,9.81 -20.39,14.41 -6.26,4.09 -13.96,8.78 -23.08,14.02 -8.11,4.68 -16.08,9.05 -23.83,13.02 -8.54,4.38 -16.22,8.09 -22.91,11.05l-1.92 0.85c-6.78,2.91 -13.93,5.8 -21.34,8.51 -6.47,2.38 -14.75,5.19 -24.72,8.37 -8.81,2.82 -17.75,5.47 -26.77,7.94 -9.64,2.64 -18.49,4.92 -26.43,6.75 -9.89,2.33 -19.88,4.38 -29.94,6.17 -9.48,1.65 -20.5,3.35 -33.05,5.01 -10.55,1.4 -21.62,2.67 -33.16,3.74 -11.63,1.13 -22.87,1.99 -33.57,2.59 -10.19,0.56 -21.5,0.98 -33.79,1.19 -11.6,0.21 -23.65,0.21 -36,0 -12.11,-0.18 -23.75,-0.6 -34.83,-1.19l-8.18 -0.47 -0.06 0.82 -27.35 -2.39c-11.71,-1.03 -24.53,-2.67 -38.41,-4.88 -13.19,-2.13 -26.67,-4.74 -40.34,-7.83 -13.53,-3.05 -26.6,-6.44 -39.1,-10.1 -13.09,-3.84 -25.66,-7.97 -37.58,-12.36 -12.24,-4.5 -24.85,-9.73 -37.78,-15.66 -12.23,-5.58 -24.66,-11.89 -37.28,-18.88 -12.49,-6.92 -24.29,-14.1 -35.31,-21.41 -7.64,-5.08 -15.08,-10.32 -22.26,-15.7l-3.15 4.13c-7.44,9.64 -15.57,18.96 -24.29,27.84 -14.11,14.39 -29.15,27.09 -45.02,38.03 -16.05,11.03 -32.88,20.29 -50.44,27.63l-7.84 2.97c-16.68,6.41 -33.89,11.28 -51.54,14.51 -18.01,3.29 -36.15,4.96 -54.32,4.96 -19.89,0 -39.41,-1.89 -58.44,-5.62 -19.01,-3.73 -37.44,-9.35 -55.25,-16.82l-8.33 -3.82c-16.16,-7.46 -31.55,-16.36 -46.02,-26.66 -11.47,-8.13 -22.46,-17.19 -32.94,-27.13l-14.34 8.42c-15.92,9.07 -32.2,17.16 -48.71,24.26 -16.37,7.03 -33.76,13.43 -52.07,19.1 -16.92,5.25 -34.69,9.86 -53.23,13.78 -18.09,3.81 -37.38,7.07 -57.77,9.71 -18.09,2.34 -35.86,4.38 -53.16,6.05 -18.02,1.79 -35.02,3.2 -50.91,4.2 -17.74,1.12 -35.97,2 -54.52,2.61 -19.65,0.65 -36.86,0.98 -51.57,0.98 -15.94,0 -33.4,-0.37 -52.33,-1.07 -18.22,-0.69 -35.31,-1.66 -51.12,-2.88 -17.3,-1.32 -33.93,-2.99 -49.71,-4.91 -15.98,-1.96 -31.45,-4.26 -46.36,-6.88 -34.09,-5.96 -63.91,-13.14 -89.37,-21.46 -26.4,-8.61 -48.38,-18.66 -65.85,-30.01 -9.11,-5.92 -17.29,-12.76 -24.44,-20.26l-2.36 -2.56c-10.64,6.22 -21.95,12.2 -33.9,17.92 -16.51,7.88 -33.72,15.02 -51.52,21.28 -17.16,6.06 -35.25,11.43 -54.16,16.02 -18.94,4.61 -38.23,8.39 -57.72,11.28 -18.99,2.81 -38.73,4.98 -59.12,6.39 -20.53,1.45 -41.21,2.19 -61.87,2.19 -41.64,0 -81.85,-2.81 -120.47,-8.42 -18.96,-2.73 -37.97,-6.4 -56.89,-10.93 -9.82,-2.34 -19.33,-4.86 -28.55,-7.53l-0.35 1 -25.55 -8.79c-17.59,-6.06 -34.94,-13.18 -51.89,-21.3 -16.72,-8.01 -32.51,-16.76 -47.28,-26.19 -6.47,7.57 -13.94,14.51 -22.43,20.82 -16.51,12.27 -36.69,22.04 -60.42,29.21l-12.74 3.1c-8.51,2.07 -18.22,4 -28.98,5.72 -10.55,1.7 -22.07,3.18 -34.46,4.4l-5.99 0.53c-13.05,1.2 -26.01,2.12 -38.82,2.71 -12.61,0.58 -25.92,0.93 -39.85,1 -15.44,0.06 -30.13,-0.15 -43.93,-0.63 -15.16,-0.53 -28.74,-1.3 -40.59,-2.26 -15.7,-1.29 -30.16,-2.94 -43.27,-4.9 -13.48,-2.01 -25.7,-4.42 -36.59,-7.14 -8.23,-2.05 -16.12,-4.49 -23.56,-7.22l-9.6 -3.83c-6.54,2.7 -13.15,5.09 -19.72,7.12 -8.41,2.6 -16.74,4.74 -24.82,6.36l-19.28 3.34 -21.56 2.86 -19.63 1.95 -22.6 1.46c-12.53,0.67 -26.08,1.17 -40.61,1.41 -13.8,0.23 -27.99,0.21 -42.4,-0.05l-23.7 -0.61 -18.15 -0.91 -19.28 -1.88 -20.47 -2.94c-7.16,-1.11 -13.85,-2.4 -20.03,-3.78l-8.74 -2.12 -10.3 3.34c-7.73,2.38 -15.42,4.6 -22.76,6.46l-22.3 5.24 -23.83 4.59c-19.24,3.46 -38.23,6.03 -56.87,7.62 -19.34,1.68 -38.99,2.54 -58.86,2.54 -68.25,0 -130.34,-11.44 -186.05,-34.29 -19.81,-8.11 -38.64,-17.69 -56.41,-28.64 -8.66,-5.34 -17.01,-10.96 -25.06,-16.87 -2.51,3.18 -5.05,6.06 -7.63,8.64 -6.35,6.35 -13.56,12.16 -21.43,17.35 -7.88,5.18 -16.04,9.45 -24.3,12.74 -10.79,4.68 -22.44,8.71 -34.87,11.99 -12.76,3.37 -26.62,6.15 -41.5,8.27 -12.93,1.82 -27.62,3.38 -44.02,4.58 -15.25,1.16 -33.38,2.09 -54.35,2.76 -20.08,0.66 -38.57,0.82 -55.34,0.5 -17.13,-0.35 -32.36,-1.2 -45.53,-2.55 -16.36,-1.67 -31.64,-4.36 -45.66,-8 -10.12,-2.62 -19.54,-5.71 -28.23,-9.22l-6.81 2.57 -19.9 6.78c-17.23,5.62 -35.32,10 -54.1,13.14 -18.42,3.08 -37.78,4.96 -57.94,5.62l-6.9 0.02c-35.58,0.11 -69.25,-2.3 -100.9,-7.23 -32.12,-5.02 -62.08,-12.58 -89.78,-22.69 -29.78,-10.83 -57.06,-24.4 -81.8,-40.61 -16.39,-10.75 -31.81,-22.78 -46.22,-36.1l-4.71 4.76c-8.87,8.75 -18.31,16.99 -28.24,24.58 -12.07,9.23 -24.87,17.68 -38.25,25.25 -13.37,7.57 -27.41,14.31 -42.08,20.19 -14.25,5.71 -28.76,10.56 -43.36,14.5 -14.81,3.98 -29.93,7.18 -45.26,9.47 -12.46,1.88 -26.25,3.41 -41.27,4.58 -13.88,1.05 -29.75,1.83 -47.65,2.27 -15.64,0.38 -31.9,0.43 -48.61,0.16 -17.34,-0.31 -34.45,-0.95 -51.27,-1.87l-0.85 -0.03c-54.59,-3.39 -103.41,-12.46 -146.35,-27.18 -44.04,-15.12 -82.13,-36.13 -114.08,-62.96 -4.73,-3.97 -9.43,-8.16 -14.06,-12.53 -5.24,4.72 -10.67,9.3 -16.34,13.72 -13.48,10.55 -28.19,20.34 -44.03,29.29 -15.96,9.02 -32.23,17.11 -48.75,24.21 -16.37,7.03 -33.75,13.43 -52.06,19.1 -16.92,5.25 -34.69,9.86 -53.23,13.78 -18.09,3.81 -37.38,7.07 -57.77,9.71 -18.09,2.34 -35.86,4.38 -53.16,6.05 -18.03,1.79 -35.02,3.2 -50.91,4.2 -17.74,1.12 -35.97,2 -54.53,2.61 -19.65,0.65 -36.85,0.98 -51.57,0.98 -15.93,0 -33.4,-0.37 -52.32,-1.07 -18.22,-0.69 -35.31,-1.66 -51.12,-2.88 -17.3,-1.32 -33.93,-2.99 -49.71,-4.91 -15.98,-1.96 -31.45,-4.26 -46.36,-6.88 -34.09,-5.96 -63.91,-13.14 -89.38,-21.46 -24.53,-8 -45.25,-17.24 -62.09,-27.64 -8.53,4.05 -17.43,7.99 -26.67,11.76 -14.63,5.95 -29.22,11.2 -43.85,15.75 -16.92,5.25 -34.69,9.86 -53.23,13.78 -18.09,3.81 -37.38,7.07 -57.77,9.71 -18.09,2.34 -35.86,4.38 -53.16,6.05 -18.03,1.79 -35.02,3.2 -50.91,4.2 -17.74,1.12 -35.97,2 -54.53,2.61 -19.65,0.65 -36.85,0.98 -51.57,0.98 -15.93,0 -33.4,-0.37 -52.32,-1.07 -18.22,-0.69 -35.31,-1.66 -51.12,-2.88 -17.31,-1.32 -33.93,-2.99 -49.71,-4.91 -15.98,-1.96 -31.46,-4.26 -46.36,-6.88 -34.09,-5.96 -63.91,-13.14 -89.38,-21.46 -26.39,-8.61 -48.37,-18.66 -65.85,-30.01 -10.17,-6.61 -19.28,-14.46 -27.12,-23.22l-7.13 -8.66 -7.45 4.97c-12.04,7.93 -24.66,15.44 -37.76,22.47 -13.12,7.07 -26.25,13.43 -39.23,19.01 -12.69,5.46 -26.17,10.49 -40.24,15.02 -13.34,4.29 -27.27,8.08 -41.66,11.28 -15.13,3.35 -29.58,5.88 -43.25,7.48 -14.41,1.69 -28.24,2.54 -41.4,2.54l-18.43 -0.48 -22.47 -1.32 10.46 193.46c1.33,26.73 -5.13,52.04 -17.4,73.71 -12.52,22.11 -31.23,40.48 -53.87,52.68 -11.97,6.81 -25.85,12.58 -41.48,17.32 -14.67,4.53 -31.15,8.04 -49.4,10.57 -13.98,1.91 -29.9,3.47 -47.78,4.66 -16.87,1.12 -36.84,1.97 -59.76,2.49 -22.62,0.53 -42.88,0.66 -60.65,0.38 -19,-0.3 -34.62,-1.01 -46.73,-2.07 -21.74,-1.91 -41.66,-5.48 -59.61,-10.65 -18.68,-5.38 -34.81,-12.47 -48.27,-21.14 -20.12,-12.92 -35.75,-30.4 -46.33,-50.22 -10.4,-19.49 -15.91,-41.28 -16.05,-63.24 -3.28,-16.93 -6,-36.5 -8.15,-58.57 -2.17,-22.33 -3.69,-47.03 -4.56,-74 -1.35,-42.56 -2.33,-95.78 -2.89,-159.54 -0.57,-63.13 -0.74,-136.53 -0.52,-220.1l0.26 -52.95 -27.46 -0.31c4.81,49.15 10.19,97.25 13,146.44 0.51,11.05 0.77,19.05 0.77,24.13 0,19.9 -2.38,38.22 -7.03,54.86 -4.92,17.43 -12.33,32.79 -22.13,45.98 -6.94,9.37 -14.95,17.66 -23.68,24.71 -8.93,7.2 -18.68,13.19 -28.88,17.85 -12.15,5.99 -25.68,10.92 -40.47,14.76 -14.67,3.81 -30.75,6.59 -48.18,8.26 -15.38,1.48 -33.88,2.64 -55.38,3.44 -20.87,0.75 -45.24,1.24 -72.98,1.35 -79.21,0.34 -142.12,-7.52 -188.6,-23.55 -51.74,-17.87 -84.56,-46.1 -98.36,-84.62 -3.67,-10.14 -6.03,-20.42 -7.17,-30.7 -1.17,-10.6 -1.09,-21.06 0.11,-31.2l3.91 -63.6c-24.18,21.99 -56.31,35.39 -91.51,35.39l-5.19 0 0 79.78c0,37.54 -15.23,71.55 -39.86,96.18 -24.63,24.63 -58.65,39.86 -96.18,39.86l-298.34 0c-37.54,0 -71.55,-15.23 -96.18,-39.86 -24.63,-24.63 -39.86,-58.64 -39.86,-96.18l0 -79.78 -372.18 0 0 79.78c0,37.54 -15.23,71.55 -39.86,96.18 -24.63,24.63 -58.66,39.86 -96.19,39.86zm-879.14 -54.43l879.14 0c22.54,0 42.98,-9.14 57.73,-23.89 14.74,-14.75 23.89,-35.16 23.89,-57.72l0 -134.21 481.04 0 0 134.21c0,22.56 9.14,42.97 23.89,57.72 14.75,14.75 35.17,23.89 57.72,23.89l298.34 0c22.54,0 42.97,-9.14 57.72,-23.89 14.75,-14.75 23.89,-35.16 23.89,-57.72l0 -134.21 59.62 0c22.54,0 42.97,-9.14 57.72,-23.89 14.75,-14.75 23.89,-35.17 23.89,-57.72l0 -60.91 72.26 -4.03 -2.68 62.58c-1.14,25.99 -2.51,52.85 -4.03,80.44l-5.54 92.55c-0.76,6.28 -0.82,12.64 -0.15,18.87 0.68,6.09 2.12,12.31 4.31,18.48 7.95,22.19 29.62,39.39 64.88,51.57 40.63,14.02 97.59,20.88 170.73,20.56 26.44,-0.09 50.27,-0.58 71.28,-1.35 20.58,-0.75 38.03,-1.84 52.2,-3.21 14.46,-1.38 27.73,-3.66 39.7,-6.76 11.5,-2.94 21.73,-6.69 30.68,-11.17l0.85 -0.43c6.11,-2.78 11.96,-6.4 17.31,-10.72 5.27,-4.27 10.04,-9.2 14.21,-14.84 5.87,-7.91 10.38,-17.34 13.42,-28.21 3.23,-11.65 4.88,-25.08 4.88,-40.31 0,-6.48 -0.17,-13.77 -0.54,-21.59l-1.93 -32.71 -16.71 -171.18c25.08,0.29 50.59,1.25 75.62,0.42 5.67,-0.4 10.97,-1.13 15.78,-2.11 4.83,-0.99 9.43,-2.31 13.7,-3.9l36.76 -13.72 -0.61 127.59c-0.21,83.32 -0.04,156.54 0.51,219.57 0.55,62.57 1.53,115.36 2.89,158.26 0.82,25.88 2.28,49.45 4.34,70.59 1.98,20.37 4.66,38.96 7.95,55.59l0.44 5.62c-0.24,13.98 3.07,27.89 9.64,40.19 6.28,11.78 15.68,22.22 27.85,30.05 9.32,6 20.63,10.95 33.82,14.74 13.88,4 30.4,6.86 49.42,8.53 12.69,1.11 27.04,1.82 42.88,2.08 16.91,0.25 36.46,0.13 58.52,-0.39 20.5,-0.46 39.67,-1.32 57.45,-2.49 17.05,-1.14 31.72,-2.55 43.93,-4.22 14.97,-2.08 28.69,-5.03 41.11,-8.78 11.47,-3.35 21.73,-7.63 30.68,-12.67l0.53 -0.21c13.69,-7.29 25.05,-18.46 32.68,-31.94 7.32,-12.93 11.18,-28.13 10.39,-44.15l-14.01 -259.11 33.05 5.17 17.05 2.3 14.5 1.44 17.76 1.09 16.3 0.26c11.6,0 23.38,-0.71 35.23,-2.09 12.57,-1.46 25.18,-3.64 37.72,-6.42 12.26,-2.73 24.55,-6.09 36.78,-10.03 11.63,-3.74 23.44,-8.19 35.36,-13.32 12.18,-5.23 23.87,-10.87 34.99,-16.85 11.16,-5.99 22.44,-12.74 33.74,-20.11l14.47 -9.83 14.3 -10.58 26.57 -20.46 17.3 36.16c3.23,6.39 7.3,12.39 12.05,17.7 4.6,5.13 10.06,9.82 16.29,13.87 13.37,8.69 31.11,16.66 53.1,23.84 22.86,7.47 50.2,14.01 81.92,19.57 13.91,2.44 28.48,4.61 43.6,6.46 15.34,1.88 31.12,3.47 47.17,4.69 17.17,1.33 33.51,2.29 49,2.87 14.95,0.57 31.77,0.85 50.39,0.85 18.11,0 34.75,-0.25 49.87,-0.75 16.21,-0.53 33.85,-1.41 52.82,-2.62 16.57,-1.04 32.97,-2.38 49.02,-3.95 16.85,-1.64 34.07,-3.62 51.65,-5.88 18.31,-2.36 36.19,-5.42 53.53,-9.06 16.96,-3.58 33.11,-7.78 48.34,-12.5 13.73,-4.26 26.83,-8.95 39.18,-14.01 12.13,-5.01 24.49,-10.75 36.98,-17.24l15.7 -8.16c6.75,5.43 13.3,10.96 20.4,15.89 13.37,8.69 31.11,16.66 53.1,23.84 22.86,7.47 50.2,14.01 81.92,19.57 13.91,2.44 28.48,4.61 43.6,6.46 15.34,1.88 31.12,3.47 47.17,4.69 17.17,1.33 33.51,2.29 49,2.87 14.95,0.57 31.77,0.85 50.39,0.85 18.11,0 34.75,-0.25 49.87,-0.75 16.21,-0.53 33.85,-1.41 52.82,-2.62 16.57,-1.04 32.97,-2.38 49.02,-3.95 16.85,-1.64 34.07,-3.62 51.65,-5.88 18.31,-2.36 36.19,-5.42 53.53,-9.06 16.96,-3.58 33.11,-7.78 48.34,-12.5 15.63,-4.85 31.17,-10.6 46.54,-17.21 15.26,-6.57 29.75,-13.72 43.41,-21.44 13.72,-7.76 26.25,-16.05 37.45,-24.83 11.21,-8.77 21.25,-18.04 30.01,-27.74l20.34 -22.51 20.05 22.72c4.11,4.66 8.62,9.4 13.52,14.15 4.52,4.39 9.45,8.84 14.72,13.26 26.91,22.57 59.2,40.34 96.74,53.19 38.71,13.22 82.81,21.38 132.34,24.42l0.75 0.03c17.33,0.98 33.61,1.61 48.69,1.86 15.88,0.26 31.41,0.21 46.5,-0.16 15.12,-0.35 30.1,-1.15 44.69,-2.26 13.58,-1.06 26.09,-2.46 37.45,-4.16 13.49,-2.03 26.62,-4.79 39.28,-8.2 12.9,-3.47 25.35,-7.61 37.22,-12.37 12.37,-4.96 24.21,-10.65 35.46,-17.01 11.21,-6.35 21.98,-13.43 32.11,-21.21 8.25,-6.29 15.94,-12.99 23.03,-20 7.29,-7.2 13.97,-14.73 20.11,-22.6l19.68 -25.27 21.67 23.68c16.81,18.34 35.97,34.57 57.37,48.61 21.47,14.06 45.02,25.8 70.56,35.09 24.68,8.99 51.25,15.73 79.56,20.14 28.83,4.5 59.74,6.69 92.61,6.59l5.19 -0.02c17.35,-0.57 34.3,-2.23 50.72,-4.98 16,-2.66 31.46,-6.42 46.24,-11.21l18.18 -6.17 15.39 -6.01 11.44 -4.85 10.99 5.38c8.87,4.33 18.67,7.91 29.32,10.66 11.28,2.92 23.84,5.12 37.59,6.52 12.12,1.23 25.84,2.02 41.07,2.33 15.63,0.3 33.19,0.14 52.58,-0.5 18.18,-0.6 35.55,-1.53 52,-2.75 15.55,-1.14 29.03,-2.57 40.42,-4.16 12.95,-1.86 24.76,-4.21 35.33,-7 10.57,-2.78 19.83,-5.96 27.67,-9.43l0.85 -0.44c5.2,-2.07 10.17,-4.64 14.71,-7.63 4.21,-2.76 8.49,-6.3 12.73,-10.54 2.7,-2.7 5.11,-5.64 7.16,-8.77 2.35,-3.57 4.71,-7.95 7.05,-13.12l15.2 -33.5 27.52 24.26c13.51,11.9 27.76,22.47 42.69,31.68 15.18,9.36 31.39,17.59 48.56,24.63 48.78,20 103.98,30.01 165.43,30.01 18.47,0 36.56,-0.77 54.17,-2.3 18.41,-1.56 35.73,-3.84 51.99,-6.76l21.93 -4.39 20.37 -4.72 20.23 -5.71c5.65,-1.73 10.78,-3.51 15.31,-5.28l17.96 -0.64c4.56,1.43 9.11,2.66 13.49,3.64 5.21,1.14 10.75,2.2 16.65,3.14l18.42 2.52 16.85 1.65 16.25 0.92 22.5 0.61c13.89,0.24 27.51,0.26 40.73,0.05 12.43,-0.2 25.32,-0.69 38.46,-1.42l21.13 -1.44 17.93 -1.74 19.66 -2.66 16.71 -2.88c7.11,-1.43 13.64,-3.09 19.52,-4.9 6.2,-1.91 12.08,-4.08 17.54,-6.41l18.88 -8.82 11.69 5.96c4.94,2.51 10.22,4.79 15.75,6.81 5.76,2.07 11.81,3.94 18.12,5.53 9.14,2.28 19.6,4.34 31.29,6.07 11.96,1.78 25.21,3.31 39.64,4.48 13.12,1.08 25.85,1.85 38.06,2.27 13.65,0.46 27.69,0.67 41.99,0.62 12.34,-0.04 24.95,-0.4 37.74,-0.99 12.66,-0.58 24.77,-1.43 36.27,-2.49l5.58 -0.52c11.29,-1.12 21.75,-2.47 31.25,-4 9.03,-1.43 17.52,-3.16 25.3,-5.07l9.2 -2.24c17.97,-5.44 32.6,-12.37 43.83,-20.72 10.3,-7.65 17.99,-16.72 22.99,-27.09l14.35 -29.69 36.16 26.83 10.2 6.83c13.45,8.53 27.35,16.28 41.72,23.15 8.76,4.2 18,8.2 27.67,11.99l18.6 6.41c16.57,5.7 33.02,10.54 49.21,14.41 16.45,3.93 33.82,7.24 52,9.86 35.67,5.17 73.33,7.78 112.83,7.78 20.24,0 39.63,-0.66 58.05,-1.96 18.71,-1.29 37.06,-3.31 55.07,-5.98 18.59,-2.75 36.26,-6.18 52.84,-10.22 16.69,-4.06 33.01,-8.91 48.85,-14.5 16.52,-5.82 31.97,-12.18 46.19,-18.98 13.98,-6.68 27.52,-14.18 40.52,-22.44l32.72 -21.46 14.38 24.87c3.13,5.43 6.96,10.55 11.36,15.18 4.29,4.51 9.2,8.61 14.67,12.16 13.36,8.69 31.1,16.66 53.09,23.84 22.86,7.47 50.21,14.01 81.92,19.57 13.91,2.44 28.48,4.61 43.6,6.46 15.34,1.88 31.12,3.47 47.17,4.69 17.17,1.33 33.51,2.29 49,2.87 14.96,0.57 31.78,0.85 50.4,0.85 18.1,0 34.74,-0.25 49.86,-0.75 16.21,-0.53 33.85,-1.41 52.83,-2.62 16.56,-1.04 32.96,-2.38 49.01,-3.95 16.85,-1.64 34.08,-3.62 51.65,-5.88 18.32,-2.36 36.2,-5.42 53.53,-9.06 16.97,-3.58 33.11,-7.78 48.34,-12.5 15.63,-4.85 31.17,-10.6 46.54,-17.21 15.27,-6.57 29.76,-13.72 43.41,-21.44 4.02,-2.21 9.08,-5.31 14.91,-9 4.68,-2.86 9.33,-6.04 13.95,-9.35l19.24 -13.82 23.49 24.84c10.7,10.84 22.02,20.55 33.91,28.98 11.84,8.42 24.28,15.62 37.21,21.55l7.13 3.24c14.22,5.91 28.99,10.39 44.22,13.38 15.34,3.01 31.37,4.53 48.03,4.53 15.63,0 30.51,-1.3 44.55,-3.87 14.38,-2.62 28.39,-6.6 41.96,-11.85l6.36 -2.45c14.21,-5.94 27.72,-13.35 40.46,-22.1 12.96,-8.93 25.38,-19.46 37.14,-31.44 7.25,-7.39 13.96,-15.07 20.05,-22.96 5.99,-7.76 11.58,-15.95 16.66,-24.53l16.31 -27.52 36.93 30.89c9.09,7.18 18.59,14.09 28.42,20.61 10.38,6.9 20.98,13.37 31.68,19.3 10.68,5.91 21.91,11.58 33.56,16.95 10.7,4.96 22.03,9.62 33.85,13.96 11.38,4.18 22.8,7.95 34.17,11.29 11.86,3.49 23.78,6.59 35.7,9.27 12.64,2.85 25,5.27 36.97,7.18l16.05 2.28 18.57 1.66c10.41,0.91 21.67,1.72 33.62,2.34 11.6,0.62 22.64,1.03 32.9,1.19 11.78,0.2 23.27,0.2 34.34,0 10.2,-0.16 20.82,-0.57 31.63,-1.19 11.08,-0.61 21.61,-1.41 31.45,-2.34 10.16,-0.93 20.6,-2.15 31.27,-3.57 9.64,-1.28 19.85,-2.87 30.47,-4.77 10.06,-1.8 19.17,-3.65 27.19,-5.51 9.01,-2.06 17.17,-4.13 24.53,-6.14 8.02,-2.2 16.24,-4.66 24.64,-7.32 7.04,-2.24 14.53,-4.84 22.38,-7.73 7.2,-2.63 13.38,-5.11 18.46,-7.34l1.83 -0.85c7.18,-3.17 13.88,-6.36 19.94,-9.47 7,-3.59 14.2,-7.53 21.48,-11.72 6.33,-3.63 13.16,-7.86 20.32,-12.55 6.52,-4.27 12.29,-8.32 17.21,-12.07 6.38,-4.86 12.14,-9.52 17.25,-13.89 4.63,-3.97 9.21,-8.23 13.64,-12.66l27.96 -29.22 19.56 22.01c9.66,10.84 19.99,20.94 30.94,30.25 11.17,9.46 23.12,18.29 35.78,26.39 13.34,8.53 27.23,16.28 41.61,23.15 8.76,4.2 17.99,8.2 27.67,11.99l18.6 6.41c16.56,5.7 33.01,10.54 49.21,14.41 16.45,3.93 33.82,7.24 52,9.86 35.67,5.17 73.32,7.78 112.83,7.78 20.24,0 39.63,-0.66 58.04,-1.96 18.72,-1.29 37.07,-3.31 55.08,-5.98 18.58,-2.75 36.26,-6.18 52.83,-10.22 16.7,-4.06 33.02,-8.91 48.86,-14.5 16.51,-5.82 31.97,-12.18 46.19,-18.98 14.01,-6.7 27.58,-14.21 40.61,-22.5 7.89,-5.02 15.02,-9.92 21.35,-14.66 6.32,-4.72 12.95,-10.17 19.81,-16.19l28.95 -25.45 15.84 39.99c5.8,13.78 14.49,25.37 25.95,34.65 12.03,9.74 27.37,17.24 45.99,22.45l5.62 1.55c8.65,2.11 18.72,4 30.09,5.63 11.38,1.6 24.33,2.99 38.72,4.08 12.29,0.91 24.39,1.64 36.13,2.12 13.29,0.53 27.01,0.93 40.91,1.11 13.38,0.17 26.55,0.16 39.37,-0.02 12.03,-0.18 24.44,-0.59 37,-1.17 14.84,-0.71 27.54,-1.54 37.93,-2.51 9.8,-0.88 18.54,-2.02 26.16,-3.37 9.96,-1.77 19.03,-4.11 27.15,-6.97 8.04,-2.91 15.13,-6.22 21.09,-9.9l11.89 -7.34 20.87 8.56 8.77 2.89c9.85,3.07 21.65,5.82 35.31,8.2 14.51,2.53 30.19,4.56 46.86,6.05 14.4,1.29 29.4,2.32 44.91,3.04 15.21,0.72 29.94,1.14 44.05,1.17 15.93,0.05 31.47,-0.19 46.43,-0.71 13.54,-0.48 27.42,-1.33 41.54,-2.52 15.7,-1.32 29.29,-2.78 40.68,-4.3 11.68,-1.58 22.3,-3.43 31.74,-5.45 8.23,-1.75 15.78,-3.86 22.56,-6.22 6.72,-2.34 13.06,-5.07 18.92,-8.16l11.56 -6.07 11.93 5.22c17.66,7.7 39.19,13.93 64.41,18.62 26.1,4.87 56.24,8.15 90.3,9.77 23.02,1.09 43.09,1.78 60.1,2.02 17.16,0.24 32.18,0.08 45.02,-0.5 24.5,-1.09 45.3,-5.1 62.3,-12.01l0.95 -0.32c6.18,-2.24 12.11,-5.23 17.56,-8.87 5.23,-3.49 10.26,-7.83 14.87,-12.9 7.3,-8.02 13.56,-18.56 18.78,-31.57 5.72,-14.28 10.16,-31.25 13.21,-50.78 1.96,-12.47 3.74,-26.88 5.32,-43.09 1.56,-16.03 2.95,-34.17 4.13,-54.41 1.14,-19.49 2.05,-38.29 2.69,-56.39 0.68,-19.17 1.16,-38.14 1.39,-56.8 0.22,-17.7 0.24,-34.83 0.06,-51.21 -0.18,-15.67 -0.59,-31.25 -1.2,-46.64l-0.18 -6.04c-2.22,-28.66 -4.8,-56.44 -8.16,-85l-3.46 -24.07 -3.13 -18.34c-0.96,-5.16 -2.38,-11.35 -4.08,-18.37l-5.83 -22.1 -5.99 -19.86c-1.72,-5.72 -3.89,-12 -6.3,-18.65l-7.25 -18.77c-2.17,-5.43 -4.64,-11.11 -7.39,-17.06l-8.25 -16.95 -9.19 -16.61 -9.59 -15.66 -10.54 -15.54 -8.87 -11.81 -16.31 -19.07c-4.85,-5.17 -9.69,-10.07 -14.47,-14.57 -4.44,-4.19 -9.29,-8.43 -14.46,-12.66 -4.97,-4.19 -10.3,-8.25 -15.87,-12.22l-4.82 -3.38 -12.02 -7.39c-6.2,-3.82 -12.21,-7.31 -17.93,-10.36 -5.74,-3.02 -11.49,-5.85 -17.17,-8.42 -11.65,-5.23 -24.21,-9.89 -37.56,-13.89 -13.92,-4.18 -28.22,-7.6 -42.77,-10.2 -6.76,-1.21 -14.4,-2.38 -22.86,-3.43 -6.85,-0.94 -13.85,-1.62 -21,-2.07l-0.64 -0.03c-7.36,-0.48 -14.46,-0.77 -21.19,-0.84 -7.26,-0.04 -15.18,0.08 -23.62,0.39l-0.54 0c-20.83,0.37 -41.69,2.3 -62.45,5.7 -20.37,3.33 -40.89,8.28 -61.39,14.75 -10.6,3.34 -20.59,6.84 -29.88,10.46 -9.49,3.69 -19.52,7.98 -30.01,12.84l-12.43 5.75 -12.12 -6.72c-8.38,-4.66 -17.22,-9.01 -26.41,-13.01 -8.71,-3.79 -17.97,-7.31 -27.69,-10.48l-0.9 -0.35c-18.83,-6.25 -39.03,-11.04 -60.46,-14.25 -21.81,-3.29 -44.26,-4.9 -67.22,-4.87l-8.25 -0.27c-8.2,0.08 -16.28,0.43 -24.2,1.12 -8.06,0.68 -16.01,1.74 -23.84,3.12 -6.26,1.11 -12.88,2.62 -19.69,4.47 -6.45,1.64 -13.45,3.92 -20.92,6.62l-6.81 2.36c-5.21,1.97 -11.15,4.54 -17.63,7.48 -5.99,2.67 -11.66,5.5 -16.95,8.31l-15.64 8.58 -11.81 -4.77c-6.78,-2.73 -14.16,-5.13 -22.04,-7.09 -8.52,-2.1 -17.13,-3.72 -25.87,-4.85 -11.44,-1.45 -24.35,-2.41 -38.7,-2.83 -14.62,-0.41 -30.83,-0.3 -48.49,0.32 -16.19,0.6 -31.97,1.56 -47.34,2.88 -14.7,1.24 -27.28,2.73 -37.69,4.37 -14.8,2.31 -28.26,5.49 -40.39,9.48 -11.29,3.69 -21.01,8.05 -29.09,12.96l-0.21 0.12c-3.65,2.18 -7.3,4.82 -10.83,7.82 -3.26,2.76 -6.43,5.93 -9.38,9.43 -1.87,2.2 -3.58,4.63 -5.08,7.18 -1.54,2.62 -3.24,6.12 -5.04,10.43l-14.35 34.22 -28.27 -24.02c-5.8,-4.93 -11.57,-9.53 -17.27,-13.77 -5.92,-4.37 -12.12,-8.67 -18.53,-12.82 -12.53,-8.16 -26.44,-15.94 -41.58,-23.31 -14.57,-7.13 -29.88,-13.53 -45.85,-19.17 -15.5,-5.46 -31.84,-10.2 -48.87,-14.1 -17.44,-4.02 -35.5,-7.23 -54.06,-9.59 -17.7,-2.25 -36.06,-3.78 -55.02,-4.53 -18.94,-0.76 -38.4,-0.76 -58.35,0.01l-0.32 0c-41.03,1.05 -79.51,4.57 -115.32,10.46 -35.2,5.8 -67.78,14.01 -97.68,24.57 -16.51,5.81 -31.97,12.17 -46.18,18.97 -14.01,6.7 -27.57,14.22 -40.62,22.51 -10.87,6.89 -20.75,13.91 -29.56,20.96 -9.04,7.25 -17.93,15.2 -26.55,23.84l-19.91 19.94 -19.2 -20.58c-5.33,-5.72 -10.71,-11.1 -16.08,-16 -5.77,-5.27 -11.92,-10.51 -18.38,-15.6 -7.6,-5.99 -16.01,-12.05 -25.22,-18.09 -8.27,-5.54 -17.13,-10.83 -26.52,-15.89 -9.58,-5.14 -19.78,-9.99 -30.58,-14.47 -10.74,-4.47 -22.1,-8.6 -33.96,-12.33 -10.88,-3.4 -22.43,-6.58 -34.57,-9.44 -12.39,-2.93 -25.21,-5.51 -38.33,-7.73 -12.79,-2.17 -25.85,-3.98 -39.06,-5.37 -13.72,-1.44 -27.68,-2.53 -41.9,-3.22 -14.07,-0.7 -28.13,-1.03 -42.01,-1.02 -13.86,0 -28.55,0.42 -43.87,1.18 -35.88,1.8 -69.9,5.7 -101.97,11.66 -31.7,5.9 -61.82,13.94 -90.3,24.08 -29.71,10.57 -57.58,23.47 -83.54,38.59 -26.09,15.3 -50.18,32.69 -72.12,52.17 -22.93,20.33 -43.07,42.84 -60.33,67.39 -17.23,24.5 -31.58,51.02 -42.96,79.49 -7.85,19.63 -14.36,40.36 -19.51,62.09 -5.23,22.01 -8.97,44.49 -11.17,67.32l-3.55 36.63 -33.85 -14.11c-14.38,-5.99 -29.27,-10.52 -44.58,-13.53 -15.22,-2.98 -31.09,-4.49 -47.54,-4.49 -16.67,0 -32.76,1.52 -48.13,4.56 -15.34,3.03 -30.19,7.6 -44.45,13.65 -7.86,3.27 -15.78,7.17 -23.72,11.64 -7.51,4.14 -14.92,8.91 -22.2,14.17l-21.49 15.53 -16.04 -21.27c-5.86,-7.79 -12.48,-15.52 -19.77,-23.09 -4.86,-5.02 -10.06,-10 -15.6,-14.94 -17.16,-13.91 -34.37,-27.47 -51.77,-41.11l20.12 -20.55 7.07 -7.66c5.72,-6.2 10.89,-13.03 15.4,-20.32 4.66,-7.54 8.86,-15.89 12.53,-24.98 2.62,-6.59 5.05,-13.24 7.23,-19.99 2.04,-6.22 4.1,-13.48 6.14,-21.51 1.72,-6.76 3.21,-13.5 4.4,-20 1.32,-7.17 2.56,-14.99 3.65,-23.31l2.28 -21.51 1.41 -20.68c0.31,-7.71 0.44,-14.89 0.39,-21.43 -0.05,-6.09 -0.31,-12.56 -0.72,-19.33 -0.44,-6.65 -1.11,-12.82 -2,-18.39 -0.85,-5.39 -2.05,-10.93 -3.53,-16.47l-1.91 -7.57 -2.2 -6.25c-6.32,-15.9 -14.64,-28.58 -24.87,-37.96 -9.95,-9.11 -22.12,-15.5 -36.41,-19.05l-9.57 -2.2c-16.69,-2.85 -33.11,-5.47 -49.1,-7.75 -16.06,-2.31 -31.95,-4.37 -47.53,-6.15 -14.51,-1.64 -29.63,-3.13 -45.26,-4.4 -16.31,-1.32 -31.81,-2.36 -46.19,-3.05 -52.03,-2.48 -100.13,-1.79 -144.2,2.12 -43.57,3.87 -83.61,10.94 -120.01,21.14 -40.37,11.32 -76.47,26.63 -108.18,45.8 -31.15,18.86 -58.05,41.48 -80.64,67.81l-28.98 34.99 -31.92 -38.76c-9.88,-11.49 -20.68,-22.37 -32.34,-32.49 -11.68,-10.12 -24.37,-19.63 -37.99,-28.43 -12.58,-8.23 -26.53,-16.02 -41.69,-23.41 -14.57,-7.13 -29.89,-13.53 -45.85,-19.17 -15.51,-5.46 -31.85,-10.2 -48.88,-14.1 -17.44,-4.02 -35.5,-7.23 -54.06,-9.59 -17.7,-2.25 -36.06,-3.78 -55.02,-4.53 -18.94,-0.76 -38.4,-0.76 -58.35,0.01l-0.32 0c-41.03,1.05 -79.51,4.57 -115.32,10.46 -35.2,5.8 -67.78,14.01 -97.67,24.57 -16.52,5.81 -31.97,12.17 -46.19,18.97 -14.01,6.7 -27.57,14.22 -40.62,22.51 -8.93,5.67 -17.23,11.45 -24.77,17.27 -7.77,5.99 -15.41,12.46 -22.78,19.31l-32.07 29.78 -12.46 -42.01c-2.4,-8.13 -5.43,-15.57 -9.05,-22.26l-7.58 -14.08 12.29 -19.1c7.94,-12.76 14.49,-25.9 19.55,-39.31 5.11,-13.56 8.87,-27.55 11.15,-41.84 2.23,-13.92 3.04,-28.08 2.41,-42.41 -0.63,-14.44 -2.73,-29.08 -6.25,-43.73 -7.2,-29.9 -19.08,-56.31 -35.62,-79.14 -16.46,-22.76 -37.7,-42.09 -63.6,-57.91 -12.75,-7.79 -25.83,-14.2 -39.13,-19.15 -13.35,-4.97 -27.15,-8.61 -41.36,-10.91 -13.99,-2.23 -28.14,-3.12 -42.36,-2.6 -14.14,0.51 -28.55,2.45 -43.14,5.78 -14.78,3.34 -28.88,8.02 -42.3,13.96 -12.99,5.74 -25.3,12.77 -36.83,21.05 -14.45,10.34 -27.48,22.5 -39.01,36.42l-12.87 15.55 -18.59 -7.89c-7.82,-3.31 -16.85,-6.25 -27,-8.76 -10.8,-2.66 -22.22,-4.78 -34.25,-6.31 -11.68,-1.49 -25.37,-2.73 -40.97,-3.63 -16.08,-0.93 -33.29,-1.56 -51.43,-1.78 -19.66,-0.26 -37.46,-0.1 -53.3,0.46 -14.85,0.55 -28.1,1.51 -39.68,2.91 -14.22,1.7 -27.04,4.23 -38.34,7.5 -11.08,3.23 -21.01,7.23 -29.68,11.94l-0.86 0.42c-2.24,1.12 -4.93,2.7 -8,4.7 -2.79,1.76 -5.3,3.6 -7.51,5.43 -9.74,8.17 -17.55,23.22 -23.44,45.15 -6.88,25.57 -10.64,58.85 -11.33,99.78l-0.84 67.07 -44.37 -10.21 -11.32 -1.92c-8.42,-1.23 -16.84,-2.18 -25.15,-2.79l-25.15 -0.61c-23.25,-0.4 -46.96,1.99 -71.01,7.16 -23.97,5.16 -48.33,13.21 -72.94,24.07 -11.79,5.2 -23.15,10.81 -34.03,16.72 -11.19,6.09 -22.52,12.87 -33.9,20.26 -10.42,6.77 -20.83,14.11 -31.18,21.93 -9.93,7.49 -19.57,15.39 -28.84,23.54l-29.48 25.93c-6.33,-16.79 -12.03,-34.95 -20,-51.01 -7.76,-14.27 -19.36,-26.16 -34.7,-35.57 -16.8,-10.31 -38.25,-17.82 -64.23,-22.44 -13.7,-2.43 -29.65,-4.49 -47.73,-6.09 -20.3,-1.67 -42.44,-3.1 -66.3,-4.05 -23.25,-0.93 -45.01,-1.41 -65.21,-1.41 -18.6,0 -33.91,0.48 -45.87,1.41 -30.36,2.39 -54.52,9.19 -72.42,20.37 -16.22,10.14 -27.61,24.4 -34.06,42.73l-19.58 55.65 -29.51 -51.18c-7.76,-13.48 -19.23,-24.66 -34.33,-33.5 -16.25,-9.51 -36.95,-16.43 -62.05,-20.7 -13.2,-2.25 -28.64,-4.21 -46.22,-5.79 -17.94,-1.64 -39.13,-3.03 -63.46,-4.17 -29.11,-1.37 -55.52,-1.48 -79.15,-0.36 -22.93,1.11 -43.39,3.46 -61.29,7.01l-5 0.43c-10.39,0.08 -20.98,2.27 -30.94,6.43 -9.32,3.9 -18.19,9.78 -25.94,17.54 -4.23,4.22 -7.97,8.8 -11.15,13.62l-22.91 34.78 -22.58 -34.99c-8.37,-12.98 -18.68,-22.65 -30.84,-28.95 -9.78,-5.04 -21.17,-8.14 -34.11,-9.25l-82.12 -1.91c-0.53,-33.5 -1.19,-66.91 -2.12,-100.41l-1.43 -31.87c-0.53,-9.19 -1.14,-16.82 -1.77,-22.8 -0.71,-6.62 -1.75,-13.06 -3.07,-19.26 -1.32,-6.27 -2.84,-11.83 -4.47,-16.55l-0.32 -0.74c-1.23,-3.98 -2.81,-7.9 -4.64,-11.63 -1.8,-3.63 -3.97,-7.28 -6.46,-10.83 -8.63,-12.29 -20.9,-22.06 -36.74,-29.22 -17.4,-7.86 -39.1,-12.74 -65.02,-14.56 -13.2,-0.91 -28.63,-1.44 -46.28,-1.57 -18.62,-0.13 -40.44,0.11 -65.36,0.72 -23.58,0.58 -45.41,1.62 -65.33,3.07 -19.31,1.4 -35.46,3.17 -48.38,5.19 -29.07,4.58 -52.42,12.93 -69.94,24.97 -13.52,9.26 -23.59,20.99 -30.19,35.13l-2.89 8.08c-1.74,4.85 -3.02,9.66 -3.76,14.28 -0.77,4.87 -1.13,9.88 -1.01,14.93l3.45 147.14 -21.54 5.88 -19.23 -1.91c-2.38,-1.19 -5.39,-2.46 -8.92,-3.74 -3.23,-1.18 -6.51,-2.21 -9.69,-2.99l-9.57 -2.2c-16.7,-2.85 -33.11,-5.47 -49.1,-7.75 -16.06,-2.31 -31.95,-4.37 -47.54,-6.15 -14.5,-1.64 -29.62,-3.13 -45.25,-4.4 -16.31,-1.32 -31.81,-2.36 -46.19,-3.05 -52.04,-2.48 -100.14,-1.79 -144.2,2.12 -43.57,3.87 -83.61,10.94 -120.01,21.14 -34.72,9.73 -66.18,22.33 -94.27,37.7 -27.73,15.19 -52.47,33.28 -74.1,54.16l-33.99 32.85 -14.97 -61.16 -2.21 -6.25c-6.31,-15.9 -14.63,-28.58 -24.86,-37.96 -9.95,-9.11 -22.13,-15.5 -36.41,-19.05l-9.57 -2.2c-16.7,-2.85 -33.11,-5.47 -49.1,-7.75 -16.06,-2.31 -31.95,-4.37 -47.54,-6.15 -14.5,-1.64 -29.62,-3.13 -45.25,-4.4 -16.31,-1.32 -31.81,-2.36 -46.19,-3.05 -52.04,-2.48 -100.14,-1.79 -144.2,2.12 -43.57,3.87 -83.61,10.94 -120.01,21.14 -40.33,11.32 -76.39,26.59 -108.07,45.72 -31.28,18.91 -58.29,41.59 -80.91,68.02l-21.53 25.14 -28.45 -36.29c-17.12,-21.08 -36.42,-39.55 -57.75,-55.33 -21.35,-15.79 -44.89,-28.96 -70.5,-39.47 -48.77,-20 -103.97,-30.01 -165.42,-30.01 -18.87,0 -36.92,0.67 -54.06,2.01 -17.76,1.4 -34.61,3.4 -50.47,6.04l-22.05 4.05 -19.92 4.56c-7.14,1.73 -13.82,3.61 -19.99,5.53 -6.28,1.91 -11.74,3.82 -16.42,5.67l-18.28 0.64c-5.78,-1.86 -11.78,-3.44 -17.85,-4.66 -6.96,-1.4 -15.53,-2.68 -25.62,-3.84 -9.9,-1.12 -20.78,-2.04 -32.46,-2.68 -11.24,-0.61 -22.2,-1.01 -32.8,-1.17 -11.23,-0.15 -22.93,-0.1 -34.96,0.14 -10.88,0.23 -22.48,0.72 -34.56,1.43 -12.13,0.72 -23.56,1.61 -34.14,2.6l-23.66 2.38 -5.88 -22.49 -4.92 -16.87 -5.68 -16.48c-4.52,-12.36 -9.59,-24.26 -15.1,-35.6 -5.27,-10.88 -10.9,-20.99 -16.74,-30.25 -6.82,-10.64 -13.9,-20.42 -21.19,-29.21 -7.38,-8.87 -15.52,-17.43 -24.36,-25.58 -7.84,-7.24 -16.02,-14.1 -24.42,-20.51 -8.82,-6.73 -17.59,-12.82 -26.23,-18.24 -9.51,-5.81 -18.83,-11.15 -27.94,-15.79 -10.33,-5.17 -20.2,-9.74 -29.58,-13.56 -19.61,-7.87 -38.89,-14.46 -57.79,-19.55 -18.7,-5.03 -37.23,-8.71 -55.45,-10.94 -7.44,-0.9 -15.46,-1.7 -23.89,-2.3 -9.4,-0.66 -18.64,-1.16 -27.46,-1.41 -9.14,-0.28 -17.91,-0.37 -26.15,-0.26 -7.52,0.1 -15.47,0.43 -23.76,0.98 -8.26,0 -18.53,1.38 -26.93,2.14l-13.54 1.6 -13.26 2c-5.12,0.8 -10.04,1.76 -14.78,2.81l-21.15 5.52 -13.55 4.57 -22.83 8.5c-7.98,3.06 -16.11,6.52 -24.32,10.33 -7.1,3.26 -13.78,6.71 -19.95,10.24 -7.04,4.04 -13.85,8.36 -20.39,12.91 -6.67,4.64 -13.06,9.54 -19.12,14.6 -6.82,5.72 -13.33,11.95 -19.47,18.59 -6.28,6.81 -12.32,14.2 -18.06,22.09 -5.25,7.24 -10.13,14.7 -14.58,22.26 -4.79,8.23 -9.42,16.89 -13.82,26.03 -4.51,9.33 -8.56,19.18 -12.05,29.46 -3.66,10.73 -6.71,21.63 -9.14,32.62 -2.06,9.31 -3.81,19.58 -5.17,30.65 -1.37,11.07 -2.24,21.88 -2.59,32.29 0,8.61 -0.63,17.7 -0.93,26.36l-0.18 16.65 0.84 47.79 -51.93 -1.4 -13.2 -0.08 -11.71 0.24 -20.1 1.19 -9.42 1.22c-10.95,2.22 -16.98,3.75 -27.24,8.55 -6.75,3.37 -12.98,7.66 -18.59,12.69 -5.75,5.18 -10.73,11.02 -14.86,17.48l-50.06 -14.55 0 -464.87c0,-22.56 -9.14,-42.98 -23.89,-57.72 -14.75,-14.75 -35.18,-23.89 -57.72,-23.89l-311.03 0c-13.81,0 -26.75,3.37 -37.98,9.27 -11.8,6.21 -21.94,15.27 -29.44,26.18l-465.23 553.78 -46.76 -25.08c6.05,-20.49 10.67,-41.93 13.73,-64.44 3.04,-22.4 4.6,-46.38 4.6,-72.17l0 -3.16c0,-64.18 -12.69,-123.38 -36.36,-176.11 -24.22,-53.96 -60.13,-101.55 -105.77,-141.01 -43.72,-37.8 -96.17,-67.61 -155.53,-87.86 -58.21,-19.85 -123.24,-30.52 -193.36,-30.52 -61.65,0 -116.45,6.23 -166.12,18.36 -49.29,12.05 -93.92,29.98 -135.54,53.42l-23.84 14.36 -0.15 -0.26c-31.7,20.1 -61.19,43.48 -89.4,70 -35.31,33.19 -68.6,71.28 -101.63,114.03 -13.74,17.79 -18.96,39.49 -16.31,60.17 2.65,20.61 13.21,40.26 30.98,53.98l205.65 171.05c16.88,14.04 37.94,20.05 58.4,18.44 20.53,-1.59 40.35,-10.89 54.78,-27.36 19.25,-22.04 36.56,-40.71 52.31,-55.97 16.61,-16.08 31.95,-28.95 46.47,-38.59 9.95,-6.6 19.67,-11.57 29.45,-14.91 10.43,-3.57 20.69,-5.3 31.14,-5.3 5.67,0 10.68,0.29 14.76,0.75 8.81,1.05 15.81,3.99 20.73,8.45l0.32 0.33c12.32,11.59 12.74,22.47 5.09,34.04 -0.79,3.89 -1.94,7.84 -3.49,11.89 -2.66,7.26 -6.74,14.58 -12.25,22.23l-4.04 5.72c-9.3,11.9 -21.49,24.64 -36.75,38.57 -14.88,13.58 -32.76,28.46 -53.79,44.95l-414.81 316.73c-10.28,7.84 -18.19,17.68 -23.54,28.5 -5.6,11.35 -8.49,23.8 -8.49,36.21l-0.16 231.7c0,22.56 9.14,42.97 23.88,57.72 14.75,14.75 35.17,23.89 57.73,23.89z"/>
    <path class="fil2" d="M1015.14 1359.66l-879.15 0c-60.1,0 -108.83,-48.73 -108.83,-108.83l0 -231.69 0.28 0c0.01,-32.66 14.71,-64.95 42.67,-86.29l414.48 -316.52c41.29,-32.4 69.5,-57.75 85.97,-78.85l3.29 -4.82c8.29,-11.45 11.91,-21.14 11.91,-30.84 0,-2.56 3.66,-0.48 2.25,-1.77 -1.45,-1.32 -7.33,-2.07 -17.21,-2.07 -15.09,0 -29.51,4.95 -45.59,15.63 -26.21,17.41 -56.1,47.09 -93.38,89.77 -38.63,44.07 -105.58,49.6 -150.9,11.91l-204.91 -170.42c-47.41,-36.62 -56.17,-104.78 -19.55,-152.19 67.87,-87.8 136.7,-156.49 222.13,-204.8l0.11 0.19 0.33 -0.19c88,-49.74 188.36,-75.75 315.57,-75.75 148.02,0 275.05,45.9 366.64,125.08 96.03,83 151.6,199.99 151.6,337.63l0 3.17c0,53.26 -6.62,100.73 -19.51,144.25l463.63 -551.75c19.62,-28.53 52.49,-47.26 89.74,-47.26l311.03 0c60.1,0 108.83,48.72 108.83,108.82l0 464.87c11.15,-17.45 26.07,-30.84 44.71,-40.16l4.56 -2.16c6.28,-2.77 12.71,-4.91 19.18,-6.44 6.86,-1.68 14.19,-2.89 21.95,-3.61 6.02,-0.56 13.35,-1.01 21.8,-1.3 7.66,-0.26 16.46,-0.32 26.41,-0.16l23.61 0.64 -0.38 -19.94c0,-9.16 0.38,-23.05 1.11,-41.67l0.11 -2.19c0.8,-23.69 3.62,-46.36 8.4,-67.94 5.43,-24.61 13.18,-47.31 23.2,-68.02 9.54,-19.73 19.84,-37.24 30.86,-52.44 12.69,-17.48 26.74,-32.69 42.09,-45.57 13.5,-11.3 28.01,-21.42 43.44,-30.27 13.31,-7.62 29.34,-15.05 48.1,-22.27 18.24,-7 31.22,-11.66 39.03,-14.02l6.01 -1.62c10.87,-3.06 21.75,-5.5 32.69,-7.25 9.16,-1.54 18.62,-2.81 28.29,-3.81 9.09,-0.95 18.41,-1.72 27.89,-2.25 16.16,-1.07 33.67,-1.3 52.45,-0.72 20.49,0.63 38.46,1.93 53.9,3.82 38.93,4.79 79.01,15.62 120.12,32.39 21.85,8.92 42.42,19.44 61.65,31.46 19.69,12.32 37.96,26.28 54.73,41.75 19.09,17.61 35.78,37.71 50.08,60.25 12.91,20.38 24.4,44.06 34.44,70.91 4.35,11.69 8.15,23.7 11.34,36.02l0.65 -0.07c23.19,-2.23 46.84,-3.63 70.81,-4.16 24.61,-0.53 47.91,-0.17 69.79,1.03 24.8,1.38 45.46,3.74 61.9,7.05 7.31,1.48 14.25,3.28 20.82,5.4 11.02,-4.37 24.29,-8.51 39.81,-12.37 13.25,-3.31 27.97,-6.33 44.1,-9.01 34.01,-5.66 70.37,-8.5 108.99,-8.5 64.85,0 123.48,10.72 175.74,32.15 55.41,22.73 101.79,57.01 138.98,102.77l8.32 10.62c49.21,-57.45 116.68,-98.23 202.26,-122.25 75.69,-21.23 166.67,-29.31 272.81,-24.22 31.83,1.56 62.94,4.09 93.26,7.56 31.66,3.62 64.39,8.34 98.11,14.11 3.92,0.67 7.76,1.54 11.5,2.62 37.6,9.38 64.39,33.83 80.04,73.4 2.19,5.54 3.87,11.15 5.11,16.77l1.99 8.21c46.62,-45.04 106.61,-77.88 179.85,-98.45 75.69,-21.23 166.67,-29.31 272.81,-24.22 31.83,1.56 62.94,4.09 93.26,7.56 31.66,3.62 64.39,8.34 98.11,14.11 3.92,0.67 7.76,1.54 11.5,2.62 8.66,2.15 16.73,5.11 24.23,8.87l1.06 -0.29 -2.96 -125.95c-0.32,-13.69 1.92,-26.83 6.27,-39l-0.32 -0.11c16.61,-46.56 58.25,-75.2 124.81,-85.71 28.28,-4.46 67.36,-7.34 117.21,-8.58 50.11,-1.23 88.17,-0.96 114.08,0.86 58.48,4.11 99.22,22.57 122.18,55.26 6.64,9.43 11.54,19.55 14.81,29.99 4.28,12.39 7.25,26.3 8.92,41.76 1.37,12.9 2.49,31.82 3.31,56.69 0.63,19.68 1.16,40.86 1.53,63.61l0.17 11.16 44.29 1.03 0 -0.31c43.9,0 76.93,17.08 98.95,51.22 4.4,-6.68 9.26,-12.67 14.56,-17.98 20.98,-20.98 48.4,-31.58 75.91,-31.84 37.99,-7.55 86.96,-9.91 146.91,-7.08 48.55,2.28 86.26,5.72 112.98,10.28 56.48,9.64 94.94,32.16 115.3,67.49 17.12,-48.66 60.4,-75.7 129.97,-81.18 25.86,-2.04 64,-2.04 114.25,0 50.99,2.07 90.23,5.58 117.65,10.46 58.75,10.47 98.32,34.81 118.59,72.78l2.78 5.6 0.2 -0.08 4.21 11.17c19.43,-17.11 40.53,-33.08 63.2,-47.81 23.68,-15.38 47.61,-28.42 71.76,-39.11 52.53,-23.19 104.33,-34.36 155.3,-33.46l0 -0.39c17.81,0 35.8,1.35 53.82,4.01 8.21,1.22 16.58,2.82 25.08,4.83l0.42 -33.3c1.48,-86.79 16.15,-141.78 44.55,-165.35 6.51,-5.4 13.48,-9.89 20.72,-13.52 20.86,-11.35 46.82,-18.9 77.81,-22.62 23.73,-2.86 55.92,-4.02 96.49,-3.49 38.46,0.5 70.31,2.39 95.47,5.62 27.01,3.46 49.82,9.13 68.38,16.98 13.09,-15.79 27.79,-29.53 44.1,-41.2 25.97,-18.62 55.66,-31.77 88.92,-39.36 32.34,-7.39 64.32,-8.57 95.81,-3.51 31.92,5.16 62.08,16.39 90.37,33.68 58.13,35.52 95.3,86.88 111.45,153.95 7.9,32.89 9.31,65.13 4.25,96.67 -5.22,32.43 -16.72,62.89 -34.42,91.22l-3.86 5.99c4.5,8.34 8.23,17.49 11.18,27.47 15.78,-14.67 32.95,-27.89 51.49,-39.67 27.17,-17.27 57.98,-32 92.33,-44.13 62.65,-22.14 136.47,-34.31 221.38,-36.51 41.32,-1.61 80.6,-0.02 117.74,4.72 39.51,5.04 75.72,13.4 108.56,24.98 33.91,11.99 65,27.12 93.18,45.34 29.33,18.97 54.78,41.04 76.26,66.14l11.36 13.8 8.05 -9.71c49.19,-57.56 116.71,-98.4 202.39,-122.45 75.68,-21.23 166.66,-29.31 272.8,-24.22 31.83,1.56 62.95,4.09 93.26,7.56 31.67,3.62 64.39,8.34 98.11,14.11 3.92,0.67 7.76,1.54 11.51,2.62 37.59,9.38 64.39,33.83 80.03,73.4 2.19,5.54 3.88,11.15 5.11,16.77 3.3,12.25 5.42,25.64 6.38,40.18 0.85,13.24 0.97,27.78 0.34,43.52 -0.56,14.4 -1.9,29.31 -3.91,44.63 -2.31,17.5 -5.18,33.03 -8.57,46.51 -4.04,15.92 -8.89,30.93 -14.54,44.89 -8.5,21.01 -19.6,38.91 -33.15,53.59l0.23 0.21 -6.83 6.98c6.51,4.98 13.29,10.41 20.32,16.24l0.21 -0.24c18.49,15.32 34.41,31.84 47.73,49.53 16,-11.59 33.05,-21.18 51.12,-28.79 32.17,-13.66 66.63,-20.45 103.22,-20.45 36.15,0 70.35,6.73 102.53,20.16 4.76,-49.03 15.59,-94.69 32.49,-136.94 24.38,-60.99 61.24,-113.38 110.51,-157.11 46.98,-41.67 101.87,-73.72 164.59,-96.05 59.18,-21.08 125.87,-33.51 200.03,-37.24 30.59,-1.51 60.12,-1.58 88.42,-0.16 29.9,1.48 57.98,4.46 84.15,8.91 27.94,4.74 53.47,10.77 76.52,18.03 25.32,7.97 48.44,17.59 69.31,28.82 19.5,10.51 38.11,22.75 55.68,36.63 14.04,11.09 26.56,22.56 37.55,34.36 18.26,-18.28 38.54,-34.49 60.79,-48.63 27.17,-17.27 57.98,-32 92.33,-44.13 62.65,-22.14 136.47,-34.31 221.38,-36.51 41.32,-1.61 80.6,-0.02 117.74,4.72 39.51,5.04 75.72,13.4 108.55,24.98 33.92,11.99 65,27.12 93.18,45.34 13.71,8.87 26.56,18.41 38.56,28.61 4.18,-9.96 9.01,-18.17 14.48,-24.63 7.9,-9.35 17.06,-17.01 27,-22.99 19.86,-12.1 46.33,-20.84 79.36,-26.06 23.52,-3.74 52.99,-6.26 88.33,-7.56 36.39,-1.32 66.93,-0.44 91.56,2.71 20.4,2.62 38.6,7.17 54.59,13.64l4.4 -2.41c11.92,-6.38 24.82,-12.29 38.61,-17.61l6.49 -2.26c15.55,-5.64 30.63,-9.79 45.19,-12.36 17.27,-3.05 34.86,-4.59 52.71,-4.59l8.26 0.31c49.45,-0.12 95.01,6.76 136.6,20.61l0.37 0.13c20.82,6.79 40.44,15.39 58.88,25.62 21.11,-9.77 42.14,-17.96 63.09,-24.56 43.01,-13.58 86.9,-20.81 131.59,-21.63 17.25,-0.66 33.17,-0.5 47.68,0.45l0.44 0.03c14.55,0.94 30.23,2.93 46.94,5.93 32.08,5.77 61.03,14.46 86.7,26.01 12.25,5.51 25.02,12.36 38.17,20.47l0.2 -0.31c12.32,7.59 24.19,16.05 35.5,25.32 10.61,8.66 21.21,18.69 31.73,29.95l6.04 7.08c7.99,8.95 15.09,17.77 21.22,26.4 7.78,10.89 14.99,22.04 21.52,33.32 6.78,11.68 12.99,23.65 18.62,35.79 5.28,11.44 10.47,24.1 15.48,37.95 4.58,12.63 8.92,26.2 12.92,40.53 4.53,16.28 8.05,30.49 10.44,42.49 2.14,10.75 4.44,25.5 6.81,44.22 1.88,14.74 3.44,28.74 4.69,41.99l0.25 3.02c1.59,17.32 2.74,31.15 3.4,41.37l0.21 7c1.24,30.43 1.61,63.56 1.14,99.24 -0.5,38.93 -1.88,77.05 -4.08,114.35 -2.39,40.59 -5.65,74 -9.77,100.16 -6.83,43.45 -19.74,75.66 -38.68,96.48 -12.29,13.52 -27.22,23.19 -43.27,29 -19.81,8.05 -43.58,12.69 -71.33,13.93 -26.15,1.17 -62.03,0.66 -107.56,-1.53 -70.47,-3.39 -125.24,-13.6 -164.28,-30.62 -14.01,7.36 -30.17,13 -48.49,16.94 -19.68,4.24 -44.96,7.68 -75.82,10.28 -27.01,2.28 -57.12,3.36 -90.21,3.23 -30.2,-0.11 -60.68,-1.58 -91.3,-4.32 -36.36,-3.26 -65.69,-8.39 -87.91,-15.31 -6.72,-2.09 -13.11,-4.42 -19.21,-6.98 -15.68,9.68 -34.96,16.53 -57.81,20.58 -15.31,2.72 -37.83,4.79 -67.49,6.2 -24.77,1.18 -50.81,1.56 -77.96,1.19 -29.5,-0.4 -55.78,-1.49 -78.74,-3.23 -29.56,-2.23 -54.01,-5.71 -73.27,-10.45l-6.37 -1.77c-44.59,-12.47 -74.52,-36.74 -89.69,-72.71l-1.85 -4.66c-13.85,12.19 -28.71,23.32 -44.56,33.4 -27.17,17.27 -57.98,32 -92.33,44.13 -33,11.66 -68.63,20.35 -106.79,26.01 -37.03,5.49 -76.08,8.26 -117.05,8.26 -40.58,0 -79.49,-2.7 -116.65,-8.1 -37.21,-5.38 -72.65,-13.88 -106.21,-25.45l-0.13 0.37c-34.18,-11.77 -65.41,-26.73 -93.59,-44.79 -27.41,-17.54 -51.56,-38.04 -72.36,-61.42l-7.99 8.37c-9.01,9.02 -20.25,18.69 -33.65,28.91 -11.46,8.72 -24.97,17.59 -40.5,26.52 -15.38,8.87 -30.16,16.47 -44.18,22.68l-1.72 0.74c-11.8,5.18 -26.3,10.56 -43.51,16.04 -17.22,5.47 -34.27,10.17 -51.18,14.09 -17.92,4.16 -38.06,7.74 -60.33,10.71 -21.2,2.83 -42.83,4.88 -64.73,6.12 -21.11,1.21 -43.79,1.59 -67.87,1.19 -22.56,-0.37 -45.43,-1.61 -68.46,-3.65l-0.03 0.42c-23.86,-2.09 -48.95,-6.15 -75.15,-12.06 -25.56,-5.77 -50.01,-12.97 -73.28,-21.52 -24.19,-8.88 -47.98,-19.84 -71.23,-32.72 -23.28,-12.92 -44.74,-27.2 -64.36,-42.77l-12.43 -10.39c-11.15,18.8 -24.73,36.37 -40.74,52.69 -25.89,26.38 -54.74,46.29 -86.53,59.61l-6.99 2.65c-30.35,11.76 -62.48,17.65 -96.3,17.65 -36.59,0 -71.05,-6.79 -103.28,-20.3l-7.36 -3.41c-29.17,-13.38 -55.59,-32.13 -79.17,-56.2l-7.58 -8.01c-9.75,7 -20.18,13.67 -31.3,19.95 -29.61,16.76 -61.42,30.43 -95.38,40.98 -32.11,9.98 -67.63,17.51 -106.43,22.53 -35.73,4.61 -69.89,7.98 -102.37,10.04 -36.76,2.33 -71.56,3.48 -104.39,3.48 -34.51,0 -68.34,-1.27 -101.42,-3.84 -33.37,-2.57 -64.55,-6.39 -93.42,-11.47 -65.86,-11.53 -114.26,-27.37 -145.12,-47.44 -14.8,-9.6 -26.46,-22.2 -34.74,-36.48l-8.96 5.88c-27.17,17.27 -57.98,32 -92.33,44.13 -33,11.66 -68.63,20.35 -106.78,26.01 -37.04,5.49 -76.09,8.26 -117.06,8.26 -40.58,0 -79.49,-2.7 -116.65,-8.1 -37.21,-5.38 -72.65,-13.88 -106.21,-25.45l-0.12 0.37c-34.19,-11.77 -65.42,-26.73 -93.6,-44.79 -7.47,-4.79 -14.72,-9.8 -21.71,-15.02 -13.88,28.73 -41.67,49.43 -83.41,62.03 -3.52,1.04 -7.03,1.91 -10.57,2.59 -16.48,4.08 -36.63,7.32 -60.39,9.68l-5.78 0.53c-24.55,2.27 -50.01,3.47 -76.34,3.6 -29.79,0.13 -57.28,-0.83 -82.29,-2.89 -30.24,-2.49 -55.41,-6.28 -75.4,-11.29 -14.55,-3.68 -27.72,-8.5 -39.5,-14.48l-7.01 3.25c-13.46,5.83 -27.84,10.29 -43.08,13.35 -11.01,2.18 -23.94,4.16 -38.61,5.88 -11.32,1.31 -24.88,2.42 -40.64,3.29 -25.74,1.43 -52.81,1.88 -81.1,1.37 -17.88,-0.33 -31.3,-0.86 -40.36,-1.53 -11.55,-0.87 -24.1,-2.38 -37.51,-4.5 -13,-2.06 -24.36,-4.61 -33.96,-7.63 -9.83,3.84 -22.75,7.86 -38.72,11.95 -13.32,3.42 -28.1,6.64 -44.21,9.53 -35.54,6.39 -72.55,9.61 -110.95,9.61 -64.86,0 -123.48,-10.72 -175.74,-32.15 -37.01,-15.18 -70,-35.52 -98.9,-60.98 -5.65,12.46 -12.24,22.45 -19.74,29.96 -10.78,10.78 -23.26,18.81 -36.58,24.13 -18.9,8.38 -42.27,14.57 -70.11,18.55 -24.2,3.44 -56.02,5.85 -95.4,7.14 -39.45,1.3 -71.92,0.65 -97.26,-1.95 -30.15,-3.1 -55.54,-9.69 -76.05,-19.71 -10.22,4.34 -22.12,8.69 -35.7,13.03 -32.13,10.43 -67.02,16.22 -104.5,17.46l-6.04 0.02c-68.49,0.22 -128.99,-9.21 -181.43,-28.33 -55.38,-20.16 -101.61,-50.5 -138.66,-90.93 -13.77,17.69 -29.79,33.53 -48.04,47.49 -22.23,17.02 -46.89,30.98 -73.95,41.84 -26.15,10.47 -53.7,17.91 -82.56,22.26 -23.79,3.59 -52.34,5.82 -85.53,6.64 -30.73,0.77 -63.36,0.21 -97.74,-1.7l-0.43 -0.04c-104.32,-6.42 -185.99,-34.42 -244.92,-83.87 -11.31,-9.48 -21.67,-19.59 -31.12,-30.29 -19.79,21.9 -44.53,41.26 -74.14,58 -29.61,16.76 -61.42,30.43 -95.38,40.98 -32.12,9.98 -67.64,17.51 -106.43,22.53 -35.73,4.61 -69.89,7.98 -102.37,10.04 -36.76,2.33 -71.56,3.48 -104.4,3.48 -34.5,0 -68.34,-1.27 -101.42,-3.84 -33.36,-2.57 -64.55,-6.39 -93.42,-11.47 -65.85,-11.53 -114.25,-27.37 -145.12,-47.44 -3.06,-1.99 -5.99,-4.11 -8.77,-6.34 -25.4,13.19 -52.31,24.21 -80.74,33.04 -32.12,9.98 -67.64,17.51 -106.43,22.53 -35.73,4.61 -69.89,7.98 -102.37,10.04 -36.76,2.33 -71.56,3.48 -104.4,3.48 -34.5,0 -68.34,-1.27 -101.42,-3.84 -33.36,-2.57 -64.55,-6.39 -93.42,-11.47 -65.85,-11.53 -114.25,-27.37 -145.12,-47.44 -16.7,-10.84 -29.41,-25.51 -37.77,-42.11l-3.08 -6.44c-10.04,7.73 -20.19,14.96 -30.48,21.69 -23.37,15.3 -47.68,28.37 -72.87,39.2 -24.59,10.57 -50.28,18.88 -77.02,24.82 -27.74,6.19 -54.02,9.27 -78.8,9.27 -11.1,0 -23.08,-0.48 -35.97,-1.46 -9.76,-0.72 -21.03,-2.09 -33.78,-4.07l12.21 225.79c2.2,43.42 -21.43,82.19 -57.42,101.37 -21.01,11.81 -48.12,20.02 -81.36,24.63 -26.01,3.58 -60.85,5.93 -104.45,6.94 -44.81,1.08 -79.61,0.5 -104.4,-1.69 -40.85,-3.6 -72.76,-12.82 -95.55,-27.53 -32.92,-21.13 -50.59,-57.07 -49.93,-93.5 -6.8,-34.14 -11.04,-77.66 -12.73,-130.54 -2.71,-85.42 -3.85,-211.71 -3.4,-378.79l0.41 -88.36c-11.26,4.2 -23.64,6.77 -37.14,7.68l-7.23 0.24 0 0.2 -40.27 -0.47 13.89 141.92c1.74,25.84 2.59,44.6 2.59,56.1 0,35.24 -8.05,63.61 -23.73,84.68 -11.33,15.27 -25.9,26.71 -42.04,34.06 -21.37,10.7 -48.01,17.59 -79.94,20.7 -29.55,2.85 -71.56,4.43 -125.92,4.67 -152.42,0.67 -239.57,-29.42 -261.34,-90.21 -5.88,-16.46 -7.53,-33.41 -5.54,-49.67 4.08,-64.04 7.26,-121.04 9.46,-170.76l1.4 -32.74 -16.66 0.93 0 35.23c0,60.1 -48.73,108.83 -108.83,108.83l-32.4 0 0 106.99c0,60.1 -48.73,108.83 -108.83,108.83l-298.33 0c-60.1,0 -108.83,-48.73 -108.83,-108.83l0 -106.99 -426.62 0 0 106.99c0,60.1 -48.72,108.83 -108.82,108.83z"/>
    <g>
     <path class="fil1" d="M135.99 1250.83l879.14 0 0 -250.73 -458.61 0 190.42 -133.3c165.04,-119.02 257.08,-211.06 257.08,-388.79l0 -3.17c0,-209.47 -166.62,-353.88 -409.42,-353.88 -215.82,0 -333.25,84.1 -452.26,238.03l207.88 172.97c87.28,-99.97 145.99,-142.82 220.58,-142.82 74.58,0 123.78,42.85 123.78,112.67 0,66.65 -39.68,119.02 -142.82,199.95l-415.77 317.38 0 231.69zm1523.43 0l298.34 0 0 -215.82 141.23 0 0 -230.1 -141.23 0 0 -672.84 -311.04 0 -576.04 685.54 50.78 217.4 537.96 0 0 215.82zm-265.01 -444.33l265.01 -318.97 0 318.97 -265.01 0zm9050.75 189.97c2.72,-9.97 34.46,-14.51 95.22,-13.6 60.75,0.91 91.59,6.35 92.49,16.32 0,0 1.14,3.4 3.4,10.2 2.27,6.81 4.08,14.06 5.44,21.77 1.36,7.71 2.27,17.45 2.72,29.24 0.46,11.79 -1.36,23.81 -5.44,36.05 -4.08,12.24 -10.43,24.71 -19.04,37.4 -8.61,12.7 -21.54,25.62 -38.77,38.77 -17.22,13.15 -38.08,25.16 -62.56,36.04 -19.95,9.07 -45.57,17.23 -76.86,24.49 -31.28,7.25 -66.87,12.01 -106.77,14.28 -39.9,2.27 -80.25,1.59 -121.06,-2.04 -40.81,-3.63 -80.93,-12.7 -120.38,-27.2 -39.44,-14.51 -74.58,-34.01 -105.41,-58.49 -30.83,-24.49 -55.54,-58.27 -74.13,-101.34 -18.59,-43.07 -27.89,-92.72 -27.89,-148.94 0,-116.98 36.27,-207.66 108.82,-272.04 72.54,-64.38 171.84,-99.75 297.88,-106.1 54.41,-2.72 104.28,-0.22 149.62,7.49 45.34,7.7 82.75,19.49 112.22,35.36 29.47,15.87 53.27,34.69 71.41,56.45 18.14,21.76 26.75,45.11 25.84,70.05 -0.9,24.94 -8.16,50.55 -21.76,76.85 -4.53,6.35 -34.91,11.56 -91.13,15.64 -56.22,4.08 -87.96,3.86 -95.22,-0.68 0,-0.9 -0.22,-2.49 -0.68,-4.76 -0.45,-2.27 -1.13,-6.35 -2.04,-12.24 -0.9,-5.89 -2.49,-11.33 -4.76,-16.32 -2.26,-4.99 -5.66,-10.88 -10.2,-17.68 -4.53,-6.81 -10.2,-12.47 -17,-17.01 -6.8,-4.53 -15.42,-8.39 -25.84,-11.56 -10.43,-3.17 -22.45,-4.76 -36.05,-4.76 -29.92,0 -55.54,4.08 -76.85,12.24 -21.31,8.16 -36.73,18.82 -46.25,31.97 -9.52,13.15 -17,28.11 -22.44,44.88 -5.44,16.78 -7.48,33.33 -6.12,49.65 1.36,16.32 2.49,32.19 3.4,47.61 1.81,20.85 3.85,37.4 6.12,49.64 2.27,12.25 6.12,26.76 11.56,43.53 5.44,16.78 12.24,29.93 20.4,39.45 8.16,9.52 19.5,17.91 34.01,25.16 14.51,7.26 31.28,11.79 50.33,13.6 21.76,0.91 40.35,0.23 55.76,-2.04 15.42,-2.26 27.21,-4.98 35.37,-8.16 8.16,-3.17 14.73,-7.93 19.72,-14.28 4.99,-6.35 7.94,-11.56 8.84,-15.64 0.91,-4.08 1.82,-9.52 2.72,-16.33 0.91,-6.8 1.36,-11.1 1.36,-12.92zm632.5 -467.91c71.64,-2.72 133.75,5.22 186.35,23.81 52.59,18.59 93.62,45.11 123.1,79.57 29.47,34.46 51.23,73 65.29,115.62 14.05,42.62 21.08,90.22 21.08,142.82 0,52.59 -6.8,99.97 -20.4,142.14 -13.61,42.16 -35.14,80.02 -64.61,113.57 -29.48,33.56 -70.51,59.63 -123.1,78.22 -52.6,18.59 -115.17,27.88 -187.71,27.88 -72.54,0 -135.11,-9.07 -187.71,-27.2 -52.59,-18.14 -93.62,-44.44 -123.1,-78.9 -29.47,-34.45 -50.78,-72.54 -63.92,-114.25 -13.15,-41.72 -19.73,-88.87 -19.73,-141.46 0,-52.6 6.35,-99.52 19.05,-140.78 12.69,-41.26 33.77,-78.67 63.24,-112.22 29.48,-33.55 70.51,-59.62 123.1,-78.21 52.6,-18.59 115.62,-28.79 189.07,-30.61zm-10.88 530.48c25.39,0 46.93,-9.29 64.61,-27.88 17.68,-18.59 26.52,-49.2 26.52,-91.82 0,-33.55 -2.26,-60.3 -6.8,-80.25 -4.53,-19.95 -13.15,-36.27 -25.84,-48.96 -12.7,-12.7 -30.38,-19.05 -53.05,-19.05 -32.65,0 -55.32,10.88 -68.01,32.65 -12.7,21.76 -19.04,56.67 -19.04,104.73 0,42.62 8.38,74.81 25.16,96.58 16.78,21.76 35.59,33.09 56.45,34zm1566.95 -170.02c2.72,61.66 1.81,130.8 -2.72,207.43 -4.54,76.62 -11.34,119.92 -20.4,129.9 -6.35,8.16 -51.92,10.2 -136.71,6.12 -84.78,-4.08 -129.89,-12.02 -135.33,-23.81 -8.17,-15.41 -9.75,-84.78 -4.77,-208.11 4.99,-123.32 1.14,-191.79 -11.56,-205.39 -7.25,-9.97 -14.05,-17.91 -20.4,-23.8 -6.35,-5.89 -11.79,-9.3 -16.32,-10.2 -4.54,-0.91 -8.39,-1.14 -11.56,-0.68 -3.18,0.45 -6.13,3.17 -8.85,8.16 -2.72,4.99 -4.76,8.84 -6.12,11.56 -1.36,2.72 -3.17,7.26 -5.44,13.6 -2.26,6.35 -3.4,9.98 -3.4,10.88 1.82,12.7 4.54,48.97 8.16,108.82 3.63,59.85 6.35,121.51 8.16,184.99 1.82,63.47 -0.45,100.65 -6.8,111.53 -5.44,8.17 -34.91,14.51 -88.41,19.05 -53.5,4.53 -107.91,4.3 -163.22,-0.68 -55.32,-4.99 -86.6,-14.74 -93.86,-29.25 -4.53,-7.25 -6.8,-44.2 -6.8,-110.85 0,-66.65 0.68,-131.94 2.04,-195.87 1.36,-63.93 2.04,-96.35 2.04,-97.26 -11.79,-15.41 -23.12,-24.93 -34,-28.56 -10.88,-3.63 -19.73,-2.27 -26.53,4.08 -6.8,6.35 -12.69,14.05 -17.68,23.12 -4.99,9.07 -8.39,17.23 -10.2,24.49l-4.08 12.24 14.96 389.02c-0.91,6.34 -25.16,10.65 -72.77,12.92 -47.61,2.26 -95.44,1.58 -143.5,-2.04 -48.06,-3.63 -73.91,-9.98 -77.53,-19.05 -5.44,-12.69 -11.11,-119.92 -17,-321.68 -5.9,-201.77 -3.86,-308.54 6.12,-320.33 15.41,-9.98 53.95,-16.1 115.61,-18.36 61.67,-2.27 98.84,2.49 111.54,14.28 0.91,0 1.81,1.59 2.72,4.76 0.91,3.17 1.81,6.8 2.72,10.88 0.91,4.08 1.81,8.39 2.72,12.92 0.91,4.54 1.59,9.07 2.04,13.61 0.45,4.53 0.91,8.61 1.36,12.24 0.45,3.62 0.68,6.8 0.68,9.52l0 4.08c1.81,-3.63 3.86,-7.71 6.12,-12.24 2.27,-4.54 7.94,-12.7 17,-24.49 9.07,-11.78 19.27,-22.21 30.61,-31.28 11.33,-9.07 26.98,-17.46 46.93,-25.16 19.95,-7.71 41.71,-11.57 65.29,-11.57 82.51,-1.81 147.8,19.95 195.86,65.29 69.83,-42.62 138.74,-64.38 206.75,-65.29 25.4,-0.9 49.43,0.68 72.1,4.76 22.67,4.09 43.07,10.21 61.2,18.37 18.14,8.16 34.69,18.36 49.65,30.6 14.96,12.24 28.11,26.3 39.45,42.17 11.33,15.87 21.31,33.1 29.92,51.69 8.62,18.58 16.1,39.21 22.45,61.88 6.34,22.67 11.1,46.48 14.28,71.42 3.17,24.93 5.66,51.46 7.48,79.57z"/>
     <path class="fil3" d="M2566.44 272.85c28.11,-1.82 56.9,-0.91 86.37,2.72 29.48,3.62 60.31,12.01 92.5,25.16 32.19,13.15 60.07,30.6 83.65,52.37 23.58,21.76 42.39,51.46 56.45,89.09 14.05,37.63 19.72,80.93 17,129.9 -0.91,13.6 -33.55,22.22 -97.93,25.84 -64.39,3.63 -100.2,-0.9 -107.46,-13.6 -3.63,-6.35 -10.43,-25.16 -20.4,-56.45 -9.98,-31.28 -19.95,-53.5 -29.93,-66.65 -9.97,-13.14 -21.31,-12.46 -34,2.04 -10.88,10.89 -19.04,25.39 -24.48,43.53 -5.45,18.14 -8.17,36.05 -8.17,53.73 0,17.68 0.68,34.46 2.04,50.33 1.36,15.86 3.41,28.79 6.13,38.76l2.72 14.96c4.53,0 10.65,-0.22 18.36,-0.68 7.71,-0.45 21.76,-1.36 42.16,-2.72 20.41,-1.36 38.77,-2.49 55.09,-3.4 16.33,-0.9 32.19,-1.81 47.61,-2.72 15.42,-0.9 25.39,-0.9 29.92,0 11.79,0.91 16.78,40.35 14.97,118.34 -1.82,77.98 -9.52,117.43 -23.13,118.34 -26.29,0 -52.82,-0.23 -79.57,-0.68 -26.75,-0.46 -46.93,-1.59 -60.53,-3.4l-20.4 -1.36c0,0 8.61,87.5 25.84,262.51 2.72,42.62 2.72,65.75 0,69.38 -6.34,9.97 -60.07,15.18 -161.18,15.64 -101.11,0.45 -153.93,-5.67 -158.46,-18.37 8.16,-126.95 13.14,-238.94 14.96,-335.96 -3.63,0.9 -8.62,1.58 -14.96,2.04 -6.35,0.45 -18.82,1.81 -37.41,4.08 -18.59,2.26 -34,3.62 -46.25,4.08 -12.24,0.45 -26.29,1.13 -42.16,2.04 -15.87,0.9 -24.26,0.9 -25.17,0 -9.06,-2.72 -15.41,-41.94 -19.04,-117.66 -3.63,-75.72 -0.91,-115.84 8.16,-120.38 1.82,-0.9 9.3,-1.58 22.45,-2.04 13.14,-0.45 28.33,-0.22 45.56,0.68 17.23,0.91 34.46,1.59 51.69,2.04 17.23,0.46 31.74,1.14 43.53,2.04l17.68 0c0,-6.35 -0.23,-14.73 -0.68,-25.16 -0.45,-10.43 -1.13,-31.51 -2.04,-63.25 -0.91,-31.74 -0.91,-58.94 0,-81.61 0.91,-36.27 7.93,-68.01 21.08,-95.22 13.15,-27.2 28.11,-47.83 44.89,-61.89 16.77,-14.05 36.95,-25.61 60.53,-34.68 23.57,-9.07 42.39,-14.74 56.45,-17 14.05,-2.27 29.24,-3.86 45.56,-4.76zm848.77 255.71c102.47,0 179.32,31.52 230.55,94.54 51.23,63.02 76.85,151.66 76.85,265.92 0,53.5 -10.88,103.6 -32.64,150.3 -21.77,46.7 -49.2,85.24 -82.29,115.62 -33.1,30.37 -69.15,53.95 -108.14,70.73 -38.99,16.77 -76.63,25.16 -112.9,25.16 -19.04,0 -37.18,-1.36 -54.41,-4.08 -17.22,-2.72 -31.96,-6.12 -44.2,-10.2 -12.24,-4.08 -23.58,-8.62 -34.01,-13.6 -10.43,-4.99 -18.81,-9.75 -25.16,-14.29 -6.35,-4.53 -11.79,-8.84 -16.32,-12.92 -4.54,-4.08 -8.16,-7.48 -10.88,-10.2l-2.72 -2.72 21.76 402.62c-14.51,10.88 -60.3,17.23 -137.38,19.04 -77.08,1.82 -123.33,-2.26 -138.74,-12.24 -11.79,-10.88 -17.23,-181.36 -16.32,-511.44 0.9,-330.07 4.53,-501 10.88,-512.79 4.53,-9.07 27.88,-15.64 70.05,-19.72 42.16,-4.08 83.65,-4.99 124.46,-2.72 40.8,2.26 62.11,6.57 63.92,12.92 0.91,4.53 1.37,9.97 1.37,16.32 0,6.35 0,11.34 0,14.96l-1.37 5.44c0.91,-1.81 2.73,-4.3 5.45,-7.48 2.72,-3.17 9.52,-8.61 20.4,-16.32 10.88,-7.71 23.58,-14.51 38.08,-20.4 14.51,-5.9 35.37,-11.11 62.57,-15.65 27.21,-4.53 57.59,-6.8 91.14,-6.8zm-44.89 491.04c12.7,-15.42 21.31,-45.8 25.84,-91.14 4.54,-45.34 3.18,-88.86 -4.08,-130.58 -7.25,-41.71 -19.95,-64.83 -38.08,-69.37 -22.67,-4.53 -42.62,-5.44 -59.85,-2.72 -17.23,2.72 -32.19,8.16 -44.89,16.33 -12.69,8.16 -23.12,16.54 -31.28,25.16 -8.16,8.61 -14.06,16.09 -17.68,22.44l-6.81 10.88 0 189.07c1.82,1.82 4.08,4.08 6.81,6.8 2.72,2.72 8.16,7.48 16.32,14.28 8.16,6.81 16.32,12.7 24.48,17.69 8.16,4.98 18.14,9.97 29.93,14.96 11.78,4.99 22.89,7.71 33.32,8.16 10.43,0.45 21.54,-1.81 33.33,-6.8 11.78,-4.99 22.67,-13.38 32.64,-25.16zm765.79 -213.56c5.44,1.82 14.96,4.09 28.56,6.81 24.49,6.34 43.53,11.56 57.13,15.64 13.6,4.08 33.1,10.88 58.49,20.4 25.39,9.52 45.79,18.82 61.21,27.88 15.42,9.07 32.42,21.31 51.01,36.73 18.59,15.42 32.64,31.97 42.16,49.65 9.53,17.68 16.78,39.22 21.77,64.61 4.98,25.39 5.21,52.59 0.68,81.61 -5.44,38.08 -30.61,69.82 -75.49,95.21 -44.89,25.39 -98.85,42.17 -161.87,50.33 -63.02,8.16 -127.4,12.24 -193.15,12.24 -65.74,0 -124.45,-4.53 -176.14,-13.6 -51.69,-9.07 -86.6,-19.5 -104.74,-31.28 -4.53,-9.07 -6.12,-29.48 -4.76,-61.21 1.36,-31.74 6.12,-64.61 14.28,-98.62 8.17,-34 15.87,-50.1 23.13,-48.28 7.25,1.81 20.85,6.12 40.8,12.92 19.95,6.8 38.54,12.92 55.77,18.36 17.23,5.44 37.18,10.65 59.85,15.64 22.67,4.99 42.62,7.94 59.85,8.84 20.86,1.82 40.35,2.5 58.49,2.04 18.13,-0.45 34,-1.58 47.6,-3.4 13.61,-1.81 23.81,-5.44 30.61,-10.88 6.8,-5.44 8.84,-12.69 6.12,-21.76 -1.81,-6.35 -4.76,-12.24 -8.84,-17.68 -4.08,-5.45 -9.75,-10.43 -17,-14.97 -7.26,-4.53 -14.74,-8.84 -22.45,-12.92 -7.7,-4.08 -18.36,-8.61 -31.96,-13.6 -13.6,-4.99 -26.07,-9.3 -37.41,-12.92 -11.33,-3.63 -27.2,-8.84 -47.6,-15.64 -20.41,-6.81 -38.32,-13.38 -53.73,-19.73 -63.48,-22.67 -106.55,-62.57 -129.22,-119.7 -24.48,-62.56 -14.06,-120.15 31.28,-172.74 69.83,-81.61 199.05,-117.88 387.66,-108.82 55.32,2.72 114.71,9.52 178.19,20.41 7.25,0.9 11.56,11.78 12.92,32.64 1.36,20.86 0.45,43.3 -2.72,67.33 -3.18,24.03 -8.62,45.57 -16.32,64.61 -7.71,19.04 -16.1,28.11 -25.17,27.2 -22.67,-2.72 -48.51,-7.25 -77.53,-13.6 -29.02,-6.34 -51.46,-11.56 -67.33,-15.64 -15.87,-4.08 -34,-7.03 -54.41,-8.84 -20.4,-1.81 -33.32,0 -38.76,5.44 -17.23,8.16 -23.58,25.39 -19.05,51.69 4.54,26.29 17.23,42.16 38.09,47.6z"/>
     <path class="fil4" d="M4878.78 806.04c5.44,1.82 14.96,4.09 28.56,6.81 24.49,6.34 43.53,11.56 57.13,15.64 13.6,4.08 33.1,10.88 58.49,20.4 25.39,9.52 45.79,18.82 61.21,27.88 15.42,9.07 32.42,21.31 51.01,36.73 18.59,15.42 32.64,31.97 42.16,49.65 9.53,17.68 16.78,39.22 21.77,64.61 4.98,25.39 5.21,52.59 0.68,81.61 -5.44,38.08 -30.61,69.82 -75.49,95.21 -44.89,25.39 -98.85,42.17 -161.87,50.33 -63.02,8.16 -127.4,12.24 -193.15,12.24 -65.74,0 -124.45,-4.53 -176.14,-13.6 -51.69,-9.07 -86.6,-19.5 -104.74,-31.28 -4.53,-9.07 -6.12,-29.48 -4.76,-61.21 1.36,-31.74 6.12,-64.61 14.28,-98.62 8.17,-34 15.87,-50.1 23.13,-48.28 7.25,1.81 20.85,6.12 40.8,12.92 19.95,6.8 38.54,12.92 55.77,18.36 17.23,5.44 37.18,10.65 59.85,15.64 22.67,4.99 42.62,7.94 59.85,8.84 20.86,1.82 40.35,2.5 58.49,2.04 18.13,-0.45 34,-1.58 47.6,-3.4 13.61,-1.81 23.81,-5.44 30.61,-10.88 6.8,-5.44 8.84,-12.69 6.12,-21.76 -1.81,-6.35 -4.76,-12.24 -8.84,-17.68 -4.08,-5.45 -9.75,-10.43 -17,-14.97 -7.26,-4.53 -14.74,-8.84 -22.45,-12.92 -7.7,-4.08 -18.36,-8.61 -31.96,-13.6 -13.6,-4.99 -26.07,-9.3 -37.41,-12.92 -11.33,-3.63 -27.2,-8.84 -47.6,-15.64 -20.41,-6.81 -38.32,-13.38 -53.73,-19.73 -63.48,-22.67 -106.55,-62.57 -129.22,-119.7 -24.48,-62.56 -14.06,-120.15 31.28,-172.74 69.83,-81.61 199.05,-117.88 387.66,-108.82 55.32,2.72 114.71,9.52 178.19,20.41 7.25,0.9 11.56,11.78 12.92,32.64 1.36,20.86 0.45,43.3 -2.72,67.33 -3.18,24.03 -8.62,45.57 -16.32,64.61 -7.71,19.04 -16.1,28.11 -25.17,27.2 -22.67,-2.72 -48.51,-7.25 -77.53,-13.6 -29.02,-6.34 -51.46,-11.56 -67.33,-15.64 -15.87,-4.08 -34,-7.03 -54.41,-8.84 -20.4,-1.81 -33.32,0 -38.76,5.44 -17.23,8.16 -23.58,25.39 -19.05,51.69 4.54,26.29 17.23,42.16 38.09,47.6zm991.59 145.55c4.53,63.47 1.59,115.16 -8.84,155.06 -10.43,39.9 -30.15,70.96 -59.17,93.17 -29.02,22.22 -64.61,36.5 -106.78,42.85 -42.16,6.35 -95.89,7.71 -161.18,4.08 -160.5,-9.98 -242.12,-78.44 -244.84,-205.39 -0.9,-22.67 -0.22,-52.37 2.04,-89.09 2.27,-36.73 4.31,-75.04 6.13,-114.94 1.81,-39.9 2.26,-74.81 1.36,-104.74 -19.05,4.54 -48.52,6.8 -88.42,6.8 -9.07,0 -13.6,-29.69 -13.6,-89.09 0,-59.39 4.53,-90.45 13.6,-93.17 6.35,-1.82 16.55,-2.95 30.61,-3.4 14.05,-0.46 26.52,-0.23 37.4,0.68l16.32 0 -5.44 -231.24c4.54,-12.69 51.92,-20.17 142.14,-22.44 90.23,-2.27 138.52,1.13 144.87,10.2 3.62,4.54 6.12,27.66 7.48,69.37 1.36,41.71 2.04,82.52 2.04,122.42l0 58.49c4.53,0 11.11,-0.23 19.72,-0.68 8.62,-0.45 26.52,-0.68 53.73,-0.68 27.2,0 53.5,0.45 78.89,1.36 13.6,0 21.31,29.47 23.12,88.41 1.82,58.94 -2.72,88.87 -13.6,89.77 -7.25,0.91 -24.03,0.91 -50.33,0 -26.29,-0.9 -50.32,-1.81 -72.09,-2.72l-34 -2.72c0,0 -0.91,55.32 -2.72,165.95 2.72,105.19 13.15,157.33 31.28,156.42 19.05,-0.91 34.46,-39.9 46.25,-116.98 0.91,-9.06 18.36,-14.5 52.37,-16.32 34,-1.81 67.78,0.23 101.33,6.12 33.55,5.9 50.33,13.38 50.33,22.45zm817.48 -374.06c5.44,11.79 8.61,119.25 9.52,322.37 0.91,203.12 -4.53,310.58 -16.32,322.37 -17.23,9.97 -60.08,16.09 -128.54,18.36 -68.46,2.27 -110.4,-2.04 -125.82,-12.92 -2.72,-3.63 -3.85,-11.57 -3.4,-23.81 0.45,-12.24 1.13,-25.16 2.04,-38.76l1.36 -19.05c-0.91,2.72 -2.72,6.35 -5.44,10.89 -2.72,4.53 -9.29,12.69 -19.72,24.48 -10.43,11.79 -21.99,22.22 -34.69,31.28 -12.69,9.07 -30.38,17.23 -53.05,24.49 -22.67,7.25 -47.6,11.33 -74.81,12.24 -113.35,0.91 -196.09,-29.24 -248.23,-90.45 -52.14,-61.21 -81.39,-149.85 -87.74,-265.92 -1.81,-40.81 -2.04,-84.56 -0.68,-131.26 1.36,-46.7 4.54,-90 9.52,-129.9 4.99,-39.9 10.66,-63.02 17.01,-69.37 7.25,-9.07 54.18,-11.56 140.78,-7.48 86.6,4.08 133.07,12.01 139.42,23.8 8.16,13.6 11.33,56.22 9.52,127.86 -1.81,71.64 -3.63,136.25 -5.44,193.83 -1.81,57.58 4.08,99.52 17.68,125.82 14.51,15.41 29.93,23.12 46.25,23.12 16.32,0 32.87,-5.67 49.65,-17 16.77,-11.34 31.96,-23.58 45.56,-36.73 13.6,-13.15 24.49,-25.61 32.65,-37.4l12.24 -16.33 -12.24 -379.49c2.72,-10.88 48.74,-14.51 138.06,-10.88 89.32,3.62 137.6,12.24 144.86,25.84zm837.89 -259.8c11.79,11.79 16.77,160.96 14.96,447.51 -1.81,286.55 -5.9,436.17 -12.24,448.86 -2.72,5.45 -13.15,9.98 -31.29,13.61 -18.13,3.62 -39.44,6.12 -63.93,7.48 -24.48,1.36 -48.96,1.81 -73.45,1.36 -24.48,-0.46 -45.34,-2.04 -62.57,-4.76 -17.23,-2.72 -26.29,-5.9 -27.2,-9.52 -0.91,-3.63 -1.36,-8.62 -1.36,-14.97 0,-6.34 0,-11.33 0,-14.96l1.36 -5.44c-0.91,1.81 -2.49,4.08 -4.76,6.8 -2.27,2.72 -8.84,7.94 -19.72,15.64 -10.89,7.71 -23.58,14.51 -38.09,20.41 -14.51,5.89 -35.59,11.33 -63.25,16.32 -27.66,4.99 -58.26,7.48 -91.81,7.48 -102.47,0 -179.32,-31.51 -230.56,-94.53 -51.23,-63.03 -76.85,-152.12 -76.85,-267.28 0,-52.6 10.88,-102.47 32.65,-149.62 21.76,-47.16 49.42,-85.7 82.97,-115.62 33.55,-29.93 69.82,-53.5 108.82,-70.73 38.99,-17.23 76.17,-25.39 111.53,-24.49 26.3,0 50.78,3.63 73.45,10.89 22.67,7.25 40.81,16.09 54.41,26.52 13.6,10.43 25.16,20.63 34.69,30.6 9.52,9.98 16.09,18.59 19.72,25.85l5.44 10.88c-1.81,-208.56 0,-315.11 5.44,-319.65 14.51,-10.88 55.99,-15.87 124.46,-14.96 68.46,0.91 110.85,6.35 127.18,16.32zm-251.64 663.78l0 -138.74c-2.72,-3.63 -6.57,-8.16 -11.56,-13.6 -4.99,-5.44 -14.74,-14.06 -29.25,-25.85 -14.5,-11.78 -28.79,-20.63 -42.84,-26.52 -14.06,-5.89 -29.7,-7.71 -46.93,-5.44 -17.23,2.27 -32.64,11.11 -46.25,26.52 -12.69,15.42 -21.31,42.85 -25.84,82.3 -4.53,39.44 -2.95,77.07 4.76,112.89 7.71,35.82 20.18,56 37.41,60.53 22.67,4.53 42.84,5.44 60.53,2.72 17.68,-2.72 32.64,-8.16 44.88,-16.32 12.24,-8.16 22.45,-16.55 30.61,-25.16 8.16,-8.62 14.51,-16.55 19.04,-23.81l5.44 -9.52zm588.96 -418.94c3.63,1.81 7.26,18.36 10.88,49.65 3.63,31.28 6.8,70.05 9.53,116.29 2.72,46.25 5.44,96.8 8.16,151.67 2.72,54.86 4.76,105.86 6.12,153.02 1.36,47.15 2.49,87.96 3.4,122.42 0.9,34.45 1.81,53.95 2.72,58.48 0.91,9.07 -21.76,15.87 -68.01,20.41 -46.25,4.53 -94.08,4.76 -143.5,0.68 -49.42,-4.08 -77.31,-11.11 -83.66,-21.09 -9.06,-16.32 -7.7,-123.77 4.09,-322.36 11.78,-198.59 22.67,-308.31 32.64,-329.17 5.44,-6.35 39.45,-9.07 102.02,-8.16 62.56,0.9 101.1,3.62 115.61,8.16zm25.85 -218.31c9.06,37.63 3.4,72.77 -17.01,105.41 -20.4,32.65 -49.42,53.5 -87.05,62.57 -37.63,9.07 -72.77,3.4 -105.41,-17 -32.65,-20.4 -53.28,-49.42 -61.89,-87.05 -8.62,-37.64 -2.95,-72.77 17,-105.42 19.95,-32.64 48.74,-53.27 86.37,-61.89 37.63,-8.61 72.77,-2.95 105.42,17 32.64,19.95 53.5,48.74 62.57,86.38zm451.58 184.3c71.64,-2.72 133.75,5.22 186.35,23.81 52.59,18.59 93.62,45.11 123.1,79.57 29.47,34.46 51.23,73 65.29,115.62 14.05,42.62 21.08,90.22 21.08,142.82 0,52.59 -6.8,99.97 -20.4,142.14 -13.61,42.16 -35.14,80.02 -64.61,113.57 -29.48,33.56 -70.51,59.63 -123.1,78.22 -52.6,18.59 -115.17,27.88 -187.71,27.88 -72.54,0 -135.11,-9.07 -187.71,-27.2 -52.59,-18.14 -93.62,-44.44 -123.1,-78.9 -29.47,-34.45 -50.78,-72.54 -63.92,-114.25 -13.15,-41.72 -19.73,-88.87 -19.73,-141.46 0,-52.6 6.35,-99.52 19.05,-140.78 12.69,-41.26 33.77,-78.67 63.24,-112.22 29.48,-33.55 70.51,-59.62 123.1,-78.21 52.6,-18.59 115.62,-28.79 189.07,-30.61zm-10.88 530.48c25.39,0 46.93,-9.29 64.61,-27.88 17.68,-18.59 26.52,-49.2 26.52,-91.82 0,-33.55 -2.26,-60.3 -6.8,-80.25 -4.53,-19.95 -13.15,-36.27 -25.84,-48.96 -12.7,-12.7 -30.38,-19.05 -53.05,-19.05 -32.65,0 -55.32,10.88 -68.01,32.65 -12.7,21.76 -19.04,56.67 -19.04,104.73 0,42.62 8.38,74.81 25.16,96.58 16.78,21.76 35.59,33.09 56.45,34zm820.2 -253c5.44,1.82 14.96,4.09 28.56,6.81 24.49,6.34 43.53,11.56 57.13,15.64 13.6,4.08 33.1,10.88 58.49,20.4 25.39,9.52 45.79,18.82 61.21,27.88 15.42,9.07 32.42,21.31 51.01,36.73 18.59,15.42 32.64,31.97 42.16,49.65 9.53,17.68 16.78,39.22 21.77,64.61 4.98,25.39 5.21,52.59 0.68,81.61 -5.44,38.08 -30.61,69.82 -75.49,95.21 -44.89,25.39 -98.85,42.17 -161.87,50.33 -63.02,8.16 -127.4,12.24 -193.15,12.24 -65.74,0 -124.45,-4.53 -176.14,-13.6 -51.69,-9.07 -86.6,-19.5 -104.74,-31.28 -4.53,-9.07 -6.12,-29.48 -4.76,-61.21 1.36,-31.74 6.12,-64.61 14.28,-98.62 8.17,-34 15.87,-50.1 23.13,-48.28 7.25,1.81 20.85,6.12 40.8,12.92 19.95,6.8 38.54,12.92 55.77,18.36 17.23,5.44 37.18,10.65 59.85,15.64 22.67,4.99 42.62,7.94 59.85,8.84 20.86,1.82 40.35,2.5 58.49,2.04 18.13,-0.45 34,-1.58 47.6,-3.4 13.61,-1.81 23.81,-5.44 30.61,-10.88 6.8,-5.44 8.84,-12.69 6.12,-21.76 -1.81,-6.35 -4.76,-12.24 -8.84,-17.68 -4.08,-5.45 -9.75,-10.43 -17,-14.97 -7.26,-4.53 -14.74,-8.84 -22.45,-12.92 -7.7,-4.08 -18.36,-8.61 -31.96,-13.6 -13.6,-4.99 -26.07,-9.3 -37.41,-12.92 -11.33,-3.63 -27.2,-8.84 -47.6,-15.64 -20.41,-6.81 -38.32,-13.38 -53.73,-19.73 -63.48,-22.67 -106.55,-62.57 -129.22,-119.7 -24.48,-62.56 -14.06,-120.15 31.28,-172.74 69.83,-81.61 199.05,-117.88 387.66,-108.82 55.32,2.72 114.71,9.52 178.19,20.41 7.25,0.9 11.56,11.78 12.92,32.64 1.36,20.86 0.45,43.3 -2.72,67.33 -3.18,24.03 -8.62,45.57 -16.32,64.61 -7.71,19.04 -16.1,28.11 -25.17,27.2 -22.67,-2.72 -48.51,-7.25 -77.53,-13.6 -29.02,-6.34 -51.46,-11.56 -67.33,-15.64 -15.87,-4.08 -34,-7.03 -54.41,-8.84 -20.4,-1.81 -33.32,0 -38.76,5.44 -17.23,8.16 -23.58,25.39 -19.05,51.69 4.54,26.29 17.23,42.16 38.09,47.6z"/>
     <path class="fil5" d="M9790 1210.93c-30.83,31.44 -68.31,47.15 -112.44,47.15 -44.13,0 -81.61,-15.71 -112.44,-47.15 -30.84,-31.43 -46.25,-68.92 -46.25,-112.44 0,-43.53 15.41,-81.01 46.25,-112.45 30.83,-31.43 68.31,-47.15 112.44,-47.15 44.13,0 81.61,15.72 112.44,47.15 30.83,31.44 46.25,68.92 46.25,112.45 0,43.52 -15.42,81.01 -46.25,112.44z"/>
    </g>
   </g>
   <path class="fil6" d="M3596.2 2339.53l0 -294.34 106.96 0c32.06,0 58.87,6.56 80.42,19.69 21.56,13.13 37.73,30.81 48.51,53.06 10.78,22.25 16.17,46.92 16.17,74 0,29.85 -5.95,55.83 -17.83,77.94 -11.88,22.11 -28.67,39.25 -50.37,51.41 -21.7,12.16 -47.33,18.24 -76.9,18.24l-106.96 0zm194.43 -147.59c0,-19.07 -3.45,-35.86 -10.36,-50.37 -6.91,-14.51 -16.86,-25.84 -29.85,-33.99 -12.99,-8.16 -28.75,-12.23 -47.26,-12.23l-49.75 0 0 194.02 49.75 0c18.79,0 34.68,-4.22 47.67,-12.65 12.99,-8.43 22.87,-20.03 29.64,-34.82 6.78,-14.79 10.16,-31.44 10.16,-49.96zm306.78 97.43l0 50.16 -204.38 0 0 -294.34 200.65 0 0 50.16 -143.44 0 0 70.89 123.96 0 0 46.43 -123.96 0 0 76.7 147.17 0zm21.56 -99.5c0,-17.96 3.25,-35.58 9.74,-52.86 6.5,-17.27 15.97,-33.02 28.4,-47.26 12.44,-14.23 27.64,-25.56 45.6,-33.99 17.97,-8.43 38.42,-12.65 61.36,-12.65 27.09,0 50.51,5.94 70.27,17.83 19.76,11.88 34.48,27.36 44.15,46.43l-43.94 30.26c-4.98,-11.05 -11.47,-19.83 -19.49,-26.32 -8.01,-6.5 -16.58,-11.06 -25.7,-13.68 -9.12,-2.63 -18.1,-3.94 -26.95,-3.94 -14.37,0 -26.88,2.9 -37.52,8.71 -10.64,5.8 -19.55,13.4 -26.74,22.8 -7.18,9.39 -12.5,19.9 -15.96,31.5 -3.45,11.61 -5.18,23.22 -5.18,34.83 0,12.99 2.07,25.49 6.22,37.52 4.15,12.02 10.02,22.66 17.62,31.92 7.6,9.26 16.72,16.58 27.36,21.97 10.64,5.39 22.32,8.09 35.03,8.09 9.12,0 18.38,-1.52 27.78,-4.56 9.4,-3.05 18.1,-7.88 26.12,-14.51 8.01,-6.64 14.23,-15.21 18.65,-25.71l46.85 26.95c-5.81,14.65 -15.27,27.08 -28.4,37.31 -13.13,10.23 -27.85,17.96 -44.15,23.22 -16.31,5.25 -32.48,7.87 -48.51,7.87 -21,0 -40.21,-4.35 -57.62,-13.06 -17.41,-8.7 -32.41,-20.31 -44.98,-34.82 -12.58,-14.51 -22.39,-30.82 -29.44,-48.92 -7.04,-18.1 -10.57,-36.41 -10.57,-54.93zm424.1 151.73c-21.55,0 -41.11,-4.14 -58.66,-12.43 -17.55,-8.3 -32.61,-19.56 -45.19,-33.79 -12.57,-14.24 -22.31,-30.27 -29.22,-48.09 -6.91,-17.83 -10.37,-36.14 -10.37,-54.93 0,-19.63 3.66,-38.35 10.99,-56.18 7.32,-17.82 17.41,-33.71 30.26,-47.67 12.85,-13.96 28.05,-25.01 45.6,-33.17 17.55,-8.15 36.83,-12.23 57.84,-12.23 21.28,0 40.69,4.29 58.24,12.85 17.55,8.57 32.55,20.04 44.98,34.41 12.44,14.38 22.11,30.41 29.02,48.09 6.91,17.69 10.37,35.93 10.37,54.73 0,19.34 -3.59,37.93 -10.78,55.76 -7.19,17.82 -17.2,33.71 -30.06,47.67 -12.85,13.96 -28.05,24.95 -45.6,32.96 -17.55,8.02 -36.69,12.02 -57.42,12.02zm-85.4 -149.24c0,12.71 1.94,25.01 5.81,36.89 3.86,11.89 9.46,22.46 16.79,31.72 7.32,9.26 16.3,16.58 26.94,21.97 10.64,5.39 22.73,8.09 36.28,8.09 13.82,0 26.12,-2.84 36.89,-8.5 10.78,-5.67 19.77,-13.27 26.95,-22.8 7.19,-9.54 12.65,-20.18 16.38,-31.93 3.73,-11.74 5.59,-23.56 5.59,-35.44 0,-12.72 -2,-24.95 -6.01,-36.69 -4.01,-11.75 -9.67,-22.25 -17,-31.51 -7.32,-9.26 -16.3,-16.58 -26.94,-21.97 -10.64,-5.39 -22.6,-8.09 -35.86,-8.09 -14.1,0 -26.47,2.84 -37.11,8.5 -10.64,5.67 -19.55,13.2 -26.74,22.6 -7.18,9.39 -12.64,19.9 -16.37,31.5 -3.73,11.61 -5.6,23.5 -5.6,35.66zm273.2 147.17l0 -294.34 106.96 0c32.06,0 58.87,6.56 80.42,19.69 21.56,13.13 37.73,30.81 48.51,53.06 10.78,22.25 16.17,46.92 16.17,74 0,29.85 -5.95,55.83 -17.83,77.94 -11.88,22.11 -28.67,39.25 -50.37,51.41 -21.7,12.16 -47.33,18.24 -76.9,18.24l-106.96 0zm194.43 -147.59c0,-19.07 -3.45,-35.86 -10.36,-50.37 -6.91,-14.51 -16.86,-25.84 -29.85,-33.99 -12.99,-8.16 -28.75,-12.23 -47.26,-12.23l-49.75 0 0 194.02 49.75 0c18.79,0 34.68,-4.22 47.67,-12.65 12.99,-8.43 22.87,-20.03 29.64,-34.82 6.78,-14.79 10.16,-31.44 10.16,-49.96zm306.78 97.43l0 50.16 -204.38 0 0 -294.34 200.65 0 0 50.16 -143.44 0 0 70.89 123.96 0 0 46.43 -123.96 0 0 76.7 147.17 0zm232.17 -94.94c0,8.02 -1.94,15.34 -5.81,21.97 -3.87,6.64 -9.12,11.89 -15.75,15.76 -6.63,3.87 -13.96,5.8 -21.97,5.8 -7.74,0 -14.86,-1.93 -21.35,-5.8 -6.5,-3.87 -11.75,-9.12 -15.76,-15.76 -4,-6.63 -6.01,-13.95 -6.01,-21.97 0,-7.74 2.01,-14.85 6.01,-21.35 4.01,-6.49 9.26,-11.75 15.76,-15.75 6.49,-4.01 13.61,-6.01 21.35,-6.01 8.01,0 15.34,2 21.97,6.01 6.63,4 11.88,9.26 15.75,15.75 3.87,6.5 5.81,13.61 5.81,21.35zm144.27 -4.56c0,-17.96 3.25,-35.58 9.74,-52.86 6.5,-17.27 15.97,-33.02 28.4,-47.26 12.44,-14.23 27.64,-25.56 45.6,-33.99 17.97,-8.43 38.42,-12.65 61.36,-12.65 27.09,0 50.51,5.94 70.27,17.83 19.76,11.88 34.48,27.36 44.15,46.43l-43.94 30.26c-4.98,-11.05 -11.47,-19.83 -19.49,-26.32 -8.01,-6.5 -16.58,-11.06 -25.7,-13.68 -9.12,-2.63 -18.1,-3.94 -26.95,-3.94 -14.37,0 -26.88,2.9 -37.52,8.71 -10.64,5.8 -19.55,13.4 -26.74,22.8 -7.18,9.39 -12.5,19.9 -15.96,31.5 -3.45,11.61 -5.18,23.22 -5.18,34.83 0,12.99 2.07,25.49 6.22,37.52 4.15,12.02 10.02,22.66 17.62,31.92 7.6,9.26 16.72,16.58 27.36,21.97 10.64,5.39 22.32,8.09 35.03,8.09 9.12,0 18.38,-1.52 27.78,-4.56 9.4,-3.05 18.1,-7.88 26.12,-14.51 8.01,-6.64 14.23,-15.21 18.65,-25.71l46.85 26.95c-5.81,14.65 -15.27,27.08 -28.4,37.31 -13.13,10.23 -27.85,17.96 -44.15,23.22 -16.31,5.25 -32.48,7.87 -48.51,7.87 -21,0 -40.21,-4.35 -57.62,-13.06 -17.41,-8.7 -32.41,-20.31 -44.98,-34.82 -12.58,-14.51 -22.39,-30.82 -29.44,-48.92 -7.04,-18.1 -10.57,-36.41 -10.57,-54.93zm302.23 149.66l0 -294.34 130.17 0c13.55,0 26.05,2.76 37.52,8.29 11.47,5.52 21.42,12.99 29.85,22.38 8.43,9.4 14.93,19.9 19.49,31.51 4.56,11.61 6.84,23.49 6.84,35.65 0,12.44 -2.15,24.39 -6.43,35.86 -4.28,11.47 -10.43,21.49 -18.45,30.06 -8.01,8.57 -17.41,15.2 -28.19,19.9l67.16 110.69 -63.01 0 -60.53 -98.67 -57.21 0 0 98.67 -57.21 0zm57.21 -148.83l71.72 0c7.19,0 13.54,-2.14 19.07,-6.43 5.53,-4.28 9.95,-10.02 13.27,-17.2 3.31,-7.19 4.97,-15.2 4.97,-24.05 0,-9.39 -1.93,-17.62 -5.8,-24.66 -3.87,-7.05 -8.78,-12.65 -14.72,-16.79 -5.94,-4.15 -12.37,-6.22 -19.28,-6.22l-69.23 0 0 95.35zm422.86 98.67l0 50.16 -204.38 0 0 -294.34 200.65 0 0 50.16 -143.44 0 0 70.89 123.96 0 0 46.43 -123.96 0 0 76.7 147.17 0zm124.79 -244.18l58.04 0 108.2 294.34 -58.87 0 -24.46 -73.38 -108.06 0 -24.6 73.38 -58.87 0 108.62 -294.34zm69.51 180.75l-40.49 -121.47 -40.7 121.47 81.19 0zm321.84 -130.59l-94.1 0 0 244.18 -56.8 0 0 -244.18 -94.11 0 0 -50.16 245.01 0 0 50.16zm240.87 194.02l0 50.16 -204.38 0 0 -294.34 200.65 0 0 50.16 -143.44 0 0 70.89 123.96 0 0 46.43 -123.96 0 0 76.7 147.17 0zm232.17 -94.94c0,8.02 -1.94,15.34 -5.81,21.97 -3.87,6.64 -9.12,11.89 -15.75,15.76 -6.63,3.87 -13.96,5.8 -21.97,5.8 -7.74,0 -14.86,-1.93 -21.35,-5.8 -6.5,-3.87 -11.75,-9.12 -15.76,-15.76 -4,-6.63 -6.01,-13.95 -6.01,-21.97 0,-7.74 2.01,-14.85 6.01,-21.35 4.01,-6.49 9.26,-11.75 15.76,-15.75 6.49,-4.01 13.61,-6.01 21.35,-6.01 8.01,0 15.34,2 21.97,6.01 6.63,4 11.88,9.26 15.75,15.75 3.87,6.5 5.81,13.61 5.81,21.35zm162.1 145.1l0 -294.34 57.21 0 0 294.34 -57.21 0zm175.78 -189.04l0 189.04 -57.21 0 0 -294.34 45.6 0 152.15 194.01 0 -193.6 57.21 0 0 293.93 -47.68 0 -150.07 -189.04zm434.47 -28.19c-1.93,-1.94 -5.46,-4.56 -10.57,-7.88 -5.11,-3.32 -11.33,-6.5 -18.66,-9.54 -7.32,-3.04 -15.27,-5.73 -23.83,-8.08 -8.57,-2.35 -17.28,-3.52 -26.12,-3.52 -15.48,0 -27.16,2.9 -35.03,8.63 -7.88,5.81 -11.82,13.89 -11.82,24.39 0,7.95 2.49,14.31 7.46,18.93 4.98,4.7 12.44,8.71 22.39,11.96 9.95,3.31 22.39,6.91 37.31,10.78 19.35,4.63 36.14,10.36 50.37,17.06 14.24,6.77 25.15,15.55 32.75,26.4 7.6,10.91 11.4,25.29 11.4,43.11 0,15.69 -2.9,29.09 -8.7,40.22 -5.81,11.19 -13.82,20.17 -24.05,27.01 -10.22,6.91 -21.83,11.96 -34.82,15.07 -12.99,3.17 -26.81,4.76 -41.46,4.76 -14.65,0 -29.29,-1.52 -43.94,-4.56 -14.65,-3.04 -28.75,-7.39 -42.29,-13.06 -13.54,-5.66 -25.98,-12.5 -37.31,-20.52l25.29 -49.33c2.49,2.49 6.91,5.73 13.27,9.74 6.35,4.01 14.09,8.02 23.21,12.02 9.12,4.01 19.07,7.4 29.85,10.16 10.78,2.76 21.7,4.15 32.75,4.15 15.48,0 27.22,-2.63 35.24,-7.81 8.02,-5.18 12.02,-12.58 12.02,-22.11 0,-8.85 -3.18,-15.69 -9.53,-20.66 -6.36,-4.98 -15.2,-9.26 -26.54,-12.99 -11.33,-3.73 -24.73,-7.81 -40.21,-12.16 -18.52,-5.25 -33.99,-11.13 -46.43,-17.55 -12.44,-6.5 -21.7,-14.65 -27.78,-24.6 -6.08,-9.88 -9.12,-22.25 -9.12,-37.17 0,-20.04 4.77,-36.9 14.31,-50.51 9.53,-13.68 22.45,-23.98 38.76,-31.03 16.3,-6.97 34.41,-10.5 54.31,-10.5 13.82,0 26.87,1.52 39.17,4.56 12.3,3.04 23.84,7.05 34.62,12.03 10.78,4.97 20.45,10.36 29.02,16.16l-25.29 46.44zm78.77 217.23l0 -294.34 124.78 0c13.55,0 25.98,2.76 37.32,8.29 11.33,5.52 21.21,12.99 29.64,22.38 8.43,9.4 14.99,19.9 19.69,31.51 4.7,11.61 7.05,23.49 7.05,35.65 0,16.59 -3.87,32.34 -11.61,47.26 -7.74,14.93 -18.38,27.09 -31.92,36.49 -13.55,9.39 -29.58,14.09 -48.09,14.09l-69.65 0 0 98.67 -57.21 0zm57.21 -148.83l66.33 0c6.91,0 13.13,-1.94 18.66,-5.8 5.52,-3.87 9.95,-9.47 13.26,-16.79 3.32,-7.33 4.98,-15.69 4.98,-25.09 0,-10.22 -1.87,-18.93 -5.6,-26.11 -3.73,-7.19 -8.57,-12.58 -14.51,-16.17 -5.94,-3.6 -12.37,-5.39 -19.28,-5.39l-63.84 0 0 95.35zm201.07 148.83l0 -294.34 57.21 0 0 294.34 -57.21 0zm118.57 0l0 -294.34 130.17 0c13.55,0 26.05,2.76 37.52,8.29 11.47,5.52 21.42,12.99 29.85,22.38 8.43,9.4 14.93,19.9 19.49,31.51 4.56,11.61 6.84,23.49 6.84,35.65 0,12.44 -2.15,24.39 -6.43,35.86 -4.28,11.47 -10.43,21.49 -18.45,30.06 -8.01,8.57 -17.41,15.2 -28.19,19.9l67.16 110.69 -63.01 0 -60.53 -98.67 -57.21 0 0 98.67 -57.21 0zm57.21 -148.83l71.72 0c7.19,0 13.54,-2.14 19.07,-6.43 5.53,-4.28 9.95,-10.02 13.27,-17.2 3.31,-7.19 4.97,-15.2 4.97,-24.05 0,-9.39 -1.93,-17.62 -5.8,-24.66 -3.87,-7.05 -8.78,-12.65 -14.72,-16.79 -5.94,-4.15 -12.37,-6.22 -19.28,-6.22l-69.23 0 0 95.35zm422.86 98.67l0 50.16 -204.38 0 0 -294.34 200.65 0 0 50.16 -143.44 0 0 70.89 123.96 0 0 46.43 -123.96 0 0 76.7 147.17 0zm38.15 50.16l0 -59.7 45.6 0 0 59.7 -45.6 0z"/>
  </g>
 </g>
</svg>
