<?xml version="1.0" encoding="UTF-8"?>
<!DOCTYPE svg PUBLIC "-//W3C//DTD SVG 1.1//EN" "http://www.w3.org/Graphics/SVG/1.1/DTD/svg11.dtd">
<!-- Creator: CorelDRAW (OEM Version) -->
<svg xmlns="http://www.w3.org/2000/svg" xml:space="preserve" width="21.6747mm" height="21.6747mm" version="1.1" style="shape-rendering:geometricPrecision; text-rendering:geometricPrecision; image-rendering:optimizeQuality; fill-rule:evenodd; clip-rule:evenodd"
viewBox="0 0 24.03 24.03"
 xmlns:xlink="http://www.w3.org/1999/xlink"
 xmlns:xodm="http://www.corel.com/coreldraw/odm/2003">
 <defs>
  <style type="text/css">
   <![CDATA[
    .str0 {stroke:black;stroke-width:0.19;stroke-miterlimit:2.61313}
    .fil3 {fill:none}
    .fil2 {fill:#EF2061}
    .fil4 {fill:#FDBC15}
    .fil0 {fill:#FDFCFC}
    .fil1 {fill:black;fill-rule:nonzero}
   ]]>
  </style>
 </defs>
 <g id="Layer_x0020_1">
  <metadata id="CorelCorpID_0Corel-Layer"/>
  <rect class="fil0" x="-0" width="24.03" height="24.03" rx="5.25" ry="5.25"/>
  <g id="_2237273105520">
   <path class="fil1" d="M16.16 3.17l0.01 3.18 0.18 -0.03c0.17,-0.02 0.33,0.05 0.42,0.18l0 0 0.62 0.89c0.06,0.08 0.09,0.18 0.08,0.28l0.01 2.44c0,0.22 -0.16,0.4 -0.37,0.43l0 0 -0.93 0.14 0 1.32c0,0.22 -0.16,0.4 -0.37,0.43l0 0 -2.79 0.47c-0.17,0.03 -0.34,-0.05 -0.43,-0.18l-0.62 -0.88c-0.06,-0.08 -0.09,-0.18 -0.08,-0.28l-0 -0.22 -1.97 0.3 0 0.89c0,0.22 -0.16,0.4 -0.37,0.43l0 0 -6.53 1.09c-0.17,0.03 -0.34,-0.05 -0.43,-0.18l-0.62 -0.88c-0.06,-0.09 -0.09,-0.19 -0.08,-0.28l0.02 -2.6c0,-0.13 0.06,-0.25 0.15,-0.33l-0 -0 1.21 -1.08 -0.5 0.09c-0.18,0.03 -0.36,-0.05 -0.45,-0.2l-0.61 -0.87c-0.04,-0.06 -0.06,-0.12 -0.07,-0.18 -0.11,-0.52 -0.11,-1.11 0.01,-1.67 0.12,-0.57 0.34,-1.12 0.66,-1.55 0.39,-0.53 0.92,-0.94 1.51,-1.22 0.67,-0.33 1.41,-0.51 2.11,-0.58 0.46,-0.04 0.98,0.01 1.46,0.17 0.46,0.14 0.89,0.38 1.21,0.69 0.06,0.06 0.12,0.12 0.17,0.18 0.06,0.06 0.1,0.13 0.15,0.19 0.21,0.3 0.41,0.59 0.62,0.89 0.09,0.13 0.16,0.26 0.23,0.4l1.54 -2.44c0.07,-0.11 0.18,-0.18 0.3,-0.2l-0 -0 3.41 -0.57c0.17,-0.03 0.34,0.05 0.43,0.18l0.62 0.88c0.06,0.08 0.09,0.18 0.08,0.28z"/>
   <path class="fil2" d="M12.34 11.59l2.79 -0.47 -0 -1.7 1.3 -0.2 -0.01 -2.47 -1.3 0.18 -0.01 -4.69 -3.41 0.57 -3.19 5.05 0.01 2.55 3.83 -0.58 0.01 1.74zm-1.41 -4.06l1.4 -2.21 0.01 2.01 -1.4 0.2z"/>
   <path class="fil3 str0" d="M14.66 2.81l0 -0c-0,0 -0,0 -0,0z"/>
   <path class="fil3 str0" d="M14.65 2.79c0,-0 0,-0.01 0,-0.01 0,0 0,0 0,0 0,0 0,0 0,0 0,0 0,0 0,0l-0.01 -0z"/>
   <path class="fil3 str0" d="M14.65 2.79l0 0c0,0 0,0 0,0 -0,0 -0,0 -0,0 -0,0 -0,-0 -0,-0z"/>
   <path class="fil2" d="M8.87 9.18l0.01 2.47 -6.53 1.09 0.02 -2.63 3.02 -2.69c0.39,-0.33 1.04,-1.08 0.64,-1.6 -0.27,-0.35 -0.76,-0.22 -1.04,0.06 -0.33,0.33 -0.35,0.7 -0.31,1.14l-2.58 0.46c-0.21,-0.93 0.03,-2.12 0.59,-2.89 0.75,-1.02 2.09,-1.51 3.31,-1.62 0.77,-0.07 1.76,0.19 2.32,0.73 0.54,0.53 0.7,1.2 0.72,1.93 0,0 0.26,1.89 -2.92,3.99l2.77 -0.43z"/>
   <path class="fil1" d="M14.57 12.03c0.45,-0.54 1.17,-0.9 1.91,-1.02 0.73,-0.11 1.49,0 2.07,0.41 0.04,0.03 0.08,0.07 0.11,0.11l0 -0 0.62 0.89c0.06,0.09 0.09,0.19 0.08,0.29l-0.03 1.32c-0,0.16 -0.09,0.3 -0.23,0.37l0 0c-0,0 -0,0 -0.01,0 -0.04,0.02 -0.08,0.04 -0.13,0.04 -0.08,0.02 -0.18,0.05 -0.29,0.07l0.42 0.6c0.01,0.01 0.02,0.03 0.03,0.04 0,0.01 0.02,0.02 0.03,0.05 0,0.01 0.01,0.02 0.03,0.05 0.02,0.04 0.02,0.04 0.03,0.05 0.14,0.26 0.22,0.54 0.23,0.83 0.01,0.3 -0.03,0.6 -0.14,0.89 -0.16,0.44 -0.44,0.83 -0.8,1.14 -0.36,0.31 -0.81,0.54 -1.3,0.67 -0.26,0.07 -0.55,0.1 -0.84,0.1 -0.3,0 -0.59,-0.03 -0.85,-0.1 -0.29,-0.07 -0.51,-0.16 -0.72,-0.27 -0.16,-0.09 -0.31,-0.18 -0.44,-0.29 -0.06,0.07 -0.12,0.15 -0.19,0.22 -0.26,0.27 -0.56,0.49 -0.9,0.64 -0.13,0.06 -0.28,0.1 -0.44,0.13 -0.15,0.03 -0.3,0.04 -0.45,0.03 -0.05,-0 -0.09,-0.01 -0.13,-0.01l-0.11 2.03c-0.01,0.2 -0.15,0.36 -0.33,0.4l-1.84 0.48c-0.18,0.05 -0.37,-0.03 -0.47,-0.17l0 0 -0.62 -0.89c-0.06,-0.09 -0.09,-0.19 -0.08,-0.28l-0 -0 0.04 -0.53c-0.06,0.08 -0.15,0.14 -0.25,0.16l-1.92 0.5c-0.18,0.05 -0.37,-0.03 -0.47,-0.17l-0 0 -0.62 -0.89c-0.06,-0.09 -0.09,-0.19 -0.08,-0.29l0.18 -2.86c-0.04,-0.03 -0.07,-0.07 -0.1,-0.11l-0.61 -0.87c-0.06,-0.09 -0.09,-0.19 -0.08,-0.29l0.09 -1.47c0.01,-0.21 0.17,-0.37 0.37,-0.41l0.53 -0.11c0.07,-0.62 0.29,-1.14 0.62,-1.54 0.42,-0.5 1.01,-0.82 1.73,-0.95 0.2,-0.04 0.57,-0.06 0.89,-0.04 0.28,0.02 0.55,0.07 0.73,0.18 0.05,0.04 0.1,0.08 0.13,0.13l0.47 0.67 0.94 -0.17c0.18,-0.03 0.36,0.05 0.45,0.2l0.02 0.02c0.27,-0.15 0.58,-0.26 0.89,-0.28 0.38,-0.03 0.77,0.05 1.1,0.28 0.08,0.06 0.15,0.12 0.22,0.18 0.06,0.06 0.13,0.14 0.19,0.22l0.02 0.03c0.03,-0.06 0.07,-0.11 0.1,-0.17 0.06,-0.09 0.13,-0.18 0.21,-0.27z"/>
   <path class="fil0" d="M12.08 14.06c-0.38,0.07 -0.56,0.56 -0.62,0.98 -0.06,0.43 -0.05,1.16 0.46,1.09 0.37,-0.05 0.61,-0.64 0.65,-1.18 0.03,-0.5 -0.11,-0.96 -0.49,-0.89zm3.4 1.4l-0.94 0.15 -0.62 1.36c0.31,0.24 0.6,0.43 1.09,0.55 0.45,0.11 1.03,0.11 1.48,-0.01 0.85,-0.23 1.53,-0.78 1.79,-1.53 0.16,-0.46 0.16,-0.95 -0.07,-1.36 -0.52,-0.93 -2.01,-0.79 -2.03,-1.26 -0.01,-0.21 0.22,-0.36 0.44,-0.38 0.36,-0.04 0.41,0.18 0.45,0.39 0.07,0 1.15,-0.21 1.2,-0.24l0.03 -1.35c-0.97,-0.68 -2.64,-0.38 -3.38,0.53 -0.14,0.16 -0.24,0.3 -0.35,0.53 -0.2,0.43 -0.26,0.96 -0.04,1.39 0.18,0.37 0.54,0.58 1.01,0.73 0.35,0.12 1.18,0.27 0.97,0.7 -0.15,0.31 -1.02,0.47 -1.03,-0.21zm-9.19 -1.55l-0.88 0.18 -0.09 1.47 0.88 -0.17 -0.27 4.3 1.94 -0.51 0.28 -4.18 1.2 -0.25 0.09 -1.38 -1.23 0.21c0.02,-0.34 0.12,-0.55 0.37,-0.66 0.42,-0.17 0.7,-0 0.86,-0l0.17 -1.37c-0.24,-0.16 -1,-0.13 -1.3,-0.08 -1.2,0.22 -1.98,1.03 -2.02,2.43zm5.13 -0.89l0.05 -0.76 -1.66 0.29 -0.56 8.34 1.84 -0.49 0.15 -2.66c0.1,0.08 0.24,0.22 0.56,0.24 0.24,0.01 0.5,-0.04 0.68,-0.13 1.08,-0.49 1.67,-1.77 1.79,-2.99 0.11,-1.04 -0.05,-2 -0.69,-2.46 -0.49,-0.35 -1.22,-0.21 -1.69,0.15 -0.18,0.14 -0.32,0.31 -0.47,0.47z"/>
   <path class="fil1" d="M19.66 10.83c0.33,-0.1 0.66,-0.1 0.96,-0.02 0.31,0.09 0.6,0.27 0.82,0.52 0.03,0.04 0.06,0.08 0.09,0.12 0.03,0.04 0.05,0.08 0.07,0.11l0.55 0.77c0.05,0.07 0.1,0.15 0.13,0.22l-0 0c0.04,0.08 0.07,0.16 0.1,0.24 0.14,0.44 0.09,0.89 -0.1,1.27 -0.2,0.38 -0.54,0.69 -0.98,0.83 -0.33,0.11 -0.66,0.1 -0.96,0.02 -0.31,-0.09 -0.59,-0.28 -0.79,-0.54 -0.01,-0.01 -0.02,-0.03 -0.05,-0.06 -0.02,-0.03 -0.04,-0.05 -0.05,-0.06 -0.02,-0.02 0.01,0.02 -0.01,-0.02l-0 0 -0 0 -0.56 -0.8 0 -0c-0.05,-0.07 -0.1,-0.15 -0.14,-0.23 -0.04,-0.09 -0.08,-0.17 -0.11,-0.27 -0.14,-0.44 -0.1,-0.89 0.08,-1.28 0.18,-0.38 0.51,-0.69 0.95,-0.83z"/>
   <path class="fil4" d="M19.79 11.25c0.65,-0.21 1.34,0.15 1.55,0.8 0.21,0.65 -0.15,1.34 -0.8,1.55 -0.65,0.21 -1.29,-0.15 -1.5,-0.8 -0.21,-0.65 0.09,-1.34 0.74,-1.55z"/>
  </g>
 </g>
</svg>
