<?xml version="1.0" encoding="UTF-8"?>
<!DOCTYPE svg PUBLIC "-//W3C//DTD SVG 1.1//EN" "http://www.w3.org/Graphics/SVG/1.1/DTD/svg11.dtd">
<!-- Creator: CorelDRAW (OEM Version) -->
<svg xmlns="http://www.w3.org/2000/svg" xml:space="preserve" width="157.633mm" height="66.6895mm" version="1.1" style="shape-rendering:geometricPrecision; text-rendering:geometricPrecision; image-rendering:optimizeQuality; fill-rule:evenodd; clip-rule:evenodd"
viewBox="0 0 2772.45 1172.94"
 xmlns:xlink="http://www.w3.org/1999/xlink"
 xmlns:xodm="http://www.corel.com/coreldraw/odm/2003">
 <defs>
  <style type="text/css">
   <![CDATA[
    .str0 {stroke:black;stroke-width:2.98;stroke-miterlimit:2.61313}
    .fil0 {fill:black}
    .fil3 {fill:black;fill-rule:nonzero}
    .fil2 {fill:#E9295D;fill-rule:nonzero}
    .fil4 {fill:#FDBC15;fill-rule:nonzero}
    .fil1 {fill:white;fill-rule:nonzero}
   ]]>
  </style>
 </defs>
 <g id="Layer_x0020_1">
  <metadata id="CorelCorpID_0Corel-Layer"/>
  <g id="_2237273470224">
   <path class="fil0 str0" d="M298.4 952.77l2175.65 0c23.78,0 43.24,19.46 43.24,43.24l0 132.2c0,23.78 -19.46,43.24 -43.24,43.24l-2175.65 0c-23.78,0 -43.24,-19.46 -43.24,-43.24l0 -132.2c0,-23.78 19.46,-43.24 43.24,-43.24z"/>
   <path class="fil1" d="M344.04 1120.23l0 -114.62 41.65 0c12.49,0 22.92,2.56 31.32,7.67 8.39,5.11 14.69,12 18.89,20.66 4.2,8.66 6.3,18.27 6.3,28.82 0,11.62 -2.31,21.74 -6.94,30.35 -4.63,8.61 -11.17,15.28 -19.62,20.02 -8.45,4.74 -18.43,7.1 -29.95,7.1l-41.65 0zm75.72 -57.47c0,-7.43 -1.35,-13.96 -4.04,-19.62 -2.69,-5.65 -6.57,-10.06 -11.62,-13.24 -5.06,-3.17 -11.19,-4.76 -18.4,-4.76l-19.37 0 0 75.55 19.37 0c7.32,0 13.51,-1.64 18.57,-4.92 5.06,-3.28 8.91,-7.8 11.54,-13.56 2.64,-5.76 3.96,-12.24 3.96,-19.45zm119.47 37.94l0 19.54 -79.59 0 0 -114.62 78.14 0 0 19.54 -55.86 0 0 27.61 48.27 0 0 18.08 -48.27 0 0 29.87 57.31 0zm8.39 -38.74c0,-7 1.27,-13.86 3.8,-20.58 2.53,-6.73 6.21,-12.86 11.06,-18.4 4.84,-5.54 10.76,-9.96 17.76,-13.24 7,-3.28 14.96,-4.92 23.89,-4.92 10.55,0 19.67,2.31 27.36,6.94 7.7,4.63 13.43,10.65 17.19,18.08l-17.11 11.78c-1.94,-4.3 -4.47,-7.72 -7.59,-10.25 -3.12,-2.53 -6.46,-4.31 -10.01,-5.33 -3.55,-1.02 -7.05,-1.53 -10.49,-1.53 -5.6,0 -10.47,1.13 -14.61,3.39 -4.14,2.26 -7.62,5.22 -10.41,8.88 -2.8,3.66 -4.87,7.75 -6.22,12.27 -1.34,4.52 -2.02,9.04 -2.02,13.56 0,5.06 0.81,9.93 2.42,14.61 1.61,4.68 3.9,8.83 6.86,12.43 2.96,3.61 6.51,6.46 10.65,8.56 4.14,2.1 8.69,3.15 13.64,3.15 3.55,0 7.16,-0.59 10.82,-1.78 3.66,-1.18 7.05,-3.07 10.17,-5.65 3.12,-2.58 5.54,-5.92 7.27,-10.01l18.24 10.49c-2.26,5.7 -5.95,10.55 -11.06,14.53 -5.11,3.98 -10.84,6.99 -17.19,9.04 -6.35,2.05 -12.65,3.07 -18.89,3.07 -8.18,0 -15.66,-1.7 -22.44,-5.08 -6.78,-3.39 -12.62,-7.91 -17.52,-13.56 -4.9,-5.65 -8.72,-12 -11.46,-19.05 -2.74,-7.05 -4.12,-14.18 -4.12,-21.39zm165.16 59.09c-8.39,0 -16.01,-1.61 -22.84,-4.84 -6.83,-3.23 -12.7,-7.61 -17.6,-13.16 -4.9,-5.54 -8.69,-11.78 -11.38,-18.73 -2.69,-6.94 -4.04,-14.07 -4.04,-21.39 0,-7.64 1.43,-14.93 4.28,-21.88 2.85,-6.94 6.78,-13.13 11.79,-18.57 5,-5.43 10.92,-9.74 17.76,-12.91 6.83,-3.17 14.34,-4.76 22.52,-4.76 8.29,0 15.85,1.67 22.68,5.01 6.83,3.34 12.67,7.8 17.52,13.4 4.84,5.6 8.61,11.84 11.3,18.73 2.69,6.89 4.04,13.99 4.04,21.31 0,7.53 -1.4,14.77 -4.2,21.71 -2.8,6.94 -6.7,13.13 -11.7,18.57 -5.01,5.43 -10.92,9.71 -17.76,12.83 -6.83,3.12 -14.29,4.68 -22.36,4.68zm-33.26 -58.12c0,4.95 0.75,9.74 2.26,14.37 1.51,4.63 3.69,8.74 6.54,12.35 2.85,3.61 6.35,6.46 10.49,8.56 4.14,2.1 8.85,3.15 14.13,3.15 5.38,0 10.17,-1.1 14.37,-3.31 4.2,-2.21 7.69,-5.17 10.49,-8.88 2.8,-3.71 4.92,-7.86 6.38,-12.43 1.45,-4.57 2.18,-9.18 2.18,-13.8 0,-4.95 -0.78,-9.71 -2.34,-14.29 -1.56,-4.57 -3.77,-8.66 -6.62,-12.27 -2.85,-3.61 -6.35,-6.46 -10.49,-8.56 -4.14,-2.1 -8.8,-3.15 -13.96,-3.15 -5.49,0 -10.31,1.1 -14.45,3.31 -4.14,2.21 -7.61,5.14 -10.41,8.8 -2.8,3.66 -4.92,7.75 -6.38,12.27 -1.45,4.52 -2.18,9.15 -2.18,13.88zm106.39 57.31l0 -114.62 41.65 0c12.49,0 22.92,2.56 31.32,7.67 8.39,5.11 14.69,12 18.89,20.66 4.2,8.66 6.3,18.27 6.3,28.82 0,11.62 -2.31,21.74 -6.94,30.35 -4.63,8.61 -11.17,15.28 -19.62,20.02 -8.45,4.74 -18.43,7.1 -29.95,7.1l-41.65 0zm75.72 -57.47c0,-7.43 -1.35,-13.96 -4.04,-19.62 -2.69,-5.65 -6.57,-10.06 -11.62,-13.24 -5.06,-3.17 -11.19,-4.76 -18.4,-4.76l-19.37 0 0 75.55 19.37 0c7.32,0 13.51,-1.64 18.57,-4.92 5.06,-3.28 8.91,-7.8 11.54,-13.56 2.64,-5.76 3.96,-12.24 3.96,-19.45zm119.47 37.94l0 19.54 -79.59 0 0 -114.62 78.14 0 0 19.54 -55.86 0 0 27.61 48.27 0 0 18.08 -48.27 0 0 29.87 57.31 0zm159.83 -95.09l22.6 0 42.14 114.62 -22.92 0 -9.53 -28.58 -42.08 0 -9.58 28.58 -22.92 0 42.3 -114.62zm27.07 70.39l-15.77 -47.3 -15.85 47.3 31.61 0zm72.54 -29.38l0 73.62 -22.28 0 0 -114.62 17.76 0 59.25 75.55 0 -75.39 22.28 0 0 114.46 -18.57 0 -58.44 -73.62zm100.9 73.62l0 -114.62 22.28 0 0 114.62 -22.28 0zm139.65 0l0 -75.23 -29.38 56.02 -12.43 0 -29.38 -56.02 0 75.23 -22.28 0 0 -114.62 23.89 0 33.9 65.22 34.23 -65.22 23.73 0 0 114.62 -22.28 0zm77.33 -114.62l22.6 0 42.14 114.62 -22.92 0 -9.53 -28.58 -42.08 0 -9.58 28.58 -22.92 0 42.3 -114.62zm27.07 70.39l-15.77 -47.3 -15.85 47.3 31.61 0zm125.33 -50.85l-36.65 0 0 95.09 -22.12 0 0 -95.09 -36.65 0 0 -19.54 95.41 0 0 19.54zm14.21 95.09l0 -114.62 22.28 0 0 114.62 -22.28 0zm95.09 0.81c-8.39,0 -16.01,-1.61 -22.84,-4.84 -6.83,-3.23 -12.7,-7.61 -17.6,-13.16 -4.9,-5.54 -8.69,-11.78 -11.38,-18.73 -2.69,-6.94 -4.04,-14.07 -4.04,-21.39 0,-7.64 1.43,-14.93 4.28,-21.88 2.85,-6.94 6.78,-13.13 11.79,-18.57 5,-5.43 10.92,-9.74 17.76,-12.91 6.83,-3.17 14.34,-4.76 22.52,-4.76 8.29,0 15.85,1.67 22.68,5.01 6.83,3.34 12.67,7.8 17.52,13.4 4.84,5.6 8.61,11.84 11.3,18.73 2.69,6.89 4.04,13.99 4.04,21.31 0,7.53 -1.4,14.77 -4.2,21.71 -2.8,6.94 -6.7,13.13 -11.7,18.57 -5.01,5.43 -10.92,9.71 -17.76,12.83 -6.83,3.12 -14.29,4.68 -22.36,4.68zm-33.26 -58.12c0,4.95 0.75,9.74 2.26,14.37 1.51,4.63 3.69,8.74 6.54,12.35 2.85,3.61 6.35,6.46 10.49,8.56 4.14,2.1 8.85,3.15 14.13,3.15 5.38,0 10.17,-1.1 14.37,-3.31 4.2,-2.21 7.69,-5.17 10.49,-8.88 2.8,-3.71 4.92,-7.86 6.38,-12.43 1.45,-4.57 2.18,-9.18 2.18,-13.8 0,-4.95 -0.78,-9.71 -2.34,-14.29 -1.56,-4.57 -3.77,-8.66 -6.62,-12.27 -2.85,-3.61 -6.35,-6.46 -10.49,-8.56 -4.14,-2.1 -8.8,-3.15 -13.96,-3.15 -5.49,0 -10.31,1.1 -14.45,3.31 -4.14,2.21 -7.61,5.14 -10.41,8.8 -2.8,3.66 -4.92,7.75 -6.38,12.27 -1.45,4.52 -2.18,9.15 -2.18,13.88zm128.67 -16.31l0 73.62 -22.28 0 0 -114.62 17.76 0 59.25 75.55 0 -75.39 22.28 0 0 114.46 -18.57 0 -58.44 -73.62zm217.14 73.62l0 -114.62 22.28 0 0 95.09 58.44 0 0 19.54 -80.72 0zm125.44 -114.62l22.6 0 42.14 114.62 -22.92 0 -9.53 -28.58 -42.08 0 -9.58 28.58 -22.92 0 42.3 -114.62zm27.07 70.39l-15.77 -47.3 -15.85 47.3 31.61 0zm142.61 14.69c0,6.46 -1.67,11.87 -5,16.22 -3.34,4.36 -7.83,7.67 -13.48,9.93 -5.65,2.26 -11.81,3.39 -18.49,3.39l-55.37 0 0 -114.62 61.35 0c5.38,0 10.04,1.43 13.96,4.28 3.93,2.85 6.94,6.51 9.04,10.98 2.1,4.47 3.15,9.12 3.15,13.96 0,5.49 -1.4,10.71 -4.2,15.66 -2.8,4.95 -6.89,8.61 -12.27,10.98 6.57,1.94 11.76,5.44 15.58,10.49 3.82,5.06 5.73,11.3 5.73,18.73zm-22.44 -4.2c0,-2.91 -0.59,-5.52 -1.78,-7.83 -1.18,-2.31 -2.77,-4.14 -4.76,-5.49 -1.99,-1.35 -4.28,-2.02 -6.86,-2.02l-34.23 0 0 30.19 33.1 0c2.69,0 5.14,-0.67 7.35,-2.02 2.21,-1.35 3.96,-3.15 5.25,-5.41 1.29,-2.26 1.94,-4.73 1.94,-7.43zm-47.63 -61.83l0 28.9 29.71 0c2.47,0 4.73,-0.59 6.78,-1.78 2.05,-1.18 3.69,-2.85 4.92,-5 1.24,-2.15 1.86,-4.74 1.86,-7.75 0,-2.91 -0.56,-5.44 -1.7,-7.59 -1.13,-2.15 -2.64,-3.82 -4.52,-5 -1.88,-1.18 -4.01,-1.78 -6.38,-1.78l-30.68 0z"/>
  </g>
  <g id="_2237273474352">
   <path class="fil2" d="M-0 668.4l520.08 0 0 -148.33 -271.3 0 112.65 -78.86c97.63,-70.41 152.08,-124.86 152.08,-230l0 -1.88c0,-123.92 -98.57,-209.35 -242.2,-209.35 -127.67,0 -197.14,49.75 -267.55,140.82l122.98 102.33c51.63,-59.14 86.37,-84.49 130.49,-84.49 44.12,0 73.22,25.35 73.22,66.65 0,39.43 -23.47,70.41 -84.49,118.28l-245.96 187.75 0 137.06zm901.22 0l176.49 0 0 -127.67 83.55 0 0 -136.12 -83.55 0 0 -398.04 -184 0 -340.77 405.55 30.04 128.61 318.24 0 0 127.67zm-156.77 -262.85l156.77 -188.69 0 188.69 -156.77 0z"/>
   <path class="fil3" d="M1437.79 89.86c16.63,-1.07 33.66,-0.54 51.1,1.61 17.43,2.15 35.67,7.11 54.72,14.89 19.04,7.78 35.54,18.11 49.49,30.98 13.95,12.87 25.08,30.44 33.39,52.7 8.32,22.26 11.67,47.88 10.06,76.84 -0.54,8.05 -19.85,13.14 -57.93,15.29 -38.09,2.15 -59.28,-0.54 -63.57,-8.05 -2.15,-3.76 -6.17,-14.89 -12.07,-33.39 -5.9,-18.51 -11.8,-31.65 -17.7,-39.43 -5.9,-7.78 -12.61,-7.38 -20.12,1.21 -6.44,6.44 -11.27,15.02 -14.48,25.75 -3.22,10.73 -4.83,21.32 -4.83,31.79 0,10.46 0.4,20.38 1.21,29.77 0.81,9.39 2.01,17.03 3.62,22.93l1.61 8.85c2.68,0 6.3,-0.14 10.86,-0.4 4.56,-0.27 12.87,-0.81 24.95,-1.61 12.07,-0.81 22.93,-1.48 32.59,-2.01 9.66,-0.54 19.04,-1.07 28.16,-1.61 9.12,-0.54 15.02,-0.54 17.7,0 6.97,0.54 9.92,23.87 8.85,70.01 -1.07,46.13 -5.63,69.47 -13.68,70 -15.56,0 -31.25,-0.13 -47.07,-0.4 -15.83,-0.27 -27.76,-0.94 -35.81,-2.01l-12.07 -0.81c0,0 5.1,51.77 15.29,155.3 1.61,25.21 1.61,38.89 0,41.04 -3.76,5.9 -35.54,8.99 -95.35,9.25 -59.81,0.27 -91.06,-3.35 -93.74,-10.86 4.83,-75.1 7.78,-141.35 8.85,-198.75 -2.15,0.54 -5.1,0.94 -8.85,1.21 -3.76,0.27 -11.13,1.07 -22.13,2.41 -11,1.34 -20.12,2.15 -27.36,2.41 -7.24,0.27 -15.56,0.67 -24.94,1.21 -9.39,0.54 -14.35,0.54 -14.89,0 -5.36,-1.61 -9.12,-24.81 -11.27,-69.6 -2.15,-44.79 -0.54,-68.53 4.83,-71.21 1.07,-0.54 5.5,-0.94 13.28,-1.21 7.78,-0.27 16.76,-0.13 26.96,0.4 10.19,0.54 20.38,0.94 30.58,1.21 10.19,0.27 18.78,0.67 25.75,1.21l10.46 0c0,-3.76 -0.13,-8.72 -0.4,-14.89 -0.27,-6.17 -0.67,-18.64 -1.21,-37.42 -0.54,-18.78 -0.54,-34.87 0,-48.28 0.54,-21.46 4.69,-40.23 12.47,-56.33 7.78,-16.09 16.63,-28.3 26.55,-36.61 9.92,-8.31 21.86,-15.15 35.81,-20.52 13.95,-5.36 25.08,-8.72 33.39,-10.06 8.31,-1.34 17.3,-2.28 26.96,-2.82zm502.11 151.27c60.62,0 106.08,18.64 136.39,55.92 30.31,37.28 45.46,89.72 45.46,157.31 0,31.65 -6.44,61.29 -19.31,88.91 -12.87,27.63 -29.1,50.43 -48.68,68.4 -19.58,17.97 -40.9,31.92 -63.97,41.84 -23.07,9.92 -45.33,14.89 -66.79,14.89 -11.27,0 -21.99,-0.81 -32.19,-2.41 -10.19,-1.61 -18.91,-3.62 -26.15,-6.03 -7.24,-2.41 -13.95,-5.1 -20.12,-8.05 -6.17,-2.95 -11.13,-5.77 -14.89,-8.45 -3.76,-2.68 -6.97,-5.23 -9.66,-7.64 -2.68,-2.41 -4.83,-4.43 -6.44,-6.03l-1.61 -1.61 12.87 238.18c-8.58,6.44 -35.67,10.19 -81.27,11.27 -45.6,1.07 -72.96,-1.34 -82.07,-7.24 -6.97,-6.44 -10.19,-107.29 -9.66,-302.55 0.54,-195.26 2.68,-296.38 6.44,-303.35 2.68,-5.36 16.5,-9.25 41.44,-11.67 24.95,-2.41 49.49,-2.95 73.63,-1.61 24.14,1.34 36.74,3.89 37.82,7.64 0.54,2.68 0.81,5.9 0.81,9.66 0,3.76 0,6.71 0,8.85l-0.81 3.22c0.54,-1.07 1.61,-2.55 3.22,-4.43 1.61,-1.88 5.63,-5.1 12.07,-9.66 6.44,-4.56 13.95,-8.58 22.53,-12.07 8.58,-3.49 20.92,-6.57 37.01,-9.25 16.09,-2.68 34.06,-4.02 53.91,-4.02zm-26.55 290.48c7.51,-9.12 12.61,-27.09 15.29,-53.91 2.68,-26.82 1.88,-52.57 -2.41,-77.25 -4.29,-24.68 -11.8,-38.36 -22.53,-41.04 -13.41,-2.68 -25.21,-3.22 -35.4,-1.61 -10.19,1.61 -19.04,4.83 -26.55,9.66 -7.51,4.83 -13.68,9.79 -18.51,14.89 -4.83,5.1 -8.32,9.52 -10.46,13.28l-4.02 6.44 0 111.85c1.07,1.07 2.41,2.41 4.02,4.02 1.61,1.61 4.83,4.43 9.66,8.45 4.83,4.02 9.66,7.51 14.49,10.46 4.83,2.95 10.73,5.9 17.7,8.85 6.97,2.95 13.54,4.56 19.71,4.83 6.17,0.27 12.74,-1.07 19.71,-4.02 6.97,-2.95 13.41,-7.91 19.31,-14.88zm453.02 -126.33c3.22,1.07 8.85,2.41 16.9,4.02 14.48,3.76 25.75,6.84 33.8,9.25 8.05,2.41 19.58,6.44 34.6,12.07 15.02,5.63 27.09,11.13 36.21,16.5 9.12,5.36 19.18,12.61 30.18,21.73 11,9.12 19.31,18.91 24.94,29.37 5.63,10.46 9.92,23.2 12.87,38.22 2.95,15.02 3.08,31.11 0.4,48.28 -3.22,22.53 -18.11,41.31 -44.66,56.33 -26.55,15.02 -58.47,24.94 -95.75,29.77 -37.28,4.83 -75.37,7.24 -114.26,7.24 -38.89,0 -73.63,-2.68 -104.2,-8.05 -30.58,-5.36 -51.23,-11.53 -61.96,-18.51 -2.68,-5.36 -3.62,-17.43 -2.82,-36.21 0.81,-18.78 3.62,-38.22 8.45,-58.34 4.83,-20.12 9.39,-29.64 13.68,-28.56 4.29,1.07 12.34,3.62 24.14,7.64 11.8,4.02 22.8,7.64 32.99,10.86 10.19,3.22 21.99,6.3 35.4,9.25 13.41,2.95 25.21,4.69 35.4,5.23 12.34,1.07 23.87,1.48 34.6,1.21 10.73,-0.27 20.12,-0.94 28.16,-2.01 8.05,-1.07 14.08,-3.22 18.1,-6.44 4.02,-3.22 5.23,-7.51 3.62,-12.87 -1.07,-3.76 -2.82,-7.24 -5.23,-10.46 -2.41,-3.22 -5.77,-6.17 -10.06,-8.85 -4.29,-2.68 -8.72,-5.23 -13.28,-7.65 -4.56,-2.41 -10.86,-5.1 -18.91,-8.05 -8.05,-2.95 -15.42,-5.5 -22.13,-7.64 -6.7,-2.15 -16.09,-5.23 -28.16,-9.25 -12.07,-4.02 -22.67,-7.91 -31.79,-11.67 -37.55,-13.41 -63.03,-37.01 -76.44,-70.81 -14.48,-37.01 -8.32,-71.08 18.51,-102.19 41.31,-48.28 117.75,-69.74 229.33,-64.37 32.72,1.61 67.86,5.63 105.41,12.07 4.29,0.54 6.84,6.97 7.64,19.31 0.81,12.34 0.27,25.61 -1.61,39.83 -1.88,14.21 -5.1,26.96 -9.66,38.22 -4.56,11.27 -9.52,16.63 -14.89,16.09 -13.41,-1.61 -28.7,-4.29 -45.86,-8.05 -17.17,-3.76 -30.44,-6.84 -39.83,-9.25 -9.39,-2.41 -20.12,-4.16 -32.19,-5.23 -12.07,-1.07 -19.71,0 -22.93,3.22 -10.19,4.83 -13.95,15.02 -11.27,30.58 2.68,15.56 10.19,24.95 22.53,28.16z"/>
   <path class="fil4" d="M2745.09 644.8c-18.24,18.6 -40.41,27.89 -66.52,27.89 -26.11,0 -48.28,-9.3 -66.52,-27.89 -18.24,-18.6 -27.36,-40.77 -27.36,-66.52 0,-25.75 9.12,-47.92 27.36,-66.52 18.24,-18.6 40.41,-27.89 66.52,-27.89 26.11,0 48.28,9.3 66.52,27.89 18.24,18.6 27.36,40.77 27.36,66.52 0,25.75 -9.12,47.92 -27.36,66.52z"/>
  </g>
 </g>
</svg>
