<?xml version="1.0" encoding="UTF-8"?>
<!DOCTYPE svg PUBLIC "-//W3C//DTD SVG 1.1//EN" "http://www.w3.org/Graphics/SVG/1.1/DTD/svg11.dtd">
<!-- Creator: CorelDRAW (OEM Version) -->
<svg xmlns="http://www.w3.org/2000/svg" xml:space="preserve" width="16.397mm" height="6.7037mm" version="1.1" style="shape-rendering:geometricPrecision; text-rendering:geometricPrecision; image-rendering:optimizeQuality; fill-rule:evenodd; clip-rule:evenodd"
viewBox="0 0 231.85 94.79"
 xmlns:xlink="http://www.w3.org/1999/xlink"
 xmlns:xodm="http://www.corel.com/coreldraw/odm/2003">
 <defs>
  <style type="text/css">
   <![CDATA[
    .fil0 {fill:black;fill-rule:nonzero}
    .fil1 {fill:black;fill-rule:nonzero}
    .fil2 {fill:#E9295D;fill-rule:nonzero}
    .fil3 {fill:#FEC843;fill-rule:nonzero}
   ]]>
  </style>
 </defs>
 <g id="Layer_x0020_1">
  <metadata id="CorelCorpID_0Corel-Layer"/>
  <path class="fil0" d="M-0 94.61l0 -12.71 4.62 0c1.38,0 2.54,0.28 3.47,0.85 0.93,0.57 1.63,1.33 2.09,2.29 0.47,0.96 0.7,2.03 0.7,3.2 0,1.29 -0.26,2.41 -0.77,3.37 -0.51,0.95 -1.24,1.7 -2.17,2.22 -0.94,0.52 -2.04,0.79 -3.32,0.79l-4.62 0zm8.39 -6.37c0,-0.82 -0.15,-1.55 -0.45,-2.17 -0.3,-0.63 -0.73,-1.12 -1.29,-1.47 -0.56,-0.35 -1.24,-0.53 -2.04,-0.53l-2.15 0 0 8.38 2.15 0c0.81,0 1.5,-0.18 2.06,-0.55 0.56,-0.36 0.99,-0.87 1.28,-1.5 0.29,-0.64 0.44,-1.36 0.44,-2.16zm10.36 6.55c-0.75,0 -1.43,-0.13 -2.04,-0.38 -0.61,-0.25 -1.13,-0.6 -1.56,-1.04 -0.43,-0.44 -0.76,-0.95 -0.99,-1.52 -0.23,-0.57 -0.35,-1.17 -0.35,-1.81 0,-0.89 0.2,-1.69 0.6,-2.42 0.4,-0.73 0.97,-1.32 1.72,-1.76 0.75,-0.45 1.63,-0.67 2.64,-0.67 1.03,0 1.9,0.22 2.63,0.67 0.73,0.44 1.29,1.03 1.67,1.75 0.39,0.73 0.58,1.51 0.58,2.35 0,0.14 -0.01,0.29 -0.02,0.43 -0.01,0.15 -0.02,0.27 -0.04,0.36l-7.25 0c0.05,0.47 0.19,0.88 0.42,1.22 0.23,0.35 0.53,0.62 0.9,0.8 0.36,0.18 0.76,0.27 1.17,0.27 0.48,0 0.93,-0.12 1.35,-0.35 0.42,-0.23 0.71,-0.54 0.87,-0.92l2.06 0.57c-0.23,0.48 -0.55,0.9 -0.98,1.27 -0.42,0.37 -0.92,0.66 -1.49,0.87 -0.57,0.21 -1.21,0.31 -1.9,0.31zm-2.45 -5.57l4.9 0c-0.05,-0.47 -0.18,-0.87 -0.4,-1.22 -0.22,-0.34 -0.51,-0.61 -0.87,-0.8 -0.36,-0.19 -0.76,-0.29 -1.2,-0.29 -0.43,0 -0.82,0.1 -1.17,0.29 -0.35,0.19 -0.64,0.46 -0.86,0.8 -0.22,0.35 -0.35,0.75 -0.4,1.22zm15.01 5.57c-0.76,0 -1.45,-0.13 -2.06,-0.38 -0.61,-0.25 -1.13,-0.61 -1.56,-1.06 -0.43,-0.45 -0.76,-0.97 -0.99,-1.55 -0.23,-0.58 -0.35,-1.18 -0.35,-1.82 0,-0.87 0.2,-1.67 0.6,-2.4 0.4,-0.73 0.97,-1.31 1.71,-1.74 0.74,-0.44 1.62,-0.66 2.63,-0.66 1.01,0 1.88,0.22 2.61,0.66 0.73,0.44 1.27,1.02 1.63,1.74l-2.34 0.72c-0.2,-0.35 -0.47,-0.61 -0.81,-0.8 -0.33,-0.19 -0.7,-0.28 -1.11,-0.28 -0.45,0 -0.87,0.11 -1.24,0.34 -0.38,0.23 -0.67,0.55 -0.89,0.96 -0.21,0.42 -0.32,0.9 -0.32,1.45 0,0.54 0.11,1.01 0.33,1.43 0.22,0.41 0.52,0.74 0.89,0.98 0.37,0.24 0.78,0.36 1.24,0.36 0.29,0 0.56,-0.05 0.81,-0.14 0.26,-0.09 0.49,-0.23 0.69,-0.39 0.2,-0.17 0.35,-0.36 0.45,-0.57l2.34 0.72c-0.21,0.47 -0.53,0.88 -0.94,1.25 -0.41,0.37 -0.9,0.66 -1.45,0.87 -0.55,0.21 -1.18,0.31 -1.87,0.31zm11.79 0c-0.76,0 -1.45,-0.13 -2.06,-0.38 -0.61,-0.25 -1.12,-0.6 -1.55,-1.05 -0.42,-0.45 -0.75,-0.96 -0.98,-1.54 -0.23,-0.58 -0.34,-1.18 -0.34,-1.82 0,-0.65 0.11,-1.26 0.34,-1.84 0.23,-0.58 0.55,-1.09 0.98,-1.54 0.42,-0.45 0.94,-0.8 1.55,-1.05 0.61,-0.25 1.3,-0.38 2.06,-0.38 0.76,0 1.45,0.13 2.05,0.38 0.6,0.25 1.12,0.6 1.55,1.05 0.43,0.45 0.75,0.96 0.98,1.54 0.22,0.58 0.33,1.19 0.33,1.84 0,0.64 -0.11,1.24 -0.33,1.82 -0.22,0.58 -0.54,1.09 -0.97,1.54 -0.42,0.45 -0.94,0.8 -1.55,1.05 -0.61,0.25 -1.3,0.38 -2.06,0.38zm-2.45 -4.8c0,0.54 0.11,1.01 0.32,1.43 0.21,0.41 0.51,0.74 0.88,0.97 0.37,0.24 0.79,0.35 1.25,0.35 0.45,0 0.87,-0.12 1.24,-0.36 0.37,-0.24 0.66,-0.57 0.89,-0.98 0.22,-0.42 0.33,-0.89 0.33,-1.43 0,-0.53 -0.11,-1 -0.33,-1.42 -0.22,-0.42 -0.52,-0.75 -0.89,-0.98 -0.37,-0.23 -0.78,-0.35 -1.24,-0.35 -0.47,0 -0.88,0.12 -1.25,0.36 -0.37,0.24 -0.66,0.57 -0.88,0.98 -0.21,0.42 -0.32,0.89 -0.32,1.43zm10.22 -0.02c0,-0.9 0.18,-1.71 0.54,-2.43 0.36,-0.72 0.85,-1.3 1.49,-1.72 0.63,-0.43 1.35,-0.64 2.17,-0.64 0.69,0 1.31,0.17 1.87,0.51 0.55,0.34 0.99,0.77 1.3,1.3l0 -5.44 2.4 0 0 10.38c0,0.25 0.04,0.43 0.12,0.54 0.08,0.11 0.23,0.17 0.43,0.2l0 1.95c-0.42,0.08 -0.76,0.13 -1.02,0.13 -0.43,0 -0.78,-0.11 -1.07,-0.32 -0.28,-0.21 -0.44,-0.5 -0.47,-0.84l-0.04 -0.59c-0.35,0.58 -0.81,1.03 -1.41,1.34 -0.59,0.31 -1.21,0.47 -1.85,0.47 -0.64,0 -1.24,-0.13 -1.78,-0.37 -0.54,-0.25 -1.02,-0.59 -1.41,-1.03 -0.4,-0.44 -0.71,-0.95 -0.93,-1.53 -0.22,-0.59 -0.33,-1.21 -0.33,-1.89zm7.36 1.23l0 -2.2c-0.12,-0.34 -0.31,-0.64 -0.57,-0.91 -0.26,-0.27 -0.55,-0.48 -0.88,-0.64 -0.32,-0.16 -0.64,-0.24 -0.97,-0.24 -0.37,0 -0.7,0.07 -1,0.23 -0.3,0.15 -0.56,0.36 -0.78,0.62 -0.22,0.26 -0.39,0.55 -0.5,0.9 -0.11,0.34 -0.17,0.69 -0.17,1.07 0,0.37 0.06,0.73 0.19,1.06 0.12,0.34 0.31,0.62 0.55,0.87 0.24,0.25 0.52,0.44 0.83,0.58 0.32,0.14 0.66,0.21 1.03,0.21 0.23,0 0.46,-0.04 0.69,-0.11 0.23,-0.08 0.45,-0.18 0.66,-0.32 0.21,-0.13 0.39,-0.3 0.56,-0.49 0.16,-0.19 0.28,-0.4 0.37,-0.62zm10.94 3.59c-0.75,0 -1.43,-0.13 -2.04,-0.38 -0.61,-0.25 -1.13,-0.6 -1.56,-1.04 -0.43,-0.44 -0.76,-0.95 -0.99,-1.52 -0.23,-0.57 -0.35,-1.17 -0.35,-1.81 0,-0.89 0.2,-1.69 0.6,-2.42 0.4,-0.73 0.97,-1.32 1.72,-1.76 0.75,-0.45 1.63,-0.67 2.64,-0.67 1.03,0 1.9,0.22 2.63,0.67 0.73,0.44 1.29,1.03 1.67,1.75 0.39,0.73 0.58,1.51 0.58,2.35 0,0.14 -0.01,0.29 -0.02,0.43 -0.01,0.15 -0.02,0.27 -0.04,0.36l-7.25 0c0.05,0.47 0.19,0.88 0.42,1.22 0.23,0.35 0.53,0.62 0.9,0.8 0.36,0.18 0.76,0.27 1.17,0.27 0.48,0 0.93,-0.12 1.35,-0.35 0.42,-0.23 0.71,-0.54 0.87,-0.92l2.06 0.57c-0.23,0.48 -0.55,0.9 -0.98,1.27 -0.42,0.37 -0.92,0.66 -1.49,0.87 -0.57,0.21 -1.21,0.31 -1.9,0.31zm-2.45 -5.57l4.9 0c-0.05,-0.47 -0.18,-0.87 -0.4,-1.22 -0.22,-0.34 -0.51,-0.61 -0.87,-0.8 -0.36,-0.19 -0.76,-0.29 -1.2,-0.29 -0.43,0 -0.82,0.1 -1.17,0.29 -0.35,0.19 -0.64,0.46 -0.86,0.8 -0.22,0.35 -0.35,0.75 -0.4,1.22zm22.37 -7.32l2.51 0 4.67 12.71 -2.54 0 -1.06 -3.17 -4.67 0 -1.06 3.17 -2.54 0 4.69 -12.71zm3 7.8l-1.75 -5.24 -1.76 5.24 3.51 0zm15.88 4.9l-2.4 0 0 -5.19c0,-0.74 -0.13,-1.28 -0.39,-1.62 -0.26,-0.34 -0.63,-0.51 -1.09,-0.51 -0.32,0 -0.65,0.08 -0.98,0.24 -0.33,0.16 -0.62,0.39 -0.89,0.67 -0.26,0.28 -0.45,0.62 -0.57,0.99l0 5.42 -2.4 0 0 -9.29 2.17 0 0 1.73c0.24,-0.4 0.54,-0.74 0.91,-1.02 0.37,-0.28 0.8,-0.49 1.28,-0.64 0.48,-0.15 0.99,-0.22 1.53,-0.22 0.59,0 1.07,0.1 1.44,0.31 0.37,0.21 0.66,0.48 0.86,0.83 0.2,0.35 0.34,0.74 0.41,1.18 0.08,0.44 0.12,0.88 0.12,1.33l0 5.79zm3.92 0l0 -9.38 2.4 0 0 9.38 -2.4 0zm0 -10.69l0 -2.38 2.4 0 0 2.38 -2.4 0zm20.96 10.69l-2.4 0 0 -5.19c0,-0.73 -0.13,-1.27 -0.38,-1.61 -0.26,-0.35 -0.61,-0.52 -1.06,-0.52 -0.47,0 -0.91,0.18 -1.33,0.54 -0.42,0.36 -0.72,0.83 -0.9,1.4l0 5.38 -2.4 0 0 -5.19c0,-0.74 -0.13,-1.28 -0.39,-1.62 -0.26,-0.34 -0.61,-0.51 -1.06,-0.51 -0.47,0 -0.91,0.18 -1.33,0.52 -0.42,0.35 -0.73,0.81 -0.9,1.38l0 5.42 -2.4 0 0 -9.29 2.17 0 0 1.73c0.36,-0.6 0.84,-1.06 1.43,-1.39 0.6,-0.33 1.28,-0.49 2.06,-0.49 0.77,0 1.38,0.19 1.82,0.57 0.44,0.38 0.71,0.84 0.83,1.4 0.38,-0.64 0.87,-1.12 1.46,-1.46 0.59,-0.34 1.26,-0.5 2,-0.5 0.58,0 1.06,0.1 1.42,0.31 0.36,0.21 0.65,0.48 0.85,0.83 0.2,0.35 0.34,0.74 0.42,1.18 0.08,0.44 0.12,0.88 0.12,1.33l0 5.79zm3.27 -2.74c0,-0.6 0.17,-1.13 0.51,-1.58 0.34,-0.45 0.81,-0.81 1.42,-1.05 0.61,-0.25 1.31,-0.37 2.09,-0.37 0.39,0 0.79,0.03 1.2,0.09 0.41,0.06 0.76,0.16 1.06,0.29l0 -0.5c0,-0.59 -0.18,-1.04 -0.53,-1.35 -0.35,-0.32 -0.88,-0.48 -1.57,-0.48 -0.51,0 -1,0.09 -1.47,0.27 -0.47,0.18 -0.95,0.44 -1.47,0.79l-0.77 -1.58c0.62,-0.41 1.26,-0.71 1.91,-0.91 0.65,-0.2 1.33,-0.3 2.05,-0.3 1.34,0 2.38,0.33 3.12,0.99 0.75,0.66 1.12,1.6 1.12,2.83l0 2.94c0,0.25 0.04,0.42 0.13,0.53 0.09,0.1 0.23,0.17 0.44,0.19l0 1.95c-0.21,0.04 -0.41,0.07 -0.58,0.09 -0.17,0.02 -0.32,0.04 -0.44,0.04 -0.48,0 -0.84,-0.11 -1.08,-0.32 -0.24,-0.21 -0.4,-0.48 -0.46,-0.79l-0.05 -0.48c-0.41,0.52 -0.91,0.93 -1.52,1.22 -0.61,0.29 -1.23,0.43 -1.86,0.43 -0.62,0 -1.18,-0.13 -1.67,-0.38 -0.49,-0.25 -0.88,-0.6 -1.16,-1.04 -0.28,-0.44 -0.42,-0.94 -0.42,-1.49zm5.84 0.47c0.13,-0.14 0.24,-0.28 0.32,-0.42 0.08,-0.14 0.12,-0.27 0.12,-0.38l0 -0.93c-0.29,-0.12 -0.6,-0.21 -0.93,-0.27 -0.33,-0.06 -0.65,-0.09 -0.95,-0.09 -0.62,0 -1.13,0.13 -1.53,0.39 -0.4,0.26 -0.6,0.61 -0.6,1.04 0,0.23 0.07,0.45 0.2,0.66 0.13,0.21 0.32,0.38 0.57,0.51 0.25,0.13 0.55,0.19 0.9,0.19 0.36,0 0.71,-0.07 1.06,-0.2 0.35,-0.13 0.63,-0.3 0.84,-0.5zm12.44 1.81c-0.2,0.08 -0.45,0.18 -0.74,0.29 -0.29,0.11 -0.59,0.2 -0.92,0.26 -0.33,0.07 -0.66,0.1 -0.99,0.1 -0.44,0 -0.85,-0.08 -1.22,-0.23 -0.37,-0.16 -0.67,-0.4 -0.89,-0.74 -0.22,-0.34 -0.33,-0.78 -0.33,-1.32l0 -5.34 -1.23 0 0 -1.84 1.23 0 0 -3.04 2.4 0 0 3.04 1.97 0 0 1.84 -1.97 0 0 4.52c0.01,0.32 0.1,0.55 0.27,0.69 0.17,0.14 0.38,0.21 0.63,0.21 0.25,0 0.49,-0.04 0.73,-0.12 0.24,-0.08 0.43,-0.16 0.57,-0.21l0.48 1.9zm3.07 0.47l0 -9.38 2.4 0 0 9.38 -2.4 0zm0 -10.69l0 -2.38 2.4 0 0 2.38 -2.4 0zm10.72 10.87c-0.76,0 -1.45,-0.13 -2.06,-0.38 -0.61,-0.25 -1.12,-0.6 -1.55,-1.05 -0.42,-0.45 -0.75,-0.96 -0.98,-1.54 -0.23,-0.58 -0.34,-1.18 -0.34,-1.82 0,-0.65 0.11,-1.26 0.34,-1.84 0.23,-0.58 0.55,-1.09 0.98,-1.54 0.42,-0.45 0.94,-0.8 1.55,-1.05 0.61,-0.25 1.3,-0.38 2.06,-0.38 0.76,0 1.45,0.13 2.05,0.38 0.6,0.25 1.12,0.6 1.55,1.05 0.43,0.45 0.75,0.96 0.98,1.54 0.22,0.58 0.33,1.19 0.33,1.84 0,0.64 -0.11,1.24 -0.33,1.82 -0.22,0.58 -0.54,1.09 -0.97,1.54 -0.42,0.45 -0.94,0.8 -1.55,1.05 -0.61,0.25 -1.3,0.38 -2.06,0.38zm-2.45 -4.8c0,0.54 0.11,1.01 0.32,1.43 0.21,0.41 0.51,0.74 0.88,0.97 0.37,0.24 0.79,0.35 1.25,0.35 0.45,0 0.87,-0.12 1.24,-0.36 0.37,-0.24 0.66,-0.57 0.89,-0.98 0.22,-0.42 0.33,-0.89 0.33,-1.43 0,-0.53 -0.11,-1 -0.33,-1.42 -0.22,-0.42 -0.52,-0.75 -0.89,-0.98 -0.37,-0.23 -0.78,-0.35 -1.24,-0.35 -0.47,0 -0.88,0.12 -1.25,0.36 -0.37,0.24 -0.66,0.57 -0.88,0.98 -0.21,0.42 -0.32,0.89 -0.32,1.43zm19.51 4.62l-2.4 0 0 -5.19c0,-0.74 -0.13,-1.28 -0.39,-1.62 -0.26,-0.34 -0.63,-0.51 -1.09,-0.51 -0.32,0 -0.65,0.08 -0.98,0.24 -0.33,0.16 -0.62,0.39 -0.89,0.67 -0.26,0.28 -0.45,0.62 -0.57,0.99l0 5.42 -2.4 0 0 -9.29 2.17 0 0 1.73c0.24,-0.4 0.54,-0.74 0.91,-1.02 0.37,-0.28 0.8,-0.49 1.28,-0.64 0.48,-0.15 0.99,-0.22 1.53,-0.22 0.59,0 1.07,0.1 1.44,0.31 0.37,0.21 0.66,0.48 0.86,0.83 0.2,0.35 0.34,0.74 0.41,1.18 0.08,0.44 0.12,0.88 0.12,1.33l0 5.79zm12.74 0l0 -12.71 2.47 0 0 10.54 6.48 0 0 2.17 -8.95 0zm11.4 -2.74c0,-0.6 0.17,-1.13 0.51,-1.58 0.34,-0.45 0.81,-0.81 1.42,-1.05 0.61,-0.25 1.31,-0.37 2.09,-0.37 0.39,0 0.79,0.03 1.2,0.09 0.41,0.06 0.76,0.16 1.06,0.29l0 -0.5c0,-0.59 -0.18,-1.04 -0.53,-1.35 -0.35,-0.32 -0.88,-0.48 -1.57,-0.48 -0.51,0 -1,0.09 -1.47,0.27 -0.47,0.18 -0.95,0.44 -1.47,0.79l-0.77 -1.58c0.62,-0.41 1.26,-0.71 1.91,-0.91 0.65,-0.2 1.33,-0.3 2.05,-0.3 1.34,0 2.38,0.33 3.12,0.99 0.75,0.66 1.12,1.6 1.12,2.83l0 2.94c0,0.25 0.04,0.42 0.13,0.53 0.09,0.1 0.23,0.17 0.44,0.19l0 1.95c-0.21,0.04 -0.41,0.07 -0.58,0.09 -0.17,0.02 -0.32,0.04 -0.44,0.04 -0.48,0 -0.84,-0.11 -1.08,-0.32 -0.24,-0.21 -0.4,-0.48 -0.46,-0.79l-0.05 -0.48c-0.41,0.52 -0.91,0.93 -1.52,1.22 -0.61,0.29 -1.23,0.43 -1.86,0.43 -0.62,0 -1.18,-0.13 -1.67,-0.38 -0.49,-0.25 -0.88,-0.6 -1.16,-1.04 -0.28,-0.44 -0.42,-0.94 -0.42,-1.49zm5.84 0.47c0.13,-0.14 0.24,-0.28 0.32,-0.42 0.08,-0.14 0.12,-0.27 0.12,-0.38l0 -0.93c-0.29,-0.12 -0.6,-0.21 -0.93,-0.27 -0.33,-0.06 -0.65,-0.09 -0.95,-0.09 -0.62,0 -1.13,0.13 -1.53,0.39 -0.4,0.26 -0.6,0.61 -0.6,1.04 0,0.23 0.07,0.45 0.2,0.66 0.13,0.21 0.32,0.38 0.57,0.51 0.25,0.13 0.55,0.19 0.9,0.19 0.36,0 0.71,-0.07 1.06,-0.2 0.35,-0.13 0.63,-0.3 0.84,-0.5zm12.24 2.45c-0.72,0 -1.35,-0.16 -1.92,-0.48 -0.56,-0.32 -1,-0.76 -1.32,-1.32l0 1.63 -2.09 0 0 -13.07 2.4 0 0 5.44c0.33,-0.56 0.77,-1 1.31,-1.32 0.54,-0.32 1.18,-0.48 1.91,-0.48 0.61,0 1.16,0.13 1.66,0.38 0.5,0.25 0.93,0.6 1.3,1.05 0.36,0.45 0.64,0.96 0.84,1.54 0.2,0.58 0.3,1.2 0.3,1.86 0,0.66 -0.11,1.28 -0.33,1.86 -0.22,0.58 -0.53,1.09 -0.92,1.53 -0.39,0.45 -0.86,0.78 -1.39,1.03 -0.53,0.24 -1.11,0.36 -1.74,0.36zm-0.66 -2.04c0.38,0 0.73,-0.07 1.05,-0.22 0.32,-0.15 0.59,-0.34 0.82,-0.59 0.23,-0.24 0.41,-0.53 0.54,-0.87 0.13,-0.34 0.19,-0.68 0.19,-1.04 0,-0.5 -0.1,-0.97 -0.31,-1.4 -0.21,-0.43 -0.5,-0.77 -0.86,-1.03 -0.36,-0.26 -0.79,-0.39 -1.28,-0.39 -0.35,0 -0.68,0.08 -0.99,0.24 -0.32,0.16 -0.6,0.37 -0.84,0.64 -0.24,0.27 -0.44,0.58 -0.58,0.91l0 2.2c0.07,0.24 0.19,0.45 0.35,0.63 0.16,0.19 0.35,0.35 0.56,0.48 0.21,0.13 0.44,0.24 0.67,0.32 0.23,0.07 0.46,0.11 0.69,0.11z"/>
  <g id="_2058259829552">
   <path class="fil1" d="M-0 55.42l43.13 0 0 -12.3 -22.5 0 9.34 -6.54c8.09,-5.84 12.61,-10.35 12.61,-19.07l0 -0.16c0,-10.28 -8.17,-17.36 -20.08,-17.36 -10.59,0 -16.35,4.12 -22.18,11.68l10.2 8.49c4.28,-4.9 7.16,-7.01 10.82,-7.01 3.66,0 6.07,2.1 6.07,5.53 0,3.27 -1.95,5.84 -7.01,9.81l-20.39 15.57 0 11.37zm74.73 0l14.63 0 0 -10.59 6.93 0 0 -11.29 -6.93 0 0 -33.01 -15.26 0 -28.26 33.63 2.49 10.67 26.39 0 0 10.59zm-13 -21.8l13 -15.65 0 15.65 -13 0z"/>
   <path class="fil2" d="M119.22 7.45c1.38,-0.09 2.79,-0.04 4.24,0.13 1.45,0.18 2.96,0.59 4.54,1.23 1.58,0.65 2.95,1.5 4.1,2.57 1.16,1.07 2.08,2.53 2.77,4.37 0.69,1.85 0.97,3.97 0.83,6.37 -0.04,0.67 -1.65,1.09 -4.8,1.27 -3.16,0.18 -4.91,-0.04 -5.27,-0.67 -0.18,-0.31 -0.51,-1.23 -1,-2.77 -0.49,-1.53 -0.98,-2.62 -1.47,-3.27 -0.49,-0.64 -1.04,-0.61 -1.67,0.1 -0.53,0.53 -0.93,1.24 -1.2,2.14 -0.27,0.89 -0.4,1.77 -0.4,2.64 0,0.87 0.03,1.69 0.1,2.47 0.07,0.78 0.17,1.41 0.3,1.9l0.13 0.74c0.22,0 0.52,-0.01 0.9,-0.03 0.38,-0.02 1.07,-0.07 2.07,-0.13 1,-0.07 1.9,-0.12 2.7,-0.17 0.8,-0.05 1.58,-0.09 2.34,-0.13 0.76,-0.04 1.25,-0.04 1.47,0 0.58,0.05 0.82,1.98 0.73,5.81 -0.09,3.82 -0.47,5.76 -1.13,5.8 -1.29,0 -2.59,-0.01 -3.9,-0.03 -1.31,-0.02 -2.3,-0.08 -2.97,-0.17l-1 -0.07c0,0 0.42,4.29 1.27,12.88 0.13,2.09 0.13,3.23 0,3.4 -0.31,0.49 -2.95,0.75 -7.91,0.77 -4.96,0.02 -7.55,-0.28 -7.77,-0.9 0.4,-6.23 0.64,-11.72 0.73,-16.48 -0.18,0.05 -0.42,0.08 -0.73,0.1 -0.31,0.02 -0.92,0.09 -1.84,0.2 -0.91,0.11 -1.67,0.18 -2.27,0.2 -0.6,0.02 -1.29,0.06 -2.07,0.1 -0.78,0.05 -1.19,0.05 -1.23,0 -0.45,-0.13 -0.76,-2.06 -0.93,-5.77 -0.18,-3.71 -0.04,-5.68 0.4,-5.9 0.09,-0.04 0.46,-0.08 1.1,-0.1 0.64,-0.02 1.39,-0.01 2.24,0.03 0.84,0.04 1.69,0.08 2.54,0.1 0.85,0.02 1.56,0.06 2.14,0.1l0.87 0c0,-0.31 -0.01,-0.72 -0.03,-1.23 -0.02,-0.51 -0.06,-1.55 -0.1,-3.1 -0.04,-1.56 -0.04,-2.89 0,-4 0.04,-1.78 0.39,-3.34 1.03,-4.67 0.65,-1.33 1.38,-2.35 2.2,-3.04 0.82,-0.69 1.81,-1.26 2.97,-1.7 1.16,-0.44 2.08,-0.72 2.77,-0.83 0.69,-0.11 1.44,-0.19 2.24,-0.23zm41.64 12.54c5.03,0 8.8,1.55 11.31,4.64 2.51,3.09 3.77,7.44 3.77,13.05 0,2.62 -0.53,5.08 -1.6,7.37 -1.07,2.29 -2.41,4.18 -4.04,5.67 -1.62,1.49 -3.39,2.65 -5.31,3.47 -1.91,0.82 -3.76,1.23 -5.54,1.23 -0.93,0 -1.82,-0.07 -2.67,-0.2 -0.85,-0.13 -1.57,-0.3 -2.17,-0.5 -0.6,-0.2 -1.16,-0.42 -1.67,-0.67 -0.51,-0.24 -0.92,-0.48 -1.23,-0.7 -0.31,-0.22 -0.58,-0.43 -0.8,-0.63 -0.22,-0.2 -0.4,-0.37 -0.53,-0.5l-0.13 -0.13 1.07 19.75c-0.71,0.53 -2.96,0.85 -6.74,0.93 -3.78,0.09 -6.05,-0.11 -6.81,-0.6 -0.58,-0.53 -0.85,-8.9 -0.8,-25.09 0.04,-16.19 0.22,-24.58 0.53,-25.15 0.22,-0.44 1.37,-0.77 3.44,-0.97 2.07,-0.2 4.1,-0.24 6.1,-0.13 2,0.11 3.05,0.32 3.14,0.63 0.05,0.22 0.07,0.49 0.07,0.8 0,0.31 0,0.56 0,0.73l-0.07 0.27c0.05,-0.09 0.13,-0.21 0.27,-0.37 0.13,-0.16 0.47,-0.42 1,-0.8 0.53,-0.38 1.16,-0.71 1.87,-1 0.71,-0.29 1.73,-0.54 3.07,-0.77 1.33,-0.22 2.83,-0.33 4.47,-0.33zm-2.2 24.09c0.62,-0.76 1.05,-2.25 1.27,-4.47 0.22,-2.22 0.16,-4.36 -0.2,-6.41 -0.35,-2.05 -0.98,-3.18 -1.87,-3.4 -1.11,-0.22 -2.09,-0.27 -2.94,-0.13 -0.85,0.13 -1.58,0.4 -2.2,0.8 -0.62,0.4 -1.14,0.81 -1.54,1.23 -0.4,0.42 -0.69,0.79 -0.87,1.1l-0.33 0.53 0 9.28c0.09,0.09 0.2,0.2 0.33,0.33 0.13,0.13 0.4,0.37 0.8,0.7 0.4,0.33 0.8,0.62 1.2,0.87 0.4,0.24 0.89,0.49 1.47,0.73 0.58,0.24 1.12,0.38 1.63,0.4 0.51,0.02 1.06,-0.09 1.63,-0.33 0.58,-0.24 1.11,-0.66 1.6,-1.23zm37.57 -10.48c0.27,0.09 0.73,0.2 1.4,0.33 1.2,0.31 2.14,0.57 2.8,0.77 0.67,0.2 1.62,0.53 2.87,1 1.25,0.47 2.25,0.92 3,1.37 0.76,0.45 1.59,1.04 2.5,1.8 0.91,0.76 1.6,1.57 2.07,2.44 0.47,0.87 0.82,1.92 1.07,3.17 0.24,1.25 0.26,2.58 0.03,4 -0.27,1.87 -1.5,3.43 -3.7,4.67 -2.2,1.24 -4.85,2.07 -7.94,2.47 -3.09,0.4 -6.25,0.6 -9.47,0.6 -3.23,0 -6.11,-0.22 -8.64,-0.67 -2.54,-0.44 -4.25,-0.96 -5.14,-1.53 -0.22,-0.45 -0.3,-1.45 -0.23,-3 0.07,-1.56 0.3,-3.17 0.7,-4.84 0.4,-1.67 0.78,-2.46 1.13,-2.37 0.36,0.09 1.02,0.3 2,0.63 0.98,0.33 1.89,0.63 2.73,0.9 0.85,0.27 1.82,0.52 2.94,0.77 1.11,0.24 2.09,0.39 2.94,0.43 1.02,0.09 1.98,0.12 2.87,0.1 0.89,-0.02 1.67,-0.08 2.34,-0.17 0.67,-0.09 1.17,-0.27 1.5,-0.53 0.33,-0.27 0.43,-0.62 0.3,-1.07 -0.09,-0.31 -0.23,-0.6 -0.43,-0.87 -0.2,-0.27 -0.48,-0.51 -0.83,-0.73 -0.35,-0.22 -0.72,-0.43 -1.1,-0.63 -0.38,-0.2 -0.9,-0.42 -1.57,-0.67 -0.67,-0.24 -1.28,-0.46 -1.84,-0.63 -0.56,-0.18 -1.33,-0.43 -2.34,-0.77 -1,-0.33 -1.88,-0.66 -2.64,-0.97 -3.11,-1.11 -5.23,-3.07 -6.34,-5.87 -1.2,-3.07 -0.69,-5.89 1.53,-8.47 3.42,-4 9.76,-5.78 19.02,-5.34 2.71,0.13 5.63,0.47 8.74,1 0.36,0.05 0.57,0.58 0.63,1.6 0.07,1.02 0.02,2.12 -0.13,3.3 -0.16,1.18 -0.42,2.24 -0.8,3.17 -0.38,0.93 -0.79,1.38 -1.23,1.33 -1.11,-0.13 -2.38,-0.36 -3.8,-0.67 -1.42,-0.31 -2.52,-0.57 -3.3,-0.77 -0.78,-0.2 -1.67,-0.34 -2.67,-0.43 -1,-0.09 -1.63,0 -1.9,0.27 -0.85,0.4 -1.16,1.25 -0.93,2.54 0.22,1.29 0.85,2.07 1.87,2.33z"/>
   <path class="fil3" d="M227.62 53.47c-1.51,1.54 -3.35,2.31 -5.52,2.31 -2.16,0 -4,-0.77 -5.52,-2.31 -1.51,-1.54 -2.27,-3.38 -2.27,-5.52 0,-2.14 0.76,-3.97 2.27,-5.52 1.51,-1.54 3.35,-2.31 5.52,-2.31 2.16,0 4,0.77 5.52,2.31 1.51,1.54 2.27,3.38 2.27,5.52 0,2.14 -0.76,3.97 -2.27,5.52z"/>
  </g>
 </g>
</svg>
