<?xml version="1.0" encoding="UTF-8"?>
<!DOCTYPE svg PUBLIC "-//W3C//DTD SVG 1.1//EN" "http://www.w3.org/Graphics/SVG/1.1/DTD/svg11.dtd">
<!-- Creator: CorelDRAW (OEM Version) -->
<svg xmlns="http://www.w3.org/2000/svg" xml:space="preserve" width="17.6876mm" height="8.4282mm" version="1.1" style="shape-rendering:geometricPrecision; text-rendering:geometricPrecision; image-rendering:optimizeQuality; fill-rule:evenodd; clip-rule:evenodd"
viewBox="0 0 44.73 21.31"
 xmlns:xlink="http://www.w3.org/1999/xlink"
 xmlns:xodm="http://www.corel.com/coreldraw/odm/2003">
 <defs>
  <style type="text/css">
   <![CDATA[
    .fil0 {fill:#FDBC15;fill-rule:nonzero}
   ]]>
  </style>
 </defs>
 <g id="Layer_x0020_1">
  <metadata id="CorelCorpID_0Corel-Layer"/>
  <path class="fil0" d="M42.76 0.5c0.31,-0.5 0.97,-0.65 1.47,-0.33 0.5,0.31 0.65,0.97 0.33,1.47l-0.49 0.77c-3.53,5.63 -5.79,9.21 -12.93,11.42l-0.01 0c-1.93,0.58 -3.95,0.6 -5.81,0.18 -1.22,1.48 -2.92,2.65 -4.79,3.5 -2.68,1.23 -5.76,1.84 -8.3,1.8l-0.01 -0c-2.11,-0.05 -4.09,-0.52 -6,-1.2 -0.7,-0.25 -1.39,-0.53 -2.07,-0.83l1.6 2.36c0.33,0.49 0.2,1.15 -0.28,1.48 -0.49,0.33 -1.15,0.2 -1.48,-0.28l-3.79 -5.59c-0.11,-0.15 -0.18,-0.33 -0.2,-0.53 -0.05,-0.59 0.38,-1.11 0.97,-1.16l6.03 -0.57c0.59,-0.05 1.11,0.38 1.16,0.97 0.05,0.59 -0.38,1.11 -0.97,1.16l-2.2 0.21c0.65,0.28 1.3,0.55 1.95,0.78 1.71,0.61 3.47,1.03 5.33,1.08 2.26,0.03 4.99,-0.51 7.38,-1.61 1.31,-0.6 2.51,-1.37 3.45,-2.3 -1.05,-0.47 -2.01,-1.09 -2.82,-1.82 -1.12,-1.02 -1.96,-2.27 -2.38,-3.69 -0.41,-1.37 -0.42,-2.87 0.09,-4.45 0.34,-1.03 1.08,-1.77 2.03,-2.21 0.63,-0.29 1.35,-0.45 2.09,-0.47 0.72,-0.02 1.48,0.08 2.19,0.32 1.43,0.47 2.73,1.44 3.43,2.95 0.7,1.51 0.67,3.14 0.26,4.73 -0.31,1.2 -0.83,2.37 -1.41,3.43 1.29,0.18 2.64,0.1 3.94,-0.29 6.38,-1.98 8.47,-5.29 11.74,-10.51l0.49 -0.78zm-21.03 9.38c0.76,0.69 1.69,1.25 2.72,1.65 0.62,-1.07 1.19,-2.25 1.49,-3.41 0.3,-1.15 0.33,-2.3 -0.14,-3.3 -0.42,-0.91 -1.24,-1.51 -2.15,-1.81 -0.49,-0.16 -0.99,-0.23 -1.47,-0.22 -0.46,0.01 -0.89,0.11 -1.26,0.28 -0.43,0.2 -0.76,0.51 -0.9,0.93 -0.37,1.13 -0.36,2.21 -0.08,3.17 0.31,1.03 0.93,1.95 1.77,2.72z"/>
 </g>
</svg>
