<?xml version="1.0" encoding="UTF-8"?>
<!DOCTYPE svg PUBLIC "-//W3C//DTD SVG 1.1//EN" "http://www.w3.org/Graphics/SVG/1.1/DTD/svg11.dtd">
<!-- Creator: CorelDRAW (OEM Version) -->
<svg xmlns="http://www.w3.org/2000/svg" xml:space="preserve" width="96.704mm" height="85.588mm" version="1.1" style="shape-rendering:geometricPrecision; text-rendering:geometricPrecision; image-rendering:optimizeQuality; fill-rule:evenodd; clip-rule:evenodd"
viewBox="0 0 337.56 298.76"
 xmlns:xlink="http://www.w3.org/1999/xlink"
 xmlns:xodm="http://www.corel.com/coreldraw/odm/2003">
 <defs>
  <style type="text/css">
   <![CDATA[
    .fil0 {fill:white}
   ]]>
  </style>
 </defs>
 <g id="Layer_x0020_1">
  <metadata id="CorelCorpID_0Corel-Layer"/>
  <path class="fil0" d="M37.85 133.57l187.18 -69.08c1.01,-0.37 2.13,0.09 2.59,1.06 0.46,0.98 0.09,2.13 -0.84,2.67l-162.14 93.6 8.51 89.36c1.14,6.73 5.46,11.54 13.07,10.77 10.16,-1.02 21.27,-25.84 34.57,-39.76l67.01 69.66c17.25,19.09 24.67,-5.96 31.22,-20.12l110.43 -238.75c16.63,-35.66 7.84,-37.34 -27.75,-28.46l-271.53 67.73c-15.45,3.85 -40.5,8.13 -25.61,26.02l33.29 35.31z"/>
 </g>
</svg>
