<?xml version="1.0" encoding="UTF-8"?>
<!DOCTYPE svg PUBLIC "-//W3C//DTD SVG 1.1//EN" "http://www.w3.org/Graphics/SVG/1.1/DTD/svg11.dtd">
<!-- Creator: CorelDRAW (OEM Version) -->
<svg xmlns="http://www.w3.org/2000/svg" xml:space="preserve" width="16.9774mm" height="12.9785mm" version="1.1" style="shape-rendering:geometricPrecision; text-rendering:geometricPrecision; image-rendering:optimizeQuality; fill-rule:evenodd; clip-rule:evenodd"
viewBox="0 0 29.65 22.67"
 xmlns:xlink="http://www.w3.org/1999/xlink"
 xmlns:xodm="http://www.corel.com/coreldraw/odm/2003">
 <defs>
  <style type="text/css">
   <![CDATA[
    .fil0 {fill:#FDBC15;fill-rule:nonzero}
   ]]>
  </style>
 </defs>
 <g id="Layer_x0020_1">
  <metadata id="CorelCorpID_0Corel-Layer"/>
  <path class="fil0" d="M9.95 21.2l-2.97 0c-1.92,0 -3.66,-0.78 -4.93,-2.05 -1.26,-1.26 -2.05,-3.01 -2.05,-4.93 0,-1.79 0.69,-3.43 1.81,-4.67 0.97,-1.07 2.26,-1.84 3.71,-2.15 0.18,-1.94 1.05,-3.69 2.36,-5 1.48,-1.48 3.52,-2.4 5.76,-2.4 2.24,0 4.27,0.91 5.75,2.39 1.28,1.27 2.14,2.97 2.36,4.86l0.93 0c1.92,0 3.66,0.78 4.93,2.05 1.26,1.26 2.05,3.01 2.05,4.93 0,1.92 -0.78,3.66 -2.05,4.93 -1.26,1.26 -3.01,2.05 -4.93,2.05l-2.4 0 0 -1.77 2.4 0c1.43,0 2.73,-0.59 3.67,-1.53 0.94,-0.94 1.53,-2.24 1.53,-3.67 0,-1.43 -0.59,-2.73 -1.53,-3.67 -0.94,-0.94 -2.24,-1.53 -3.67,-1.53l-2.64 0 -0 -0.88c-0.01,-1.75 -0.73,-3.34 -1.89,-4.49 -1.16,-1.15 -2.75,-1.87 -4.5,-1.87 -1.75,0 -3.35,0.72 -4.51,1.88 -1.16,1.16 -1.88,2.75 -1.88,4.51l0 0.8 -0.8 0.08c-1.32,0.13 -2.49,0.76 -3.34,1.69 -0.83,0.92 -1.34,2.15 -1.34,3.49 0,1.43 0.59,2.73 1.53,3.67 0.94,0.94 2.24,1.53 3.67,1.53l2.97 0 0 1.77zm0.71 -5.78l4.21 -4.21 4.09 4.09 -1.25 1.25 -1.95 -1.95 0 8.06 -1.77 0 0 -8.06 -2.07 2.07 -1.25 -1.25z"/>
 </g>
</svg>
